<?xml version="1.0" encoding="UTF-8"?>
<svg xmlns="http://www.w3.org/2000/svg" xmlns:xlink="http://www.w3.org/1999/xlink" width="97px" height="35px" viewBox="0 0 97 35" version="1.1">
<g id="surface1">
<path style="fill:none;stroke-width:2.559;stroke-linecap:round;stroke-linejoin:round;stroke:rgb(0%,0%,0%);stroke-opacity:1;stroke-miterlimit:4;" d="M 115.547251 2.021379 L 115.547251 52.208098 " transform="matrix(0.521505,0,0,0.507246,0.264925,0.197319)"/>
<path style=" stroke:none;fill-rule:nonzero;fill:rgb(0%,0%,0%);fill-opacity:1;" d="M 93.382812 0.199219 L 3.453125 0.199219 C 1.691406 0.199219 0.265625 1.585938 0.265625 3.296875 L 0.265625 34.6875 L 96.570312 34.6875 L 96.570312 26.90625 C 96.570312 26.894531 96.570312 26.882812 96.570312 26.867188 L 96.570312 3.296875 C 96.566406 1.585938 95.144531 0.199219 93.382812 0.199219 M 1.601562 3.296875 C 1.601562 2.300781 2.429688 1.496094 3.453125 1.496094 L 93.382812 1.496094 C 94.40625 1.496094 95.234375 2.300781 95.234375 3.296875 L 95.234375 26.21875 L 1.601562 26.21875 Z M 1.601562 3.296875 "/>
<path style=" stroke:none;fill-rule:nonzero;fill:rgb(0%,0%,0%);fill-opacity:1;" d="M 73.117188 20.105469 L 73.117188 20.351562 L 74.046875 20.351562 L 74.046875 21.097656 L 72.191406 21.097656 L 72.191406 21.308594 L 74.128906 21.308594 L 74.128906 21.589844 L 71.753906 21.589844 L 71.753906 20.835938 L 73.621094 20.835938 L 73.621094 20.628906 L 71.753906 20.628906 L 71.753906 20.351562 L 72.679688 20.351562 L 72.679688 20.105469 L 71.367188 20.105469 L 71.367188 19.816406 L 74.441406 19.816406 L 74.441406 20.105469 Z M 73.390625 19.199219 C 73.464844 19.234375 73.546875 19.261719 73.636719 19.285156 C 73.734375 19.3125 73.84375 19.335938 73.953125 19.347656 C 74.066406 19.363281 74.171875 19.378906 74.277344 19.386719 C 74.242188 19.425781 74.203125 19.472656 74.160156 19.527344 C 74.117188 19.585938 74.082031 19.632812 74.050781 19.679688 C 73.960938 19.664062 73.863281 19.648438 73.757812 19.628906 C 73.65625 19.609375 73.550781 19.582031 73.449219 19.550781 C 73.335938 19.515625 73.226562 19.472656 73.132812 19.421875 C 73.035156 19.371094 72.960938 19.316406 72.90625 19.253906 C 72.851562 19.308594 72.78125 19.359375 72.699219 19.40625 C 72.613281 19.449219 72.523438 19.488281 72.421875 19.523438 C 72.316406 19.558594 72.210938 19.589844 72.09375 19.617188 C 71.980469 19.640625 71.867188 19.660156 71.75 19.679688 C 71.71875 19.628906 71.683594 19.582031 71.640625 19.535156 C 71.601562 19.488281 71.558594 19.4375 71.519531 19.386719 C 71.632812 19.378906 71.746094 19.363281 71.855469 19.347656 C 71.96875 19.332031 72.070312 19.3125 72.167969 19.285156 C 72.261719 19.261719 72.347656 19.230469 72.417969 19.195312 C 72.492188 19.15625 72.546875 19.117188 72.582031 19.070312 L 71.691406 19.070312 L 71.691406 18.796875 L 74.101562 18.796875 L 74.101562 19.070312 L 73.214844 19.070312 C 73.257812 19.121094 73.320312 19.164062 73.390625 19.199219 M 72.253906 18.359375 L 73.546875 18.359375 L 73.546875 18.628906 L 72.253906 18.628906 Z M 72.253906 18.359375 "/>
<path style=" stroke:none;fill-rule:nonzero;fill:rgb(0%,0%,0%);fill-opacity:1;" d="M 76.09375 19.886719 C 76.132812 20.003906 76.1875 20.109375 76.257812 20.210938 C 76.335938 20.3125 76.421875 20.410156 76.519531 20.492188 C 76.621094 20.574219 76.726562 20.640625 76.832031 20.6875 C 76.78125 20.734375 76.730469 20.78125 76.683594 20.828125 C 76.636719 20.878906 76.59375 20.921875 76.554688 20.960938 C 76.484375 20.914062 76.414062 20.867188 76.347656 20.8125 C 76.273438 20.757812 76.207031 20.695312 76.136719 20.628906 C 76.078125 20.566406 76.023438 20.5 75.96875 20.425781 C 75.914062 20.351562 75.863281 20.269531 75.820312 20.183594 C 75.78125 20.269531 75.734375 20.351562 75.679688 20.433594 C 75.625 20.511719 75.566406 20.589844 75.496094 20.664062 C 75.433594 20.730469 75.363281 20.796875 75.289062 20.855469 C 75.214844 20.917969 75.136719 20.976562 75.050781 21.035156 C 75.011719 21 74.960938 20.957031 74.902344 20.910156 C 74.839844 20.863281 74.785156 20.8125 74.722656 20.769531 C 74.847656 20.707031 74.960938 20.628906 75.066406 20.542969 C 75.175781 20.457031 75.269531 20.363281 75.347656 20.261719 C 75.425781 20.15625 75.488281 20.039062 75.53125 19.917969 C 75.574219 19.796875 75.597656 19.664062 75.597656 19.523438 L 75.597656 19.390625 L 74.914062 19.390625 L 74.914062 19.054688 L 76.714844 19.054688 L 76.714844 19.390625 L 76.03125 19.390625 L 76.03125 19.523438 C 76.03125 19.652344 76.054688 19.769531 76.09375 19.886719 M 75.300781 18.460938 L 76.320312 18.460938 L 76.320312 18.785156 L 75.300781 18.785156 Z M 77.183594 21.613281 L 77.183594 20.027344 L 76.5625 20.027344 L 76.5625 19.6875 L 77.183594 19.6875 L 77.183594 18.410156 L 77.582031 18.410156 L 77.582031 21.613281 Z M 77.183594 21.613281 "/>
<path style=" stroke:none;fill-rule:nonzero;fill:rgb(0%,0%,0%);fill-opacity:1;" d="M 78.003906 21.257812 L 78.003906 20.917969 L 78.730469 20.917969 L 78.730469 20.269531 L 79.125 20.269531 L 79.125 20.917969 L 79.972656 20.917969 L 79.972656 20.265625 L 80.359375 20.265625 L 80.359375 20.917969 L 81.085938 20.917969 L 81.085938 21.257812 Z M 78.257812 20.128906 L 78.257812 19.796875 L 78.703125 19.796875 L 78.691406 18.890625 L 78.332031 18.890625 L 78.332031 18.550781 L 80.75 18.550781 L 80.75 18.890625 L 80.378906 18.890625 L 80.371094 19.796875 L 80.824219 19.796875 L 80.824219 20.128906 Z M 79.105469 19.796875 L 79.980469 19.796875 L 79.992188 18.890625 L 79.089844 18.890625 Z M 79.105469 19.796875 "/>
<path style=" stroke:none;fill-rule:nonzero;fill:rgb(0%,0%,0%);fill-opacity:1;" d="M 82.621094 19.683594 C 82.65625 19.816406 82.707031 19.9375 82.773438 20.050781 C 82.847656 20.183594 82.945312 20.300781 83.058594 20.40625 C 83.171875 20.507812 83.296875 20.601562 83.4375 20.6875 C 83.378906 20.730469 83.324219 20.777344 83.269531 20.824219 C 83.214844 20.871094 83.171875 20.910156 83.136719 20.949219 C 83.074219 20.90625 83.003906 20.855469 82.933594 20.796875 C 82.859375 20.734375 82.789062 20.667969 82.714844 20.59375 C 82.640625 20.515625 82.574219 20.433594 82.515625 20.347656 C 82.457031 20.261719 82.402344 20.171875 82.363281 20.082031 C 82.335938 20.164062 82.296875 20.25 82.238281 20.339844 C 82.179688 20.429688 82.117188 20.515625 82.046875 20.601562 C 81.972656 20.6875 81.894531 20.765625 81.8125 20.839844 C 81.730469 20.914062 81.652344 20.972656 81.582031 21.019531 C 81.542969 20.984375 81.492188 20.941406 81.425781 20.894531 C 81.367188 20.847656 81.304688 20.804688 81.246094 20.765625 C 81.394531 20.675781 81.527344 20.578125 81.644531 20.464844 C 81.757812 20.355469 81.855469 20.230469 81.933594 20.097656 C 82.003906 19.972656 82.058594 19.835938 82.09375 19.6875 C 82.128906 19.542969 82.148438 19.386719 82.148438 19.222656 L 82.148438 18.535156 L 82.566406 18.535156 L 82.566406 19.242188 C 82.566406 19.402344 82.585938 19.550781 82.621094 19.683594 M 83.765625 18.40625 L 84.164062 18.40625 L 84.164062 21.613281 L 83.765625 21.613281 Z M 83.765625 18.40625 "/>
<path style=" stroke:none;fill-rule:nonzero;fill:rgb(0%,0%,0%);fill-opacity:1;" d="M 86.199219 4.617188 L 69.828125 4.617188 C 68.957031 4.617188 68.257812 5.300781 68.257812 6.144531 L 68.257812 21.671875 C 68.257812 22.511719 68.957031 23.195312 69.828125 23.199219 L 86.199219 23.199219 C 87.066406 23.195312 87.769531 22.511719 87.769531 21.671875 L 87.769531 6.144531 C 87.765625 5.300781 87.066406 4.617188 86.199219 4.617188 M 86.199219 22.570312 L 69.828125 22.570312 C 69.316406 22.570312 68.902344 22.167969 68.902344 21.671875 L 68.902344 17.546875 L 87.121094 17.546875 L 87.121094 21.671875 C 87.121094 22.167969 86.707031 22.570312 86.199219 22.570312 "/>
<path style=" stroke:none;fill-rule:nonzero;fill:rgb(100%,100%,100%);fill-opacity:1;" d="M 81.769531 14.027344 C 81.460938 11.824219 80.472656 10.675781 79.5625 10.128906 C 79.996094 9.714844 80.269531 9.140625 80.269531 8.503906 C 80.269531 7.25 79.230469 6.238281 77.941406 6.238281 C 76.65625 6.238281 75.617188 7.25 75.617188 8.503906 C 75.617188 9.140625 75.890625 9.71875 76.328125 10.128906 C 75.414062 10.675781 74.425781 11.824219 74.117188 14.027344 C 74.070312 14.34375 74.046875 14.636719 74.046875 14.910156 C 74.046875 15.175781 74.066406 15.425781 74.113281 15.65625 C 74.171875 15.957031 74.441406 16.171875 74.753906 16.171875 L 81.132812 16.171875 C 81.449219 16.171875 81.714844 15.953125 81.773438 15.652344 C 81.820312 15.425781 81.84375 15.179688 81.84375 14.910156 C 81.84375 14.636719 81.816406 14.34375 81.769531 14.027344 "/>
<path style=" stroke:none;fill-rule:nonzero;fill:rgb(0%,0%,0%);fill-opacity:1;" d="M 31.359375 9.292969 C 31.0625 8.78125 30.660156 8.363281 30.15625 8.0625 C 29.660156 7.765625 29.097656 7.5625 28.464844 7.445312 C 27.847656 7.332031 27.203125 7.277344 26.535156 7.277344 L 21.679688 7.277344 C 21.601562 7.277344 21.523438 7.308594 21.46875 7.363281 C 21.414062 7.414062 21.382812 7.492188 21.382812 7.566406 L 21.382812 20.167969 C 21.382812 20.246094 21.414062 20.316406 21.46875 20.371094 C 21.527344 20.425781 21.601562 20.457031 21.679688 20.457031 L 23.394531 20.457031 C 23.472656 20.457031 23.546875 20.425781 23.601562 20.371094 C 23.65625 20.316406 23.6875 20.246094 23.6875 20.167969 L 23.6875 15.417969 L 26.648438 15.417969 C 28.277344 15.417969 29.558594 15.082031 30.460938 14.367188 C 31.367188 13.648438 31.8125 12.574219 31.808594 11.246094 C 31.808594 10.480469 31.667969 9.824219 31.359375 9.292969 M 26.6875 13.339844 L 23.6875 13.339844 L 23.6875 9.351562 L 26.628906 9.351562 C 27.039062 9.351562 27.421875 9.382812 27.78125 9.433594 C 28.128906 9.484375 28.421875 9.582031 28.671875 9.722656 C 28.910156 9.863281 29.09375 10.042969 29.238281 10.289062 C 29.367188 10.523438 29.449219 10.851562 29.449219 11.28125 C 29.449219 11.640625 29.394531 11.945312 29.296875 12.199219 C 29.203125 12.445312 29.058594 12.644531 28.851562 12.8125 C 28.644531 12.980469 28.371094 13.113281 28.015625 13.203125 C 27.664062 13.292969 27.21875 13.34375 26.6875 13.339844 "/>
<path style=" stroke:none;fill-rule:nonzero;fill:rgb(0%,0%,0%);fill-opacity:1;" d="M 43.15625 18.46875 C 43.101562 18.414062 43.027344 18.382812 42.945312 18.382812 L 35.285156 18.382812 L 35.285156 14.679688 L 42.152344 14.679688 C 42.230469 14.679688 42.304688 14.652344 42.363281 14.597656 C 42.417969 14.542969 42.449219 14.472656 42.449219 14.394531 L 42.449219 12.894531 C 42.449219 12.820312 42.414062 12.742188 42.363281 12.691406 C 42.304688 12.636719 42.230469 12.605469 42.152344 12.605469 L 35.285156 12.605469 L 35.285156 9.351562 L 42.660156 9.351562 C 42.738281 9.351562 42.816406 9.324219 42.867188 9.269531 C 42.925781 9.214844 42.957031 9.144531 42.957031 9.066406 L 42.957031 7.566406 C 42.957031 7.492188 42.925781 7.417969 42.871094 7.363281 C 42.816406 7.308594 42.738281 7.277344 42.660156 7.277344 L 33.273438 7.277344 C 33.195312 7.277344 33.121094 7.308594 33.066406 7.363281 C 33.007812 7.417969 32.976562 7.492188 32.976562 7.566406 L 32.976562 20.171875 C 32.976562 20.246094 33.007812 20.320312 33.066406 20.371094 C 33.121094 20.425781 33.195312 20.457031 33.273438 20.457031 L 42.945312 20.457031 C 43.023438 20.457031 43.101562 20.425781 43.15625 20.371094 C 43.210938 20.320312 43.242188 20.246094 43.242188 20.171875 L 43.242188 18.667969 C 43.242188 18.59375 43.210938 18.519531 43.15625 18.46875 "/>
<path style=" stroke:none;fill-rule:nonzero;fill:rgb(0%,0%,0%);fill-opacity:1;" d="M 55.269531 7.363281 C 55.214844 7.308594 55.136719 7.277344 55.058594 7.277344 L 53.414062 7.277344 C 53.335938 7.277344 53.257812 7.308594 53.203125 7.363281 C 53.148438 7.414062 53.117188 7.492188 53.117188 7.566406 L 53.117188 16.566406 L 46.890625 7.40625 C 46.835938 7.328125 46.742188 7.277344 46.640625 7.277344 L 44.871094 7.277344 C 44.792969 7.277344 44.714844 7.308594 44.660156 7.363281 C 44.605469 7.414062 44.574219 7.488281 44.574219 7.566406 L 44.574219 20.167969 C 44.574219 20.246094 44.605469 20.316406 44.660156 20.371094 C 44.71875 20.425781 44.792969 20.457031 44.871094 20.457031 L 46.5 20.457031 C 46.578125 20.457031 46.652344 20.425781 46.707031 20.371094 C 46.761719 20.316406 46.792969 20.246094 46.792969 20.167969 L 46.792969 11.183594 L 53.050781 20.328125 C 53.105469 20.410156 53.199219 20.457031 53.296875 20.457031 L 55.058594 20.457031 C 55.140625 20.457031 55.214844 20.425781 55.269531 20.371094 C 55.324219 20.316406 55.355469 20.246094 55.355469 20.167969 L 55.355469 7.566406 C 55.355469 7.492188 55.324219 7.414062 55.269531 7.363281 "/>
<path style=" stroke:none;fill-rule:nonzero;fill:rgb(0%,69.411767%,57.647061%);fill-opacity:1;" d="M 12.441406 8.421875 C 15.109375 8.425781 17.316406 10.335938 17.707031 12.824219 C 18.617188 12.953125 19.363281 13.183594 19.960938 13.4375 C 19.953125 13.269531 19.945312 13.1875 19.945312 13.1875 L 19.941406 13.183594 C 19.714844 9.34375 16.445312 6.300781 12.441406 6.296875 C 8.46875 6.300781 5.222656 9.292969 4.945312 13.085938 C 4.960938 13.335938 5.089844 13.8125 5.820312 14.160156 L 5.777344 14.148438 C 6.515625 14.535156 7.667969 14.992188 9.023438 14.992188 C 10.035156 14.992188 11.382812 14.730469 12.5 14 C 13.28125 13.488281 14.171875 13.003906 15.140625 13.003906 C 15.441406 13.003906 15.738281 13.035156 16.03125 13.09375 C 16.113281 13.109375 16.195312 13.128906 16.273438 13.148438 C 16.273438 13.148438 16.546875 13.296875 16.601562 13.121094 C 16.632812 13.027344 16.601562 12.941406 16.570312 12.886719 C 16.476562 12.730469 16.234375 12.578125 16.082031 12.484375 C 15.867188 12.351562 15.628906 12.253906 15.382812 12.191406 C 14.816406 12.050781 14.210938 12.089844 13.644531 12.203125 C 13.074219 12.316406 12.511719 12.5 11.988281 12.742188 C 11.078125 13.164062 10.121094 13.320312 9.535156 13.320312 C 8.585938 13.316406 8.015625 12.917969 7.652344 12.507812 C 7.523438 12.363281 7.425781 12.214844 7.351562 12.085938 C 8.023438 9.964844 10.042969 8.425781 12.441406 8.421875 "/>
<path style=" stroke:none;fill-rule:nonzero;fill:rgb(0%,0%,0%);fill-opacity:1;" d="M 17.8125 13.675781 C 17.808594 13.828125 17.796875 13.953125 17.792969 14.011719 L 17.789062 14.011719 C 17.585938 16.699219 15.289062 18.820312 12.472656 18.824219 C 10.171875 18.820312 8.289062 17.589844 7.546875 15.621094 C 7.027344 15.507812 5.78125 15.183594 5.003906 14.570312 C 5.003906 14.570312 5.003906 14.574219 5.003906 14.578125 C 5.382812 18.269531 8.574219 20.949219 12.472656 20.949219 C 16.378906 20.949219 19.589844 18.050781 19.953125 14.34375 C 19.230469 13.980469 18.441406 13.78125 17.8125 13.675781 "/>
<path style=" stroke:none;fill-rule:nonzero;fill:rgb(100%,100%,100%);fill-opacity:1;" d="M 13.097656 30 L 10.863281 30 L 10.863281 29.085938 C 10.863281 29.078125 10.859375 29.066406 10.851562 29.0625 C 10.84375 29.054688 10.835938 29.050781 10.828125 29.050781 L 10.21875 29.050781 C 10.207031 29.050781 10.199219 29.054688 10.191406 29.0625 C 10.183594 29.066406 10.183594 29.078125 10.183594 29.085938 L 10.183594 30 L 8.523438 30 C 8.515625 30 8.503906 30.003906 8.5 30.011719 C 8.492188 30.015625 8.488281 30.027344 8.488281 30.035156 L 8.488281 30.5625 C 8.488281 30.570312 8.492188 30.582031 8.5 30.589844 C 8.503906 30.59375 8.515625 30.597656 8.523438 30.597656 L 13.097656 30.597656 C 13.105469 30.597656 13.117188 30.59375 13.121094 30.589844 C 13.128906 30.582031 13.132812 30.570312 13.132812 30.5625 L 13.132812 30.035156 C 13.132812 30.027344 13.128906 30.015625 13.121094 30.011719 C 13.117188 30.003906 13.105469 30 13.097656 30 M 12.183594 31.207031 C 11.859375 31.011719 11.398438 30.917969 10.796875 30.917969 C 10.207031 30.917969 9.75 31.011719 9.425781 31.207031 C 9.105469 31.402344 8.9375 31.660156 8.9375 31.972656 C 8.9375 32.28125 9.105469 32.539062 9.429688 32.734375 C 9.753906 32.933594 10.210938 33.027344 10.804688 33.03125 C 11.402344 33.027344 11.863281 32.933594 12.1875 32.734375 C 12.503906 32.539062 12.671875 32.28125 12.671875 31.972656 C 12.671875 31.660156 12.503906 31.402344 12.183594 31.207031 M 11.640625 32.355469 C 11.429688 32.4375 11.152344 32.484375 10.804688 32.484375 C 10.449219 32.484375 10.171875 32.4375 9.96875 32.355469 C 9.769531 32.265625 9.679688 32.144531 9.675781 31.96875 C 9.679688 31.804688 9.769531 31.6875 9.96875 31.597656 C 10.171875 31.511719 10.449219 31.46875 10.804688 31.46875 C 11.152344 31.46875 11.429688 31.511719 11.640625 31.597656 C 11.847656 31.6875 11.941406 31.804688 11.941406 31.96875 C 11.941406 32.144531 11.847656 32.265625 11.640625 32.355469 M 9.011719 28.578125 L 11.96875 28.578125 C 11.964844 28.757812 11.945312 28.949219 11.921875 29.148438 C 11.890625 29.363281 11.859375 29.546875 11.828125 29.707031 C 11.824219 29.71875 11.828125 29.730469 11.835938 29.738281 C 11.839844 29.746094 11.851562 29.75 11.863281 29.75 L 12.449219 29.757812 C 12.464844 29.757812 12.480469 29.746094 12.484375 29.726562 C 12.527344 29.480469 12.566406 29.21875 12.597656 28.9375 C 12.632812 28.660156 12.652344 28.351562 12.65625 28.015625 C 12.65625 28.007812 12.652344 27.996094 12.644531 27.992188 C 12.636719 27.984375 12.628906 27.980469 12.617188 27.980469 L 9.011719 27.980469 C 9 27.980469 8.992188 27.984375 8.984375 27.992188 C 8.980469 27.996094 8.976562 28.007812 8.976562 28.015625 L 8.976562 28.542969 C 8.976562 28.550781 8.980469 28.558594 8.984375 28.566406 C 8.992188 28.574219 9 28.578125 9.011719 28.578125 M 13.945312 28.578125 L 16.902344 28.578125 C 16.898438 28.757812 16.882812 28.949219 16.855469 29.148438 C 16.824219 29.363281 16.792969 29.546875 16.761719 29.707031 C 16.757812 29.71875 16.761719 29.730469 16.769531 29.738281 C 16.773438 29.746094 16.785156 29.75 16.796875 29.75 L 17.382812 29.757812 C 17.398438 29.757812 17.414062 29.746094 17.417969 29.726562 C 17.460938 29.480469 17.5 29.21875 17.535156 28.9375 C 17.566406 28.660156 17.585938 28.351562 17.589844 28.015625 C 17.589844 28.007812 17.585938 27.996094 17.578125 27.992188 C 17.570312 27.984375 17.5625 27.980469 17.554688 27.980469 L 13.945312 27.980469 C 13.9375 27.980469 13.925781 27.984375 13.921875 27.992188 C 13.914062 27.996094 13.910156 28.007812 13.910156 28.015625 L 13.910156 28.542969 C 13.910156 28.550781 13.914062 28.558594 13.921875 28.566406 C 13.929688 28.574219 13.9375 28.578125 13.945312 28.578125 M 17.117188 31.207031 C 16.792969 31.011719 16.332031 30.917969 15.734375 30.917969 C 15.140625 30.917969 14.683594 31.011719 14.359375 31.207031 C 14.039062 31.402344 13.871094 31.660156 13.871094 31.972656 C 13.871094 32.28125 14.039062 32.539062 14.363281 32.734375 C 14.6875 32.933594 15.144531 33.027344 15.738281 33.03125 C 16.335938 33.027344 16.796875 32.933594 17.121094 32.734375 C 17.441406 32.539062 17.605469 32.28125 17.605469 31.972656 C 17.605469 31.660156 17.4375 31.402344 17.117188 31.207031 M 16.574219 32.355469 C 16.363281 32.4375 16.085938 32.484375 15.738281 32.484375 C 15.382812 32.484375 15.105469 32.4375 14.902344 32.355469 C 14.703125 32.265625 14.613281 32.144531 14.613281 31.96875 C 14.613281 31.804688 14.703125 31.6875 14.902344 31.597656 C 15.105469 31.511719 15.382812 31.46875 15.738281 31.46875 C 16.085938 31.46875 16.363281 31.511719 16.574219 31.597656 C 16.78125 31.6875 16.875 31.804688 16.875 31.96875 C 16.875 32.144531 16.78125 32.265625 16.574219 32.355469 M 18.03125 30 L 15.796875 30 L 15.796875 29.085938 C 15.796875 29.078125 15.792969 29.066406 15.785156 29.0625 C 15.777344 29.054688 15.769531 29.050781 15.761719 29.050781 L 15.152344 29.050781 C 15.140625 29.050781 15.132812 29.054688 15.125 29.0625 C 15.121094 29.066406 15.117188 29.078125 15.117188 29.085938 L 15.117188 30 L 13.457031 30 C 13.449219 30 13.441406 30.003906 13.433594 30.011719 C 13.425781 30.015625 13.421875 30.027344 13.421875 30.035156 L 13.421875 30.5625 C 13.421875 30.570312 13.425781 30.582031 13.433594 30.589844 C 13.441406 30.59375 13.449219 30.597656 13.457031 30.597656 L 18.03125 30.597656 C 18.039062 30.597656 18.050781 30.59375 18.054688 30.589844 C 18.0625 30.582031 18.066406 30.570312 18.066406 30.5625 L 18.066406 30.035156 C 18.066406 30.027344 18.0625 30.015625 18.054688 30.011719 C 18.050781 30.003906 18.039062 30 18.03125 30 M 18.953125 30.058594 L 22.503906 30.058594 C 22.515625 30.058594 22.523438 30.054688 22.53125 30.046875 C 22.535156 30.042969 22.542969 30.03125 22.542969 30.023438 L 22.542969 29.496094 C 22.542969 29.488281 22.535156 29.476562 22.53125 29.472656 C 22.523438 29.464844 22.515625 29.460938 22.503906 29.460938 L 19.570312 29.460938 L 19.570312 28.027344 C 19.570312 28.015625 19.566406 28.007812 19.558594 28 C 19.550781 27.992188 19.542969 27.992188 19.53125 27.992188 L 18.953125 27.992188 C 18.941406 27.992188 18.933594 27.992188 18.925781 28 C 18.917969 28.007812 18.917969 28.015625 18.917969 28.027344 L 18.917969 30.023438 C 18.917969 30.03125 18.917969 30.042969 18.925781 30.046875 C 18.933594 30.054688 18.941406 30.058594 18.953125 30.058594 M 22.964844 30.617188 L 18.390625 30.617188 C 18.382812 30.617188 18.375 30.621094 18.367188 30.628906 C 18.359375 30.632812 18.355469 30.644531 18.355469 30.652344 L 18.355469 31.175781 C 18.355469 31.183594 18.359375 31.191406 18.367188 31.199219 C 18.375 31.207031 18.382812 31.210938 18.390625 31.210938 L 20.347656 31.210938 L 20.347656 32.898438 C 20.347656 32.90625 20.351562 32.914062 20.359375 32.921875 C 20.363281 32.929688 20.375 32.933594 20.382812 32.933594 L 20.984375 32.933594 C 20.996094 32.933594 21.003906 32.929688 21.011719 32.921875 C 21.019531 32.914062 21.019531 32.90625 21.019531 32.898438 L 21.019531 31.207031 L 22.964844 31.207031 C 22.972656 31.207031 22.984375 31.207031 22.988281 31.199219 C 22.996094 31.191406 23 31.183594 23 31.175781 L 23 30.652344 C 23 30.644531 22.996094 30.632812 22.988281 30.628906 C 22.984375 30.621094 22.972656 30.617188 22.964844 30.617188 M 26.65625 31.015625 C 26.496094 31.042969 26.25 31.074219 25.925781 31.113281 C 25.597656 31.148438 25.3125 31.167969 25.066406 31.167969 L 24.339844 31.167969 L 24.339844 30.214844 L 26.007812 30.214844 C 26.019531 30.214844 26.027344 30.210938 26.035156 30.207031 C 26.039062 30.199219 26.042969 30.191406 26.042969 30.183594 L 26.042969 28.144531 C 26.042969 28.132812 26.039062 28.125 26.035156 28.117188 C 26.027344 28.113281 26.015625 28.109375 26.007812 28.109375 L 23.71875 28.109375 C 23.707031 28.109375 23.699219 28.113281 23.691406 28.117188 C 23.683594 28.125 23.679688 28.132812 23.679688 28.144531 L 23.679688 28.671875 C 23.679688 28.679688 23.683594 28.6875 23.691406 28.695312 C 23.699219 28.703125 23.707031 28.707031 23.71875 28.707031 L 25.386719 28.707031 L 25.386719 29.628906 L 23.71875 29.628906 C 23.707031 29.628906 23.699219 29.632812 23.691406 29.640625 C 23.683594 29.644531 23.679688 29.65625 23.679688 29.664062 L 23.679688 31.742188 C 23.679688 31.753906 23.683594 31.757812 23.691406 31.765625 C 23.699219 31.773438 23.707031 31.777344 23.71875 31.777344 C 23.71875 31.777344 23.898438 31.773438 24.25 31.769531 C 24.597656 31.765625 24.816406 31.765625 24.902344 31.765625 C 25.222656 31.757812 25.558594 31.734375 25.898438 31.699219 C 26.242188 31.664062 26.496094 31.632812 26.667969 31.605469 C 26.683594 31.605469 26.695312 31.589844 26.695312 31.574219 L 26.695312 31.050781 C 26.695312 31.039062 26.691406 31.03125 26.683594 31.023438 C 26.675781 31.019531 26.664062 31.015625 26.65625 31.015625 M 27.511719 27.859375 C 27.507812 27.855469 27.5 27.851562 27.488281 27.851562 L 26.894531 27.851562 C 26.886719 27.851562 26.878906 27.855469 26.871094 27.859375 C 26.863281 27.867188 26.859375 27.875 26.859375 27.886719 L 26.859375 32.898438 C 26.859375 32.910156 26.863281 32.917969 26.871094 32.925781 C 26.878906 32.929688 26.886719 32.933594 26.894531 32.933594 L 27.488281 32.933594 C 27.5 32.933594 27.507812 32.929688 27.511719 32.921875 C 27.519531 32.917969 27.523438 32.910156 27.523438 32.898438 L 27.523438 27.886719 C 27.523438 27.875 27.519531 27.867188 27.511719 27.859375 "/>
<path style=" stroke:none;fill-rule:nonzero;fill:rgb(100%,100%,100%);fill-opacity:1;" d="M 31.992188 30.402344 L 31.992188 30.046875 L 33.765625 30.046875 L 33.765625 29.105469 L 34.234375 29.105469 L 34.234375 30.046875 L 36.589844 30.046875 L 36.589844 30.402344 Z M 32.953125 32.347656 C 32.640625 32.175781 32.484375 31.960938 32.484375 31.707031 C 32.484375 31.453125 32.640625 31.238281 32.953125 31.070312 C 33.265625 30.898438 33.710938 30.8125 34.289062 30.8125 C 34.871094 30.8125 35.316406 30.898438 35.628906 31.070312 C 35.9375 31.238281 36.09375 31.453125 36.09375 31.707031 C 36.09375 31.960938 35.9375 32.175781 35.628906 32.347656 C 35.316406 32.519531 34.871094 32.605469 34.289062 32.605469 C 33.710938 32.605469 33.265625 32.519531 32.953125 32.347656 M 36.074219 28.179688 C 36.070312 28.464844 36.046875 28.742188 36.003906 29.007812 C 35.964844 29.277344 35.917969 29.515625 35.867188 29.726562 L 35.425781 29.726562 C 35.464844 29.566406 35.503906 29.375 35.535156 29.152344 C 35.570312 28.929688 35.589844 28.722656 35.589844 28.535156 L 32.527344 28.535156 L 32.527344 28.179688 Z M 33.34375 32.128906 C 33.582031 32.222656 33.898438 32.269531 34.289062 32.269531 C 34.675781 32.269531 34.988281 32.222656 35.230469 32.128906 C 35.472656 32.03125 35.589844 31.890625 35.589844 31.703125 C 35.589844 31.523438 35.472656 31.386719 35.230469 31.292969 C 34.988281 31.199219 34.675781 31.152344 34.289062 31.152344 C 33.898438 31.152344 33.582031 31.199219 33.34375 31.292969 C 33.105469 31.386719 32.984375 31.523438 32.984375 31.703125 C 32.984375 31.890625 33.105469 32.03125 33.34375 32.128906 "/>
<path style=" stroke:none;fill-rule:nonzero;fill:rgb(100%,100%,100%);fill-opacity:1;" d="M 36.960938 30.402344 L 36.960938 30.046875 L 38.734375 30.046875 L 38.734375 29.105469 L 39.203125 29.105469 L 39.203125 30.046875 L 41.5625 30.046875 L 41.5625 30.402344 Z M 37.921875 32.347656 C 37.609375 32.175781 37.453125 31.960938 37.453125 31.707031 C 37.453125 31.453125 37.609375 31.238281 37.921875 31.070312 C 38.234375 30.898438 38.679688 30.8125 39.257812 30.8125 C 39.839844 30.8125 40.285156 30.898438 40.597656 31.070312 C 40.90625 31.238281 41.0625 31.453125 41.0625 31.707031 C 41.0625 31.960938 40.90625 32.175781 40.597656 32.347656 C 40.285156 32.519531 39.839844 32.605469 39.257812 32.605469 C 38.679688 32.605469 38.234375 32.519531 37.921875 32.347656 M 41.042969 28.179688 C 41.039062 28.464844 41.015625 28.742188 40.976562 29.007812 C 40.933594 29.277344 40.886719 29.515625 40.835938 29.726562 L 40.394531 29.726562 C 40.433594 29.566406 40.472656 29.375 40.503906 29.152344 C 40.539062 28.929688 40.558594 28.722656 40.5625 28.535156 L 37.496094 28.535156 L 37.496094 28.179688 Z M 38.316406 32.128906 C 38.554688 32.222656 38.867188 32.269531 39.257812 32.269531 C 39.644531 32.269531 39.957031 32.222656 40.199219 32.128906 C 40.441406 32.03125 40.5625 31.890625 40.5625 31.703125 C 40.5625 31.523438 40.441406 31.386719 40.199219 31.292969 C 39.957031 31.199219 39.644531 31.152344 39.257812 31.152344 C 38.867188 31.152344 38.554688 31.199219 38.316406 31.292969 C 38.074219 31.386719 37.953125 31.523438 37.953125 31.703125 C 37.953125 31.890625 38.074219 32.03125 38.316406 32.128906 "/>
<path style=" stroke:none;fill-rule:nonzero;fill:rgb(100%,100%,100%);fill-opacity:1;" d="M 43.933594 29.753906 C 43.988281 29.953125 44.070312 30.136719 44.179688 30.308594 C 44.292969 30.492188 44.4375 30.660156 44.613281 30.8125 C 44.789062 30.964844 44.996094 31.105469 45.230469 31.230469 C 45.171875 31.273438 45.109375 31.320312 45.046875 31.375 C 44.984375 31.433594 44.929688 31.484375 44.886719 31.527344 C 44.757812 31.453125 44.636719 31.371094 44.515625 31.277344 C 44.394531 31.179688 44.285156 31.082031 44.179688 30.976562 C 44.054688 30.851562 43.945312 30.71875 43.847656 30.582031 C 43.75 30.445312 43.671875 30.300781 43.609375 30.152344 C 43.566406 30.289062 43.5 30.429688 43.410156 30.570312 C 43.328125 30.707031 43.226562 30.84375 43.113281 30.976562 C 42.996094 31.109375 42.875 31.234375 42.738281 31.351562 C 42.605469 31.46875 42.472656 31.570312 42.34375 31.648438 C 42.296875 31.605469 42.234375 31.558594 42.15625 31.507812 C 42.078125 31.453125 42.003906 31.40625 41.929688 31.363281 C 42.160156 31.234375 42.363281 31.089844 42.546875 30.929688 C 42.726562 30.765625 42.878906 30.589844 42.996094 30.394531 C 43.117188 30.199219 43.210938 29.992188 43.273438 29.765625 C 43.339844 29.542969 43.371094 29.304688 43.371094 29.050781 L 43.371094 28.6875 L 42.300781 28.6875 L 42.300781 28.332031 L 44.945312 28.332031 L 44.945312 28.6875 L 43.851562 28.6875 L 43.851562 29.113281 C 43.851562 29.339844 43.878906 29.554688 43.933594 29.753906 M 45.75 32.515625 L 45.75 29.851562 L 44.691406 29.851562 L 44.691406 29.476562 L 45.75 29.476562 L 45.75 28.050781 L 46.21875 28.050781 L 46.21875 32.515625 Z M 45.75 32.515625 "/>
<path style=" stroke:none;fill-rule:nonzero;fill:rgb(100%,100%,100%);fill-opacity:1;" d="M 48.847656 29.21875 C 48.914062 29.359375 49.007812 29.488281 49.117188 29.605469 C 49.238281 29.730469 49.378906 29.835938 49.542969 29.929688 C 49.707031 30.019531 49.875 30.089844 50.046875 30.144531 C 49.992188 30.191406 49.9375 30.242188 49.882812 30.296875 C 49.828125 30.355469 49.78125 30.40625 49.742188 30.449219 C 49.632812 30.40625 49.515625 30.351562 49.386719 30.285156 C 49.261719 30.21875 49.136719 30.136719 49.019531 30.046875 C 48.917969 29.972656 48.824219 29.886719 48.734375 29.796875 C 48.644531 29.707031 48.570312 29.609375 48.507812 29.503906 C 48.464844 29.609375 48.40625 29.710938 48.328125 29.808594 C 48.253906 29.910156 48.167969 30.003906 48.070312 30.089844 C 47.957031 30.1875 47.832031 30.28125 47.691406 30.367188 C 47.554688 30.449219 47.414062 30.523438 47.273438 30.585938 C 47.234375 30.546875 47.179688 30.503906 47.105469 30.449219 C 47.035156 30.398438 46.964844 30.347656 46.90625 30.304688 C 47.109375 30.226562 47.304688 30.128906 47.484375 30.015625 C 47.664062 29.902344 47.816406 29.769531 47.941406 29.617188 C 48.042969 29.496094 48.121094 29.363281 48.175781 29.214844 C 48.234375 29.066406 48.261719 28.902344 48.261719 28.726562 L 48.261719 28.613281 L 47.273438 28.613281 L 47.273438 28.257812 L 49.730469 28.257812 L 49.730469 28.613281 L 48.75 28.613281 L 48.75 28.742188 C 48.75 28.917969 48.78125 29.074219 48.847656 29.21875 M 50.527344 32.546875 L 50.527344 31.3125 L 47.710938 31.3125 L 47.710938 30.949219 L 50.984375 30.949219 L 50.984375 32.546875 Z M 50.984375 29.476562 L 50.984375 30.738281 L 50.527344 30.738281 L 50.527344 28.050781 L 50.984375 28.050781 L 50.984375 29.105469 L 51.679688 29.105469 L 51.679688 29.476562 Z M 50.984375 29.476562 "/>
<path style=" stroke:none;fill-rule:nonzero;fill:rgb(100%,100%,100%);fill-opacity:1;" d="M 54.398438 30.222656 L 54.398438 30.675781 L 55.855469 30.675781 L 55.855469 31.722656 L 52.988281 31.722656 L 52.988281 32.148438 L 55.964844 32.148438 L 55.964844 32.476562 L 52.480469 32.476562 L 52.480469 31.40625 L 55.351562 31.40625 L 55.351562 31.003906 L 52.480469 31.003906 L 52.480469 30.675781 L 53.921875 30.675781 L 53.921875 30.222656 L 51.867188 30.222656 L 51.867188 29.886719 L 56.46875 29.886719 L 56.46875 30.222656 Z M 52.46875 28.175781 L 55.859375 28.175781 L 55.859375 29.511719 L 52.46875 29.511719 Z M 55.410156 28.507812 L 52.917969 28.507812 L 52.917969 29.179688 L 55.410156 29.179688 Z M 55.410156 28.507812 "/>
<path style=" stroke:none;fill-rule:nonzero;fill:rgb(100%,100%,100%);fill-opacity:1;" d="M 60.390625 29.753906 C 60.449219 29.953125 60.53125 30.136719 60.636719 30.308594 C 60.753906 30.492188 60.898438 30.660156 61.074219 30.8125 C 61.25 30.964844 61.457031 31.105469 61.695312 31.230469 C 61.636719 31.273438 61.578125 31.320312 61.511719 31.378906 C 61.445312 31.433594 61.390625 31.484375 61.347656 31.527344 C 61.222656 31.453125 61.097656 31.371094 60.976562 31.277344 C 60.855469 31.183594 60.742188 31.085938 60.636719 30.976562 C 60.515625 30.851562 60.40625 30.722656 60.308594 30.582031 C 60.207031 30.445312 60.128906 30.300781 60.066406 30.152344 C 60.027344 30.289062 59.960938 30.429688 59.875 30.570312 C 59.785156 30.710938 59.683594 30.847656 59.570312 30.976562 C 59.457031 31.109375 59.332031 31.234375 59.199219 31.351562 C 59.066406 31.46875 58.9375 31.566406 58.808594 31.648438 C 58.757812 31.605469 58.691406 31.558594 58.617188 31.503906 C 58.542969 31.453125 58.464844 31.40625 58.390625 31.363281 C 58.621094 31.234375 58.824219 31.089844 59.003906 30.929688 C 59.179688 30.769531 59.328125 30.59375 59.457031 30.398438 C 59.574219 30.207031 59.667969 29.996094 59.734375 29.769531 C 59.796875 29.542969 59.828125 29.304688 59.828125 29.046875 L 59.828125 28.6875 L 58.765625 28.6875 L 58.765625 28.332031 L 61.410156 28.332031 L 61.410156 28.6875 L 60.3125 28.6875 L 60.3125 29.113281 C 60.3125 29.34375 60.335938 29.554688 60.390625 29.753906 M 62.484375 28.050781 L 62.484375 29.78125 L 63.226562 29.78125 L 63.226562 30.160156 L 62.484375 30.160156 L 62.484375 32.519531 L 62.023438 32.519531 L 62.023438 28.050781 Z M 62.484375 28.050781 "/>
<path style=" stroke:none;fill-rule:nonzero;fill:rgb(100%,100%,100%);fill-opacity:1;" d="M 66.855469 30.949219 L 66.855469 32.515625 L 66.382812 32.515625 L 66.382812 30.949219 L 65.164062 30.949219 L 65.164062 32.480469 L 64.695312 32.480469 L 64.695312 30.957031 L 63.464844 30.957031 L 63.464844 30.589844 L 68.0625 30.589844 L 68.0625 30.949219 Z M 64.453125 29.855469 C 64.136719 29.65625 63.976562 29.414062 63.976562 29.125 C 63.976562 28.832031 64.132812 28.589844 64.453125 28.386719 C 64.769531 28.191406 65.203125 28.089844 65.757812 28.089844 C 66.320312 28.089844 66.757812 28.191406 67.074219 28.386719 C 67.390625 28.585938 67.546875 28.828125 67.546875 29.125 C 67.546875 29.414062 67.390625 29.65625 67.074219 29.851562 C 66.757812 30.046875 66.320312 30.148438 65.757812 30.148438 C 65.207031 30.148438 64.773438 30.050781 64.453125 29.855469 M 64.835938 29.605469 C 65.082031 29.722656 65.390625 29.78125 65.757812 29.78125 C 66.128906 29.78125 66.433594 29.726562 66.679688 29.609375 C 66.925781 29.492188 67.046875 29.335938 67.046875 29.136719 C 67.046875 28.921875 66.925781 28.757812 66.679688 28.636719 C 66.441406 28.519531 66.132812 28.457031 65.757812 28.457031 C 65.386719 28.457031 65.078125 28.515625 64.832031 28.636719 C 64.585938 28.753906 64.460938 28.917969 64.460938 29.125 C 64.460938 29.324219 64.585938 29.484375 64.835938 29.605469 "/>
<path style=" stroke:none;fill-rule:nonzero;fill:rgb(100%,100%,100%);fill-opacity:1;" d="M 69.09375 28.585938 C 69.351562 28.316406 69.632812 28.179688 69.933594 28.179688 C 70.246094 28.179688 70.523438 28.316406 70.777344 28.589844 C 71.03125 28.859375 71.160156 29.289062 71.160156 29.878906 C 71.160156 30.457031 71.035156 30.882812 70.785156 31.164062 C 70.53125 31.441406 70.25 31.578125 69.933594 31.578125 C 69.621094 31.578125 69.335938 31.441406 69.082031 31.164062 C 68.828125 30.886719 68.703125 30.457031 68.703125 29.878906 C 68.703125 29.285156 68.832031 28.855469 69.09375 28.585938 M 69.359375 30.800781 C 69.496094 31.070312 69.6875 31.207031 69.941406 31.207031 C 70.1875 31.207031 70.378906 31.070312 70.507812 30.800781 C 70.636719 30.535156 70.699219 30.226562 70.699219 29.871094 C 70.699219 29.53125 70.636719 29.226562 70.507812 28.957031 C 70.378906 28.6875 70.191406 28.550781 69.941406 28.550781 C 69.6875 28.550781 69.496094 28.6875 69.359375 28.957031 C 69.222656 29.230469 69.15625 29.535156 69.15625 29.871094 C 69.15625 30.226562 69.222656 30.535156 69.359375 30.800781 M 72.148438 28.050781 L 72.609375 28.050781 L 72.609375 32.519531 L 72.148438 32.519531 Z M 72.148438 28.050781 "/>
<path style=" stroke:none;fill-rule:nonzero;fill:rgb(100%,100%,100%);fill-opacity:1;" d="M 73.402344 30.601562 L 73.402344 30.242188 L 74.65625 30.242188 L 74.65625 29.582031 C 74.417969 29.503906 74.242188 29.402344 74.117188 29.277344 C 73.996094 29.152344 73.9375 29.015625 73.9375 28.867188 C 73.9375 28.628906 74.089844 28.429688 74.398438 28.265625 C 74.703125 28.101562 75.136719 28.019531 75.691406 28.019531 C 76.257812 28.019531 76.699219 28.105469 77.007812 28.273438 C 77.316406 28.4375 77.46875 28.640625 77.46875 28.878906 C 77.46875 29.023438 77.410156 29.15625 77.292969 29.28125 C 77.171875 29.40625 76.996094 29.503906 76.757812 29.582031 L 76.757812 30.242188 L 78 30.242188 L 78 30.601562 Z M 74.363281 31.167969 C 74.675781 31.011719 75.121094 30.9375 75.699219 30.9375 C 76.28125 30.9375 76.726562 31.015625 77.035156 31.175781 C 77.34375 31.332031 77.5 31.535156 77.5 31.773438 C 77.5 32.007812 77.34375 32.207031 77.039062 32.367188 C 76.730469 32.527344 76.285156 32.605469 75.699219 32.605469 C 75.121094 32.605469 74.675781 32.527344 74.363281 32.367188 C 74.054688 32.207031 73.898438 32.007812 73.898438 31.769531 C 73.898438 31.523438 74.054688 31.324219 74.363281 31.167969 M 74.761719 32.144531 C 74.996094 32.234375 75.308594 32.28125 75.699219 32.28125 C 76.082031 32.28125 76.390625 32.234375 76.625 32.144531 C 76.863281 32.054688 76.980469 31.933594 76.980469 31.773438 C 76.980469 31.609375 76.863281 31.476562 76.625 31.386719 C 76.390625 31.296875 76.082031 31.253906 75.699219 31.253906 C 75.308594 31.253906 74.996094 31.296875 74.761719 31.386719 C 74.527344 31.476562 74.410156 31.605469 74.410156 31.769531 C 74.410156 31.929688 74.527344 32.054688 74.761719 32.144531 M 74.777344 29.242188 C 75.007812 29.34375 75.3125 29.390625 75.691406 29.390625 C 76.070312 29.390625 76.375 29.34375 76.609375 29.246094 C 76.847656 29.152344 76.96875 29.027344 76.96875 28.875 C 76.96875 28.714844 76.847656 28.589844 76.609375 28.488281 C 76.375 28.390625 76.070312 28.339844 75.691406 28.339844 C 75.316406 28.339844 75.011719 28.386719 74.78125 28.484375 C 74.550781 28.582031 74.433594 28.707031 74.433594 28.863281 C 74.433594 29.015625 74.550781 29.144531 74.777344 29.242188 M 76.304688 29.671875 C 76.21875 29.6875 76.121094 29.699219 76.015625 29.710938 C 75.910156 29.71875 75.804688 29.71875 75.691406 29.71875 C 75.589844 29.71875 75.488281 29.714844 75.386719 29.710938 C 75.285156 29.699219 75.195312 29.691406 75.113281 29.675781 L 75.113281 30.242188 L 76.304688 30.242188 Z M 76.304688 29.671875 "/>
<path style=" stroke:none;fill-rule:nonzero;fill:rgb(100%,100%,100%);fill-opacity:1;" d="M 78.625 28.878906 L 81.488281 28.878906 L 81.488281 29.242188 L 78.625 29.242188 Z M 79.160156 29.890625 C 79.390625 29.675781 79.695312 29.570312 80.070312 29.570312 C 80.433594 29.570312 80.730469 29.675781 80.964844 29.890625 C 81.195312 30.101562 81.3125 30.351562 81.3125 30.640625 C 81.3125 30.921875 81.195312 31.171875 80.964844 31.394531 C 80.730469 31.613281 80.433594 31.722656 80.070312 31.722656 C 79.703125 31.722656 79.402344 31.613281 79.167969 31.398438 C 78.929688 31.179688 78.8125 30.925781 78.8125 30.640625 C 78.8125 30.351562 78.929688 30.101562 79.160156 29.890625 M 79.496094 31.15625 C 79.632812 31.292969 79.824219 31.363281 80.070312 31.363281 C 80.308594 31.363281 80.496094 31.292969 80.632812 31.152344 C 80.769531 31.011719 80.839844 30.839844 80.839844 30.640625 C 80.839844 30.441406 80.769531 30.273438 80.632812 30.136719 C 80.496094 29.996094 80.308594 29.929688 80.070312 29.929688 C 79.824219 29.929688 79.632812 29.996094 79.496094 30.136719 C 79.359375 30.273438 79.292969 30.441406 79.292969 30.640625 C 79.292969 30.84375 79.359375 31.015625 79.496094 31.15625 M 79.316406 28.152344 L 80.804688 28.152344 L 80.804688 28.503906 L 79.316406 28.503906 Z M 82.234375 32.515625 L 82.234375 30.296875 L 81.414062 30.296875 L 81.414062 29.921875 L 82.234375 29.921875 L 82.234375 28.050781 L 82.699219 28.050781 L 82.699219 32.519531 L 82.234375 32.519531 Z M 82.234375 32.515625 "/>
<path style=" stroke:none;fill-rule:nonzero;fill:rgb(100%,100%,100%);fill-opacity:1;" d="M 86.675781 30.410156 C 86.496094 30.4375 86.230469 30.472656 85.871094 30.503906 C 85.511719 30.539062 85.1875 30.558594 84.898438 30.566406 C 84.707031 30.570312 84.453125 30.570312 84.144531 30.574219 C 83.832031 30.578125 83.671875 30.578125 83.65625 30.578125 L 83.65625 29.199219 L 85.476562 29.199219 L 85.476562 28.566406 L 83.65625 28.566406 L 83.65625 28.214844 L 85.929688 28.214844 L 85.929688 29.542969 L 84.101562 29.542969 L 84.101562 30.21875 L 84.953125 30.210938 C 85.179688 30.207031 85.476562 30.1875 85.839844 30.15625 C 86.203125 30.125 86.484375 30.09375 86.675781 30.058594 Z M 86.882812 32.546875 L 86.882812 31.394531 L 84.074219 31.394531 L 84.074219 31.03125 L 87.359375 31.03125 L 87.359375 32.546875 Z M 87.359375 29.480469 L 87.359375 30.820312 L 86.894531 30.820312 L 86.894531 28.050781 L 87.359375 28.050781 L 87.359375 29.113281 L 88.039062 29.113281 L 88.039062 29.480469 Z M 87.359375 29.480469 "/>
</g>
</svg>
