<?xml version="1.0" encoding="UTF-8"?>
<svg xmlns="http://www.w3.org/2000/svg" xmlns:xlink="http://www.w3.org/1999/xlink" width="119px" height="35px" viewBox="0 0 119 35" version="1.1">
<g id="surface1">
<path style=" stroke:none;fill-rule:nonzero;fill:rgb(0%,0%,0%);fill-opacity:1;" d="M 115.453125 0.277344 L 3.328125 0.277344 C 1.558594 0.277344 0.128906 1.667969 0.125 3.378906 L 0.125 34.769531 L 118.65625 34.769531 L 118.65625 26.988281 C 118.65625 26.976562 118.65625 26.964844 118.65625 26.949219 L 118.65625 3.378906 C 118.65625 1.667969 117.222656 0.277344 115.453125 0.277344 M 1.46875 3.378906 C 1.46875 2.382812 2.300781 1.578125 3.328125 1.578125 L 60.03125 1.578125 L 60.03125 26.300781 L 1.46875 26.300781 Z M 117.316406 26.300781 L 61.375 26.300781 L 61.375 1.578125 L 115.453125 1.578125 C 116.480469 1.578125 117.3125 2.382812 117.316406 3.378906 Z M 117.316406 26.300781 "/>
<path style=" stroke:none;fill-rule:nonzero;fill:rgb(0%,0%,0%);fill-opacity:1;" d="M 72.546875 20.1875 L 72.546875 20.433594 L 73.484375 20.433594 L 73.484375 21.179688 L 71.617188 21.179688 L 71.617188 21.394531 L 73.570312 21.394531 L 73.570312 21.671875 L 71.179688 21.671875 L 71.179688 20.917969 L 73.054688 20.917969 L 73.054688 20.710938 L 71.179688 20.710938 L 71.179688 20.433594 L 72.109375 20.433594 L 72.109375 20.1875 L 70.792969 20.1875 L 70.792969 19.898438 L 73.882812 19.898438 L 73.882812 20.1875 Z M 72.828125 19.28125 C 72.902344 19.316406 72.984375 19.34375 73.074219 19.371094 C 73.171875 19.398438 73.28125 19.417969 73.390625 19.433594 C 73.503906 19.449219 73.613281 19.460938 73.71875 19.46875 C 73.683594 19.507812 73.644531 19.554688 73.601562 19.609375 C 73.554688 19.667969 73.519531 19.71875 73.488281 19.761719 C 73.398438 19.75 73.300781 19.730469 73.195312 19.710938 C 73.089844 19.691406 72.988281 19.664062 72.886719 19.636719 C 72.769531 19.597656 72.664062 19.554688 72.566406 19.503906 C 72.46875 19.457031 72.390625 19.398438 72.335938 19.335938 C 72.28125 19.390625 72.214844 19.441406 72.128906 19.488281 C 72.042969 19.53125 71.953125 19.574219 71.851562 19.605469 C 71.746094 19.640625 71.636719 19.671875 71.523438 19.699219 C 71.410156 19.722656 71.292969 19.742188 71.175781 19.761719 C 71.144531 19.710938 71.105469 19.664062 71.066406 19.617188 C 71.027344 19.570312 70.984375 19.519531 70.945312 19.46875 C 71.058594 19.460938 71.171875 19.449219 71.285156 19.429688 C 71.394531 19.414062 71.5 19.394531 71.59375 19.371094 C 71.691406 19.34375 71.777344 19.3125 71.847656 19.277344 C 71.921875 19.242188 71.976562 19.199219 72.015625 19.152344 L 71.117188 19.152344 L 71.117188 18.882812 L 73.542969 18.882812 L 73.542969 19.152344 L 72.648438 19.152344 C 72.695312 19.203125 72.753906 19.246094 72.828125 19.28125 M 71.679688 18.445312 L 72.980469 18.445312 L 72.980469 18.710938 L 71.679688 18.710938 Z M 71.679688 18.445312 "/>
<path style=" stroke:none;fill-rule:nonzero;fill:rgb(0%,0%,0%);fill-opacity:1;" d="M 75.542969 19.972656 C 75.582031 20.085938 75.640625 20.191406 75.707031 20.289062 C 75.785156 20.398438 75.871094 20.488281 75.972656 20.574219 C 76.070312 20.65625 76.179688 20.722656 76.285156 20.773438 C 76.230469 20.820312 76.179688 20.863281 76.132812 20.914062 C 76.085938 20.960938 76.042969 21.003906 76.003906 21.042969 C 75.933594 21 75.863281 20.949219 75.792969 20.894531 C 75.726562 20.839844 75.65625 20.777344 75.585938 20.710938 C 75.527344 20.648438 75.46875 20.582031 75.414062 20.507812 C 75.359375 20.433594 75.3125 20.351562 75.265625 20.265625 C 75.226562 20.351562 75.179688 20.4375 75.125 20.515625 C 75.070312 20.597656 75.007812 20.671875 74.941406 20.746094 C 74.878906 20.8125 74.8125 20.878906 74.734375 20.9375 C 74.660156 21 74.578125 21.058594 74.496094 21.117188 C 74.457031 21.082031 74.40625 21.039062 74.34375 20.992188 C 74.285156 20.945312 74.226562 20.898438 74.164062 20.851562 C 74.289062 20.785156 74.402344 20.710938 74.511719 20.625 C 74.621094 20.539062 74.710938 20.445312 74.792969 20.34375 C 74.871094 20.238281 74.933594 20.121094 74.976562 20 C 75.023438 19.878906 75.042969 19.746094 75.042969 19.605469 L 75.042969 19.472656 L 74.355469 19.472656 L 74.355469 19.136719 L 76.167969 19.136719 L 76.167969 19.472656 L 75.480469 19.472656 L 75.480469 19.605469 C 75.480469 19.734375 75.503906 19.855469 75.542969 19.972656 M 74.746094 18.542969 L 75.769531 18.542969 L 75.769531 18.867188 L 74.746094 18.867188 Z M 76.636719 21.695312 L 76.636719 20.109375 L 76.011719 20.109375 L 76.011719 19.773438 L 76.636719 19.773438 L 76.636719 18.492188 L 77.039062 18.492188 L 77.039062 21.695312 Z M 76.636719 21.695312 "/>
<path style=" stroke:none;fill-rule:nonzero;fill:rgb(0%,0%,0%);fill-opacity:1;" d="M 77.460938 21.339844 L 77.460938 21 L 78.191406 21 L 78.191406 20.351562 L 78.589844 20.351562 L 78.589844 21 L 79.441406 21 L 79.441406 20.351562 L 79.832031 20.351562 L 79.832031 21 L 80.5625 21 L 80.5625 21.339844 Z M 77.71875 20.210938 L 77.71875 19.878906 L 78.164062 19.878906 L 78.15625 18.96875 L 77.792969 18.96875 L 77.792969 18.632812 L 80.222656 18.632812 L 80.222656 18.96875 L 79.855469 18.96875 L 79.839844 19.878906 L 80.296875 19.878906 L 80.296875 20.210938 Z M 78.570312 19.878906 L 79.449219 19.878906 L 79.460938 18.96875 L 78.554688 18.96875 Z M 78.570312 19.878906 "/>
<path style=" stroke:none;fill-rule:nonzero;fill:rgb(0%,0%,0%);fill-opacity:1;" d="M 82.101562 19.765625 C 82.140625 19.898438 82.191406 20.019531 82.253906 20.132812 C 82.335938 20.265625 82.429688 20.382812 82.542969 20.488281 C 82.65625 20.589844 82.78125 20.683594 82.921875 20.769531 C 82.867188 20.8125 82.808594 20.859375 82.757812 20.90625 C 82.703125 20.953125 82.65625 20.996094 82.621094 21.03125 C 82.558594 20.988281 82.488281 20.9375 82.417969 20.878906 C 82.34375 20.816406 82.273438 20.75 82.203125 20.675781 C 82.125 20.597656 82.058594 20.515625 82 20.429688 C 81.9375 20.34375 81.886719 20.253906 81.84375 20.167969 C 81.820312 20.246094 81.777344 20.332031 81.71875 20.421875 C 81.664062 20.511719 81.597656 20.597656 81.523438 20.683594 C 81.449219 20.769531 81.371094 20.847656 81.289062 20.921875 C 81.207031 20.996094 81.128906 21.054688 81.058594 21.101562 C 81.019531 21.066406 80.96875 21.023438 80.90625 20.976562 C 80.84375 20.929688 80.78125 20.886719 80.722656 20.847656 C 80.871094 20.757812 81.003906 20.660156 81.121094 20.546875 C 81.238281 20.4375 81.332031 20.3125 81.410156 20.179688 C 81.480469 20.054688 81.539062 19.917969 81.574219 19.769531 C 81.613281 19.625 81.628906 19.46875 81.628906 19.304688 L 81.628906 18.617188 L 82.046875 18.617188 L 82.046875 19.324219 C 82.046875 19.488281 82.066406 19.632812 82.101562 19.765625 M 83.253906 18.492188 L 83.652344 18.492188 L 83.652344 21.691406 L 83.253906 21.691406 Z M 83.253906 18.492188 "/>
<path style=" stroke:none;fill-rule:nonzero;fill:rgb(0%,0%,0%);fill-opacity:1;" d="M 85.699219 4.699219 L 69.242188 4.699219 C 68.371094 4.699219 67.664062 5.382812 67.664062 6.226562 L 67.664062 21.75 C 67.664062 22.59375 68.371094 23.277344 69.242188 23.277344 L 85.699219 23.277344 C 86.570312 23.277344 87.277344 22.59375 87.277344 21.75 L 87.277344 6.226562 C 87.277344 5.382812 86.570312 4.699219 85.699219 4.699219 M 85.699219 22.652344 L 69.242188 22.652344 C 68.730469 22.652344 68.3125 22.25 68.3125 21.75 L 68.3125 17.628906 L 86.628906 17.628906 L 86.628906 21.75 C 86.628906 22.25 86.214844 22.652344 85.699219 22.652344 "/>
<path style=" stroke:none;fill-rule:nonzero;fill:rgb(100%,100%,100%);fill-opacity:1;" d="M 81.25 14.105469 C 80.9375 11.90625 79.945312 10.757812 79.027344 10.210938 C 79.464844 9.796875 79.738281 9.222656 79.738281 8.582031 C 79.738281 7.332031 78.695312 6.316406 77.402344 6.316406 C 76.109375 6.316406 75.0625 7.332031 75.0625 8.582031 C 75.0625 9.222656 75.339844 9.796875 75.777344 10.210938 C 74.859375 10.757812 73.867188 11.90625 73.554688 14.109375 C 73.507812 14.425781 73.484375 14.71875 73.484375 14.992188 C 73.484375 15.257812 73.503906 15.507812 73.550781 15.738281 C 73.613281 16.039062 73.882812 16.253906 74.199219 16.253906 L 80.609375 16.253906 C 80.925781 16.253906 81.195312 16.035156 81.253906 15.734375 C 81.296875 15.507812 81.320312 15.261719 81.320312 14.992188 C 81.320312 14.71875 81.296875 14.425781 81.25 14.105469 "/>
<path style=" stroke:none;fill-rule:nonzero;fill:rgb(0%,0%,0%);fill-opacity:1;" d="M 96.660156 20.835938 L 96.660156 19.960938 L 96.035156 19.960938 L 96.035156 20.265625 L 94.460938 20.265625 L 94.460938 18.585938 L 94.859375 18.585938 L 94.859375 19.089844 L 95.640625 19.089844 L 95.640625 18.585938 L 96.035156 18.585938 L 96.035156 18.949219 L 96.660156 18.949219 L 96.660156 18.492188 L 97.0625 18.492188 L 97.0625 20.835938 Z M 94.808594 21.632812 L 94.808594 20.566406 L 95.214844 20.566406 L 95.214844 21.296875 L 97.128906 21.296875 L 97.128906 21.632812 Z M 95.640625 19.429688 L 94.859375 19.429688 L 94.859375 19.929688 L 95.640625 19.929688 Z M 96.660156 19.273438 L 96.035156 19.273438 L 96.035156 19.640625 L 96.660156 19.640625 Z M 96.660156 19.273438 "/>
<path style=" stroke:none;fill-rule:nonzero;fill:rgb(0%,0%,0%);fill-opacity:1;" d="M 99.386719 18.621094 C 99.382812 18.832031 99.34375 19.03125 99.265625 19.207031 C 99.191406 19.386719 99.09375 19.550781 98.96875 19.691406 C 98.835938 19.847656 98.675781 19.980469 98.488281 20.09375 C 98.304688 20.203125 98.101562 20.289062 97.890625 20.351562 C 97.871094 20.328125 97.835938 20.285156 97.785156 20.226562 C 97.734375 20.171875 97.683594 20.121094 97.632812 20.078125 C 97.792969 20.035156 97.953125 19.980469 98.113281 19.902344 C 98.273438 19.828125 98.417969 19.734375 98.546875 19.625 C 98.644531 19.535156 98.730469 19.4375 98.796875 19.324219 C 98.867188 19.214844 98.910156 19.089844 98.929688 18.957031 L 97.832031 18.957031 L 97.832031 18.621094 Z M 98.425781 21.578125 C 98.199219 21.460938 98.089844 21.296875 98.089844 21.078125 C 98.089844 20.867188 98.203125 20.699219 98.429688 20.582031 C 98.660156 20.464844 98.941406 20.40625 99.273438 20.40625 C 99.617188 20.40625 99.898438 20.464844 100.128906 20.582031 C 100.359375 20.695312 100.472656 20.863281 100.472656 21.078125 C 100.472656 21.296875 100.355469 21.460938 100.128906 21.578125 C 99.898438 21.695312 99.617188 21.753906 99.273438 21.753906 C 98.929688 21.753906 98.648438 21.695312 98.425781 21.578125 M 98.734375 21.34375 C 98.875 21.410156 99.054688 21.445312 99.277344 21.445312 C 99.503906 21.445312 99.691406 21.410156 99.832031 21.347656 C 99.976562 21.28125 100.046875 21.195312 100.046875 21.085938 C 100.046875 20.972656 99.976562 20.882812 99.832031 20.816406 C 99.691406 20.75 99.503906 20.71875 99.277344 20.71875 C 99.054688 20.71875 98.875 20.75 98.734375 20.8125 C 98.59375 20.878906 98.523438 20.964844 98.523438 21.078125 C 98.523438 21.1875 98.59375 21.277344 98.734375 21.34375 M 100.03125 20.394531 L 100.03125 19.949219 L 99.410156 19.949219 L 99.410156 19.621094 L 100.03125 19.621094 L 100.03125 19.234375 L 99.480469 19.234375 L 99.480469 18.910156 L 100.03125 18.910156 L 100.03125 18.488281 L 100.429688 18.488281 L 100.429688 20.390625 L 100.03125 20.390625 Z M 100.03125 20.394531 "/>
<path style=" stroke:none;fill-rule:nonzero;fill:rgb(0%,0%,0%);fill-opacity:1;" d="M 100.898438 20.0625 L 100.898438 19.734375 L 103.117188 19.734375 C 103.144531 19.632812 103.171875 19.503906 103.195312 19.34375 C 103.222656 19.1875 103.242188 19.039062 103.253906 18.910156 L 101.234375 18.910156 L 101.234375 18.574219 L 103.671875 18.574219 C 103.667969 18.757812 103.648438 18.957031 103.613281 19.171875 C 103.582031 19.390625 103.546875 19.578125 103.511719 19.734375 L 103.988281 19.734375 L 103.988281 20.0625 Z M 101.296875 20.414062 L 103.589844 20.414062 L 103.589844 21.65625 L 101.296875 21.65625 Z M 103.191406 20.746094 L 101.695312 20.746094 L 101.695312 21.324219 L 103.191406 21.324219 Z M 103.191406 20.746094 "/>
<path style=" stroke:none;fill-rule:nonzero;fill:rgb(0%,0%,0%);fill-opacity:1;" d="M 105.613281 19.734375 C 105.644531 19.871094 105.695312 20 105.761719 20.121094 C 105.835938 20.25 105.925781 20.367188 106.039062 20.472656 C 106.152344 20.578125 106.285156 20.671875 106.433594 20.753906 C 106.386719 20.796875 106.335938 20.839844 106.28125 20.890625 C 106.226562 20.9375 106.183594 20.984375 106.144531 21.019531 C 106.074219 20.980469 106.003906 20.929688 105.929688 20.871094 C 105.851562 20.808594 105.78125 20.746094 105.710938 20.671875 C 105.636719 20.589844 105.566406 20.507812 105.503906 20.417969 C 105.441406 20.328125 105.390625 20.242188 105.355469 20.15625 C 105.324219 20.246094 105.28125 20.332031 105.222656 20.421875 C 105.167969 20.507812 105.105469 20.59375 105.035156 20.675781 C 104.960938 20.765625 104.882812 20.84375 104.796875 20.917969 C 104.71875 20.988281 104.636719 21.050781 104.558594 21.097656 C 104.515625 21.058594 104.464844 21.019531 104.410156 20.976562 C 104.351562 20.929688 104.289062 20.886719 104.222656 20.839844 C 104.371094 20.753906 104.503906 20.65625 104.621094 20.546875 C 104.738281 20.4375 104.835938 20.316406 104.917969 20.179688 C 104.988281 20.050781 105.046875 19.914062 105.085938 19.765625 C 105.125 19.617188 105.140625 19.457031 105.140625 19.28125 L 105.140625 19.019531 L 104.460938 19.019531 L 104.460938 18.6875 L 106.257812 18.6875 L 106.257812 19.019531 L 105.570312 19.019531 L 105.570312 19.300781 C 105.566406 19.453125 105.582031 19.597656 105.613281 19.734375 M 106.730469 18.492188 L 107.128906 18.492188 L 107.128906 21.695312 L 106.730469 21.695312 Z M 106.730469 18.492188 "/>
<path style=" stroke:none;fill-rule:nonzero;fill:rgb(0%,0%,0%);fill-opacity:1;" d="M 109.132812 4.699219 L 92.675781 4.699219 C 91.804688 4.699219 91.101562 5.382812 91.097656 6.226562 L 91.097656 21.753906 C 91.101562 22.59375 91.804688 23.277344 92.675781 23.28125 L 109.132812 23.28125 C 110.003906 23.28125 110.710938 22.59375 110.710938 21.753906 L 110.710938 6.226562 C 110.710938 5.382812 110.003906 4.699219 109.132812 4.699219 M 109.132812 22.652344 L 92.675781 22.652344 C 92.164062 22.652344 91.746094 22.25 91.746094 21.753906 L 91.746094 17.628906 L 110.0625 17.628906 L 110.0625 21.753906 C 110.0625 22.25 109.648438 22.652344 109.132812 22.652344 "/>
<path style=" stroke:none;fill-rule:nonzero;fill:rgb(100%,100%,100%);fill-opacity:1;" d="M 109.875 16.648438 L 105.078125 13.585938 C 105.136719 13.476562 105.195312 13.363281 105.246094 13.246094 C 105.496094 12.667969 105.640625 12.027344 105.640625 11.363281 L 105.640625 11.355469 C 105.640625 10.871094 105.5625 10.402344 105.425781 9.960938 L 106.292969 9.5 C 106.367188 9.457031 106.410156 9.378906 106.402344 9.292969 C 106.390625 9.210938 106.332031 9.140625 106.25 9.117188 L 103.988281 8.488281 C 103.875 8.457031 103.753906 8.519531 103.722656 8.628906 L 103.074219 10.816406 C 103.046875 10.898438 103.078125 10.984375 103.144531 11.039062 C 103.210938 11.089844 103.308594 11.097656 103.382812 11.054688 L 104.179688 10.628906 C 104.234375 10.863281 104.261719 11.105469 104.261719 11.359375 C 104.261719 11.847656 104.160156 12.308594 103.976562 12.726562 C 103.960938 12.769531 103.9375 12.808594 103.917969 12.847656 L 97.914062 9.015625 C 97.960938 8.964844 98.003906 8.914062 98.054688 8.867188 C 98.382812 8.550781 98.773438 8.289062 99.210938 8.113281 C 99.644531 7.9375 100.121094 7.835938 100.621094 7.835938 C 100.679688 7.835938 100.734375 7.816406 100.773438 7.777344 C 100.816406 7.738281 100.835938 7.683594 100.835938 7.628906 L 100.835938 6.714844 C 100.835938 6.660156 100.816406 6.605469 100.773438 6.566406 C 100.734375 6.527344 100.679688 6.507812 100.621094 6.507812 C 99.933594 6.507812 99.273438 6.640625 98.671875 6.886719 C 98.070312 7.132812 97.53125 7.488281 97.078125 7.925781 C 96.964844 8.039062 96.855469 8.152344 96.753906 8.277344 L 92.429688 5.519531 C 92.296875 5.433594 92.15625 5.40625 92.121094 5.457031 L 91.9375 5.730469 C 91.902344 5.78125 91.980469 5.890625 92.117188 5.980469 L 96.417969 8.722656 C 96.261719 8.957031 96.121094 9.207031 96.003906 9.46875 C 95.75 10.050781 95.609375 10.6875 95.609375 11.359375 C 95.609375 12.027344 95.75 12.664062 96.003906 13.246094 C 96.257812 13.828125 96.625 14.351562 97.078125 14.789062 C 97.53125 15.230469 98.074219 15.582031 98.671875 15.828125 C 99.269531 16.074219 99.925781 16.207031 100.605469 16.210938 L 100.628906 16.210938 C 101.320312 16.210938 101.980469 16.074219 102.578125 15.828125 C 103.179688 15.582031 103.71875 15.230469 104.171875 14.789062 C 104.402344 14.566406 104.609375 14.324219 104.789062 14.0625 L 109.5625 17.105469 C 109.699219 17.191406 109.835938 17.222656 109.871094 17.171875 L 110.058594 16.898438 C 110.089844 16.84375 110.011719 16.734375 109.875 16.648438 M 103.195312 13.847656 C 102.867188 14.164062 102.472656 14.425781 102.039062 14.601562 C 101.605469 14.78125 101.125 14.878906 100.621094 14.878906 C 100.121094 14.878906 99.644531 14.78125 99.207031 14.601562 C 98.773438 14.425781 98.382812 14.164062 98.050781 13.847656 C 97.722656 13.527344 97.457031 13.148438 97.273438 12.726562 C 97.085938 12.308594 96.988281 11.847656 96.988281 11.359375 C 96.988281 10.871094 97.085938 10.410156 97.273438 9.988281 C 97.355469 9.800781 97.453125 9.625 97.566406 9.457031 L 103.640625 13.328125 C 103.507812 13.515625 103.363281 13.691406 103.195312 13.847656 "/>
<path style=" stroke:none;fill-rule:nonzero;fill:rgb(0%,0%,0%);fill-opacity:1;" d="M 31.382812 9.375 C 31.085938 8.859375 30.679688 8.445312 30.171875 8.144531 C 29.675781 7.847656 29.109375 7.640625 28.472656 7.527344 C 27.851562 7.417969 27.203125 7.359375 26.53125 7.359375 L 21.652344 7.359375 C 21.574219 7.359375 21.496094 7.390625 21.441406 7.445312 C 21.386719 7.496094 21.355469 7.570312 21.355469 7.648438 L 21.355469 20.253906 C 21.355469 20.328125 21.386719 20.402344 21.441406 20.453125 C 21.496094 20.507812 21.574219 20.539062 21.652344 20.539062 L 23.375 20.539062 C 23.453125 20.539062 23.527344 20.507812 23.585938 20.453125 C 23.640625 20.402344 23.671875 20.328125 23.671875 20.253906 L 23.671875 15.5 L 26.648438 15.5 C 28.285156 15.5 29.574219 15.164062 30.480469 14.449219 C 31.390625 13.730469 31.839844 12.660156 31.835938 11.328125 C 31.835938 10.558594 31.691406 9.90625 31.382812 9.375 M 26.6875 13.425781 L 23.671875 13.425781 L 23.671875 9.4375 L 26.628906 9.4375 C 27.039062 9.4375 27.425781 9.460938 27.785156 9.515625 C 28.132812 9.566406 28.429688 9.664062 28.679688 9.804688 C 28.917969 9.941406 29.105469 10.125 29.246094 10.371094 C 29.378906 10.601562 29.460938 10.933594 29.460938 11.363281 C 29.460938 11.722656 29.40625 12.027344 29.308594 12.277344 C 29.214844 12.527344 29.066406 12.726562 28.859375 12.894531 C 28.652344 13.0625 28.378906 13.195312 28.019531 13.285156 C 27.664062 13.375 27.21875 13.425781 26.6875 13.425781 "/>
<path style=" stroke:none;fill-rule:nonzero;fill:rgb(0%,0%,0%);fill-opacity:1;" d="M 43.242188 18.546875 C 43.183594 18.496094 43.109375 18.464844 43.03125 18.464844 L 35.328125 18.464844 L 35.328125 14.765625 L 42.230469 14.765625 C 42.308594 14.765625 42.382812 14.734375 42.441406 14.679688 C 42.496094 14.625 42.527344 14.554688 42.527344 14.476562 L 42.527344 12.976562 C 42.527344 12.902344 42.496094 12.828125 42.441406 12.773438 C 42.386719 12.71875 42.308594 12.6875 42.230469 12.6875 L 35.328125 12.6875 L 35.328125 9.4375 L 42.742188 9.4375 C 42.820312 9.4375 42.894531 9.40625 42.949219 9.351562 C 43.007812 9.296875 43.039062 9.226562 43.039062 9.148438 L 43.039062 7.648438 C 43.039062 7.574219 43.003906 7.496094 42.953125 7.445312 C 42.894531 7.390625 42.820312 7.359375 42.742188 7.359375 L 33.304688 7.359375 C 33.226562 7.359375 33.152344 7.390625 33.09375 7.445312 C 33.042969 7.5 33.007812 7.574219 33.007812 7.648438 L 33.007812 20.253906 C 33.007812 20.328125 33.039062 20.402344 33.09375 20.457031 C 33.152344 20.511719 33.226562 20.539062 33.304688 20.539062 L 43.027344 20.539062 C 43.109375 20.539062 43.183594 20.511719 43.238281 20.457031 C 43.296875 20.402344 43.328125 20.328125 43.328125 20.253906 L 43.328125 18.753906 C 43.328125 18.675781 43.296875 18.601562 43.242188 18.546875 "/>
<path style=" stroke:none;fill-rule:nonzero;fill:rgb(0%,0%,0%);fill-opacity:1;" d="M 55.417969 7.445312 C 55.359375 7.390625 55.285156 7.359375 55.207031 7.359375 L 53.550781 7.359375 C 53.472656 7.359375 53.394531 7.390625 53.339844 7.445312 C 53.285156 7.496094 53.253906 7.570312 53.253906 7.648438 L 53.253906 16.648438 L 46.992188 7.488281 C 46.9375 7.410156 46.84375 7.359375 46.742188 7.359375 L 44.960938 7.359375 C 44.882812 7.359375 44.808594 7.390625 44.753906 7.445312 C 44.699219 7.496094 44.664062 7.570312 44.664062 7.648438 L 44.664062 20.253906 C 44.664062 20.328125 44.695312 20.402344 44.753906 20.453125 C 44.808594 20.507812 44.882812 20.539062 44.960938 20.539062 L 46.601562 20.539062 C 46.679688 20.539062 46.753906 20.507812 46.808594 20.453125 C 46.867188 20.402344 46.898438 20.328125 46.898438 20.253906 L 46.898438 11.265625 L 53.1875 20.410156 C 53.242188 20.492188 53.335938 20.539062 53.433594 20.539062 L 55.207031 20.539062 C 55.285156 20.539062 55.359375 20.507812 55.417969 20.453125 C 55.472656 20.402344 55.503906 20.328125 55.503906 20.253906 L 55.503906 7.648438 C 55.503906 7.570312 55.472656 7.496094 55.417969 7.445312 "/>
<path style=" stroke:none;fill-rule:nonzero;fill:rgb(0%,69.411767%,57.647061%);fill-opacity:1;" d="M 12.363281 8.503906 C 15.046875 8.507812 17.265625 10.414062 17.660156 12.910156 C 18.574219 13.035156 19.324219 13.265625 19.921875 13.519531 C 19.917969 13.351562 19.90625 13.269531 19.90625 13.269531 L 19.90625 13.265625 C 19.675781 9.425781 16.386719 6.382812 12.363281 6.378906 C 8.371094 6.382812 5.109375 9.375 4.828125 13.167969 C 4.84375 13.417969 4.972656 13.894531 5.707031 14.242188 L 5.664062 14.230469 C 6.40625 14.617188 7.566406 15.070312 8.929688 15.074219 C 9.949219 15.074219 11.300781 14.8125 12.421875 14.082031 C 13.207031 13.570312 14.105469 13.085938 15.078125 13.082031 C 15.378906 13.082031 15.679688 13.117188 15.972656 13.175781 C 16.054688 13.191406 16.136719 13.207031 16.21875 13.230469 C 16.21875 13.230469 16.492188 13.378906 16.546875 13.203125 C 16.578125 13.105469 16.546875 13.023438 16.515625 12.96875 C 16.417969 12.8125 16.175781 12.660156 16.023438 12.566406 C 15.808594 12.433594 15.570312 12.335938 15.320312 12.273438 C 14.753906 12.128906 14.144531 12.171875 13.574219 12.28125 C 13 12.394531 12.433594 12.582031 11.90625 12.824219 C 10.992188 13.246094 10.03125 13.402344 9.445312 13.402344 C 8.492188 13.398438 7.917969 13 7.550781 12.59375 C 7.421875 12.441406 7.324219 12.296875 7.246094 12.164062 C 7.921875 10.050781 9.953125 8.507812 12.363281 8.503906 "/>
<path style=" stroke:none;fill-rule:nonzero;fill:rgb(0%,0%,0%);fill-opacity:1;" d="M 17.765625 13.757812 C 17.757812 13.910156 17.75 14.035156 17.742188 14.089844 L 17.738281 14.089844 C 17.539062 16.78125 15.226562 18.902344 12.394531 18.90625 C 10.085938 18.902344 8.191406 17.671875 7.445312 15.703125 C 6.921875 15.589844 5.667969 15.265625 4.886719 14.652344 L 4.886719 14.660156 C 5.269531 18.351562 8.480469 21.03125 12.394531 21.03125 C 16.324219 21.03125 19.546875 18.132812 19.914062 14.425781 C 19.1875 14.0625 18.398438 13.863281 17.765625 13.757812 "/>
<path style=" stroke:none;fill-rule:nonzero;fill:rgb(100%,100%,100%);fill-opacity:1;" d="M 27.21875 30.082031 L 24.972656 30.082031 L 24.972656 29.167969 C 24.972656 29.160156 24.96875 29.148438 24.964844 29.144531 C 24.957031 29.136719 24.949219 29.132812 24.9375 29.132812 L 24.328125 29.132812 C 24.316406 29.132812 24.308594 29.136719 24.300781 29.144531 C 24.292969 29.148438 24.292969 29.160156 24.292969 29.167969 L 24.292969 30.082031 L 22.625 30.082031 C 22.613281 30.082031 22.605469 30.085938 22.597656 30.09375 C 22.589844 30.097656 22.589844 30.105469 22.589844 30.117188 L 22.589844 30.644531 C 22.589844 30.652344 22.59375 30.660156 22.597656 30.667969 C 22.605469 30.675781 22.613281 30.679688 22.625 30.679688 L 27.21875 30.679688 C 27.230469 30.679688 27.238281 30.675781 27.246094 30.667969 C 27.253906 30.660156 27.253906 30.652344 27.253906 30.644531 L 27.253906 30.117188 C 27.253906 30.105469 27.253906 30.097656 27.246094 30.09375 C 27.238281 30.085938 27.230469 30.082031 27.21875 30.082031 M 26.300781 31.289062 C 25.976562 31.089844 25.515625 30.996094 24.910156 30.996094 C 24.316406 30.996094 23.855469 31.09375 23.53125 31.289062 C 23.207031 31.480469 23.039062 31.742188 23.039062 32.054688 C 23.039062 32.363281 23.207031 32.617188 23.535156 32.816406 C 23.859375 33.011719 24.320312 33.109375 24.917969 33.109375 C 25.519531 33.109375 25.980469 33.011719 26.304688 32.816406 C 26.625 32.617188 26.792969 32.363281 26.792969 32.054688 C 26.792969 31.742188 26.625 31.480469 26.300781 31.289062 M 25.757812 32.433594 C 25.546875 32.519531 25.265625 32.5625 24.917969 32.5625 C 24.558594 32.5625 24.277344 32.519531 24.078125 32.433594 C 23.875 32.347656 23.785156 32.226562 23.785156 32.046875 C 23.785156 31.886719 23.875 31.769531 24.078125 31.679688 C 24.277344 31.59375 24.558594 31.546875 24.917969 31.546875 C 25.265625 31.546875 25.546875 31.59375 25.757812 31.679688 C 25.964844 31.769531 26.058594 31.886719 26.058594 32.046875 C 26.058594 32.222656 25.964844 32.347656 25.757812 32.433594 M 23.113281 28.65625 L 26.085938 28.65625 C 26.082031 28.839844 26.066406 29.03125 26.039062 29.230469 C 26.007812 29.441406 25.976562 29.628906 25.945312 29.789062 C 25.941406 29.800781 25.945312 29.8125 25.953125 29.816406 C 25.960938 29.824219 25.96875 29.832031 25.980469 29.832031 L 26.570312 29.835938 C 26.585938 29.835938 26.601562 29.824219 26.605469 29.808594 C 26.648438 29.558594 26.6875 29.296875 26.722656 29.019531 C 26.753906 28.742188 26.773438 28.433594 26.777344 28.097656 C 26.777344 28.085938 26.773438 28.078125 26.765625 28.070312 C 26.757812 28.066406 26.75 28.0625 26.742188 28.0625 L 23.113281 28.0625 C 23.105469 28.0625 23.09375 28.066406 23.089844 28.070312 C 23.082031 28.078125 23.078125 28.085938 23.078125 28.097656 L 23.078125 28.621094 C 23.078125 28.632812 23.082031 28.640625 23.089844 28.648438 C 23.097656 28.652344 23.105469 28.65625 23.113281 28.65625 M 28.074219 28.65625 L 31.046875 28.65625 C 31.042969 28.839844 31.027344 29.03125 31 29.230469 C 30.96875 29.441406 30.9375 29.628906 30.90625 29.789062 C 30.902344 29.800781 30.90625 29.8125 30.914062 29.816406 C 30.917969 29.824219 30.929688 29.832031 30.941406 29.832031 L 31.527344 29.835938 C 31.546875 29.835938 31.5625 29.824219 31.566406 29.808594 C 31.609375 29.558594 31.648438 29.296875 31.679688 29.019531 C 31.714844 28.742188 31.730469 28.433594 31.738281 28.097656 C 31.738281 28.085938 31.734375 28.078125 31.726562 28.070312 C 31.71875 28.066406 31.710938 28.0625 31.699219 28.0625 L 28.074219 28.0625 C 28.066406 28.0625 28.054688 28.066406 28.050781 28.070312 C 28.042969 28.078125 28.039062 28.085938 28.039062 28.097656 L 28.039062 28.621094 C 28.039062 28.632812 28.042969 28.640625 28.050781 28.648438 C 28.054688 28.652344 28.066406 28.65625 28.074219 28.65625 M 31.261719 31.289062 C 30.9375 31.089844 30.472656 30.996094 29.871094 30.996094 C 29.277344 30.996094 28.816406 31.09375 28.492188 31.289062 C 28.167969 31.480469 28 31.742188 28 32.054688 C 28 32.363281 28.167969 32.617188 28.492188 32.816406 C 28.820312 33.011719 29.28125 33.109375 29.875 33.109375 C 30.480469 33.109375 30.941406 33.011719 31.265625 32.816406 C 31.585938 32.617188 31.753906 32.363281 31.753906 32.054688 C 31.753906 31.742188 31.585938 31.480469 31.261719 31.289062 M 30.714844 32.433594 C 30.507812 32.519531 30.226562 32.5625 29.875 32.5625 C 29.519531 32.5625 29.238281 32.519531 29.035156 32.433594 C 28.835938 32.347656 28.746094 32.226562 28.742188 32.046875 C 28.746094 31.886719 28.835938 31.769531 29.035156 31.679688 C 29.238281 31.59375 29.519531 31.546875 29.875 31.546875 C 30.226562 31.546875 30.507812 31.59375 30.714844 31.679688 C 30.925781 31.769531 31.019531 31.886719 31.019531 32.046875 C 31.019531 32.222656 30.925781 32.347656 30.714844 32.433594 M 32.179688 30.082031 L 29.933594 30.082031 L 29.933594 29.167969 C 29.933594 29.160156 29.929688 29.148438 29.925781 29.144531 C 29.917969 29.136719 29.910156 29.132812 29.898438 29.132812 L 29.285156 29.132812 C 29.277344 29.132812 29.269531 29.136719 29.261719 29.144531 C 29.253906 29.148438 29.25 29.160156 29.25 29.167969 L 29.25 30.082031 L 27.585938 30.082031 C 27.574219 30.082031 27.566406 30.085938 27.558594 30.09375 C 27.550781 30.097656 27.546875 30.105469 27.546875 30.117188 L 27.546875 30.644531 C 27.546875 30.652344 27.550781 30.660156 27.558594 30.667969 C 27.566406 30.675781 27.574219 30.679688 27.585938 30.679688 L 32.179688 30.679688 C 32.191406 30.679688 32.199219 30.675781 32.207031 30.667969 C 32.210938 30.660156 32.214844 30.652344 32.214844 30.644531 L 32.214844 30.117188 C 32.214844 30.105469 32.210938 30.097656 32.207031 30.09375 C 32.199219 30.085938 32.191406 30.082031 32.179688 30.082031 M 33.105469 30.140625 L 36.679688 30.140625 C 36.6875 30.140625 36.695312 30.136719 36.703125 30.128906 C 36.710938 30.121094 36.714844 30.113281 36.714844 30.105469 L 36.714844 29.578125 C 36.714844 29.566406 36.710938 29.558594 36.703125 29.554688 C 36.695312 29.546875 36.6875 29.542969 36.679688 29.542969 L 33.726562 29.542969 L 33.726562 28.105469 C 33.726562 28.097656 33.722656 28.089844 33.714844 28.082031 C 33.707031 28.074219 33.699219 28.070312 33.691406 28.070312 L 33.105469 28.070312 C 33.097656 28.070312 33.089844 28.074219 33.082031 28.082031 C 33.074219 28.089844 33.070312 28.097656 33.070312 28.105469 L 33.070312 30.105469 C 33.070312 30.113281 33.074219 30.121094 33.082031 30.128906 C 33.089844 30.136719 33.097656 30.140625 33.105469 30.140625 M 37.140625 30.699219 L 32.542969 30.699219 C 32.535156 30.699219 32.523438 30.703125 32.519531 30.710938 C 32.511719 30.714844 32.507812 30.722656 32.507812 30.734375 L 32.507812 31.257812 C 32.507812 31.265625 32.511719 31.273438 32.519531 31.28125 C 32.523438 31.285156 32.535156 31.289062 32.542969 31.289062 L 34.507812 31.289062 L 34.507812 32.980469 C 34.507812 32.988281 34.511719 32.996094 34.519531 33.003906 C 34.527344 33.007812 34.535156 33.011719 34.542969 33.011719 L 35.152344 33.011719 C 35.160156 33.011719 35.167969 33.007812 35.175781 33.003906 C 35.183594 32.996094 35.1875 32.988281 35.1875 32.980469 L 35.1875 31.289062 L 37.140625 31.289062 C 37.148438 31.289062 37.160156 31.285156 37.164062 31.28125 C 37.171875 31.273438 37.175781 31.265625 37.175781 31.253906 L 37.175781 30.734375 C 37.175781 30.722656 37.171875 30.714844 37.164062 30.707031 C 37.160156 30.703125 37.148438 30.699219 37.140625 30.699219 M 40.851562 31.097656 C 40.6875 31.125 40.445312 31.15625 40.117188 31.195312 C 39.789062 31.230469 39.5 31.25 39.253906 31.25 L 38.519531 31.25 L 38.519531 30.296875 L 40.199219 30.296875 C 40.210938 30.296875 40.21875 30.292969 40.226562 30.285156 C 40.230469 30.28125 40.234375 30.269531 40.234375 30.261719 L 40.234375 28.222656 C 40.234375 28.214844 40.230469 28.207031 40.226562 28.199219 C 40.21875 28.191406 40.207031 28.1875 40.199219 28.1875 L 37.898438 28.1875 C 37.886719 28.1875 37.878906 28.191406 37.871094 28.199219 C 37.863281 28.207031 37.859375 28.214844 37.859375 28.222656 L 37.859375 28.753906 C 37.859375 28.761719 37.863281 28.769531 37.871094 28.777344 C 37.878906 28.78125 37.886719 28.785156 37.898438 28.785156 L 39.574219 28.785156 L 39.574219 29.710938 L 37.898438 29.710938 C 37.886719 29.710938 37.878906 29.714844 37.871094 29.71875 C 37.863281 29.726562 37.859375 29.734375 37.859375 29.746094 L 37.859375 31.824219 C 37.859375 31.832031 37.863281 31.839844 37.871094 31.847656 C 37.878906 31.855469 37.886719 31.859375 37.898438 31.859375 C 37.898438 31.859375 38.078125 31.855469 38.429688 31.851562 C 38.785156 31.847656 39.003906 31.84375 39.085938 31.84375 C 39.410156 31.839844 39.746094 31.816406 40.089844 31.78125 C 40.433594 31.746094 40.691406 31.714844 40.859375 31.6875 C 40.878906 31.6875 40.890625 31.671875 40.890625 31.652344 L 40.890625 31.132812 C 40.890625 31.121094 40.886719 31.113281 40.878906 31.105469 C 40.871094 31.101562 40.859375 31.097656 40.851562 31.097656 M 41.714844 27.941406 C 41.707031 27.933594 41.699219 27.929688 41.6875 27.929688 L 41.09375 27.929688 C 41.082031 27.929688 41.074219 27.933594 41.066406 27.941406 C 41.0625 27.949219 41.054688 27.957031 41.054688 27.964844 L 41.054688 32.980469 C 41.054688 32.988281 41.0625 32.996094 41.066406 33.003906 C 41.074219 33.011719 41.082031 33.015625 41.09375 33.015625 L 41.6875 33.015625 C 41.699219 33.015625 41.707031 33.011719 41.714844 33.003906 C 41.71875 32.996094 41.722656 32.988281 41.722656 32.980469 L 41.722656 27.964844 C 41.722656 27.957031 41.71875 27.949219 41.714844 27.941406 "/>
<path style=" stroke:none;fill-rule:nonzero;fill:rgb(100%,100%,100%);fill-opacity:1;" d="M 63.992188 30.578125 L 63.992188 30.234375 L 65.601562 30.234375 L 65.601562 29.324219 L 66.027344 29.324219 L 66.027344 30.234375 L 68.164062 30.234375 L 68.164062 30.578125 Z M 64.863281 32.457031 C 64.578125 32.292969 64.4375 32.085938 64.4375 31.839844 C 64.4375 31.589844 64.578125 31.386719 64.863281 31.222656 C 65.148438 31.058594 65.550781 30.976562 66.074219 30.976562 C 66.601562 30.976562 67.007812 31.058594 67.289062 31.222656 C 67.570312 31.382812 67.710938 31.589844 67.710938 31.839844 C 67.710938 32.085938 67.570312 32.292969 67.289062 32.457031 C 67.007812 32.621094 66.601562 32.707031 66.074219 32.707031 C 65.550781 32.707031 65.148438 32.625 64.863281 32.457031 M 67.695312 28.433594 C 67.691406 28.707031 67.671875 28.972656 67.632812 29.234375 C 67.597656 29.492188 67.554688 29.722656 67.507812 29.925781 L 67.109375 29.925781 C 67.144531 29.769531 67.175781 29.585938 67.207031 29.371094 C 67.238281 29.15625 67.253906 28.957031 67.257812 28.777344 L 64.480469 28.777344 L 64.480469 28.433594 Z M 65.21875 32.246094 C 65.4375 32.335938 65.722656 32.382812 66.074219 32.382812 C 66.425781 32.382812 66.710938 32.335938 66.929688 32.246094 C 67.148438 32.152344 67.257812 32.015625 67.257812 31.835938 C 67.257812 31.660156 67.148438 31.527344 66.929688 31.4375 C 66.710938 31.347656 66.425781 31.300781 66.074219 31.300781 C 65.722656 31.300781 65.4375 31.347656 65.21875 31.4375 C 65.003906 31.527344 64.894531 31.660156 64.894531 31.835938 C 64.894531 32.015625 65.003906 32.152344 65.21875 32.246094 "/>
<path style=" stroke:none;fill-rule:nonzero;fill:rgb(100%,100%,100%);fill-opacity:1;" d="M 68.5 30.578125 L 68.5 30.234375 L 70.105469 30.234375 L 70.105469 29.324219 L 70.53125 29.324219 L 70.53125 30.234375 L 72.671875 30.234375 L 72.671875 30.578125 Z M 69.371094 32.457031 C 69.085938 32.292969 68.945312 32.085938 68.945312 31.839844 C 68.945312 31.589844 69.085938 31.386719 69.371094 31.222656 C 69.65625 31.058594 70.058594 30.976562 70.582031 30.976562 C 71.109375 30.976562 71.515625 31.058594 71.796875 31.222656 C 72.078125 31.382812 72.21875 31.589844 72.21875 31.839844 C 72.21875 32.085938 72.078125 32.292969 71.796875 32.457031 C 71.515625 32.621094 71.109375 32.707031 70.582031 32.707031 C 70.058594 32.707031 69.65625 32.625 69.371094 32.457031 M 72.199219 28.433594 C 72.195312 28.707031 72.175781 28.972656 72.140625 29.234375 C 72.101562 29.492188 72.0625 29.722656 72.015625 29.925781 L 71.613281 29.925781 C 71.652344 29.769531 71.683594 29.585938 71.714844 29.371094 C 71.742188 29.15625 71.761719 28.957031 71.765625 28.777344 L 68.984375 28.777344 L 68.984375 28.433594 Z M 69.726562 32.246094 C 69.941406 32.335938 70.230469 32.382812 70.582031 32.382812 C 70.933594 32.382812 71.21875 32.335938 71.4375 32.246094 C 71.65625 32.152344 71.765625 32.015625 71.765625 31.835938 C 71.765625 31.660156 71.65625 31.527344 71.4375 31.4375 C 71.21875 31.347656 70.933594 31.300781 70.582031 31.300781 C 70.230469 31.300781 69.941406 31.347656 69.726562 31.4375 C 69.507812 31.527344 69.402344 31.660156 69.402344 31.835938 C 69.402344 32.015625 69.507812 32.152344 69.726562 32.246094 "/>
<path style=" stroke:none;fill-rule:nonzero;fill:rgb(100%,100%,100%);fill-opacity:1;" d="M 74.824219 29.953125 C 74.875 30.144531 74.949219 30.324219 75.042969 30.488281 C 75.148438 30.667969 75.28125 30.828125 75.441406 30.976562 C 75.601562 31.121094 75.785156 31.257812 76 31.378906 C 75.945312 31.417969 75.890625 31.464844 75.832031 31.519531 C 75.773438 31.574219 75.726562 31.621094 75.6875 31.664062 C 75.574219 31.59375 75.460938 31.515625 75.351562 31.421875 C 75.242188 31.332031 75.140625 31.234375 75.042969 31.132812 C 74.933594 31.011719 74.835938 30.886719 74.746094 30.75 C 74.660156 30.617188 74.585938 30.480469 74.527344 30.339844 C 74.488281 30.46875 74.429688 30.605469 74.351562 30.738281 C 74.273438 30.875 74.179688 31.007812 74.078125 31.132812 C 73.972656 31.261719 73.863281 31.382812 73.738281 31.496094 C 73.621094 31.609375 73.5 31.703125 73.382812 31.78125 C 73.339844 31.738281 73.28125 31.695312 73.210938 31.644531 C 73.140625 31.59375 73.074219 31.546875 73.007812 31.507812 C 73.214844 31.382812 73.398438 31.242188 73.5625 31.085938 C 73.730469 30.929688 73.867188 30.757812 73.972656 30.570312 C 74.082031 30.382812 74.167969 30.183594 74.226562 29.964844 C 74.285156 29.75 74.3125 29.519531 74.3125 29.273438 L 74.3125 28.921875 L 73.339844 28.921875 L 73.339844 28.578125 L 75.738281 28.578125 L 75.738281 28.921875 L 74.75 28.921875 L 74.75 29.335938 C 74.75 29.554688 74.773438 29.761719 74.824219 29.953125 M 76.472656 32.621094 L 76.472656 30.046875 L 75.511719 30.046875 L 75.511719 29.683594 L 76.472656 29.683594 L 76.472656 28.308594 L 76.898438 28.308594 L 76.898438 32.621094 Z M 76.472656 32.621094 "/>
<path style=" stroke:none;fill-rule:nonzero;fill:rgb(100%,100%,100%);fill-opacity:1;" d="M 79.28125 29.433594 C 79.339844 29.570312 79.421875 29.695312 79.527344 29.808594 C 79.632812 29.929688 79.761719 30.03125 79.910156 30.121094 C 80.058594 30.207031 80.210938 30.277344 80.367188 30.328125 C 80.316406 30.375 80.269531 30.421875 80.21875 30.476562 C 80.167969 30.53125 80.125 30.582031 80.09375 30.621094 C 79.992188 30.582031 79.886719 30.527344 79.769531 30.464844 C 79.65625 30.398438 79.542969 30.324219 79.4375 30.234375 C 79.34375 30.160156 79.257812 30.082031 79.175781 29.992188 C 79.097656 29.90625 79.027344 29.8125 78.96875 29.710938 C 78.933594 29.8125 78.878906 29.910156 78.808594 30.003906 C 78.738281 30.101562 78.664062 30.191406 78.574219 30.273438 C 78.472656 30.371094 78.355469 30.460938 78.234375 30.542969 C 78.105469 30.621094 77.980469 30.691406 77.851562 30.753906 C 77.816406 30.71875 77.765625 30.675781 77.699219 30.621094 C 77.636719 30.570312 77.574219 30.523438 77.519531 30.484375 C 77.703125 30.40625 77.878906 30.3125 78.042969 30.203125 C 78.207031 30.09375 78.347656 29.964844 78.457031 29.816406 C 78.550781 29.703125 78.621094 29.574219 78.671875 29.429688 C 78.722656 29.285156 78.75 29.128906 78.75 28.960938 L 78.75 28.847656 L 77.851562 28.847656 L 77.851562 28.503906 L 80.082031 28.503906 L 80.082031 28.847656 L 79.191406 28.847656 L 79.191406 28.976562 C 79.191406 29.144531 79.222656 29.296875 79.28125 29.433594 M 80.804688 32.648438 L 80.804688 31.457031 L 78.25 31.457031 L 78.25 31.105469 L 81.21875 31.105469 L 81.21875 32.648438 Z M 81.21875 29.683594 L 81.21875 30.90625 L 80.804688 30.90625 L 80.804688 28.308594 L 81.21875 28.308594 L 81.21875 29.324219 L 81.847656 29.324219 L 81.847656 29.683594 Z M 81.21875 29.683594 "/>
<path style=" stroke:none;fill-rule:nonzero;fill:rgb(100%,100%,100%);fill-opacity:1;" d="M 84.3125 30.40625 L 84.3125 30.84375 L 85.636719 30.84375 L 85.636719 31.855469 L 83.035156 31.855469 L 83.035156 32.265625 L 85.734375 32.265625 L 85.734375 32.582031 L 82.578125 32.582031 L 82.578125 31.550781 L 85.179688 31.550781 L 85.179688 31.160156 L 82.578125 31.160156 L 82.578125 30.84375 L 83.882812 30.84375 L 83.882812 30.40625 L 82.019531 30.40625 L 82.019531 30.082031 L 86.191406 30.082031 L 86.191406 30.40625 Z M 82.566406 28.429688 L 85.640625 28.429688 L 85.640625 29.71875 L 82.566406 29.71875 Z M 85.230469 28.75 L 82.972656 28.75 L 82.972656 29.398438 L 85.230469 29.398438 Z M 85.230469 28.75 "/>
<path style=" stroke:none;fill-rule:nonzero;fill:rgb(100%,100%,100%);fill-opacity:1;" d="M 89.753906 29.953125 C 89.804688 30.144531 89.875 30.324219 89.972656 30.488281 C 90.078125 30.667969 90.210938 30.828125 90.371094 30.976562 C 90.527344 31.121094 90.71875 31.257812 90.933594 31.378906 C 90.878906 31.417969 90.824219 31.464844 90.765625 31.519531 C 90.707031 31.574219 90.660156 31.621094 90.617188 31.664062 C 90.503906 31.59375 90.394531 31.515625 90.285156 31.421875 C 90.171875 31.332031 90.070312 31.234375 89.972656 31.132812 C 89.863281 31.011719 89.761719 30.886719 89.675781 30.75 C 89.585938 30.617188 89.515625 30.480469 89.457031 30.339844 C 89.421875 30.46875 89.363281 30.605469 89.28125 30.738281 C 89.203125 30.875 89.109375 31.007812 89.007812 31.132812 C 88.902344 31.261719 88.792969 31.382812 88.671875 31.496094 C 88.550781 31.609375 88.433594 31.703125 88.316406 31.78125 C 88.269531 31.738281 88.210938 31.695312 88.144531 31.644531 C 88.074219 31.59375 88.003906 31.546875 87.933594 31.507812 C 88.144531 31.382812 88.332031 31.242188 88.492188 31.089844 C 88.652344 30.933594 88.789062 30.761719 88.902344 30.574219 C 89.011719 30.390625 89.097656 30.1875 89.152344 29.96875 C 89.214844 29.75 89.242188 29.519531 89.242188 29.273438 L 89.242188 28.921875 L 88.277344 28.921875 L 88.277344 28.578125 L 90.675781 28.578125 L 90.675781 28.921875 L 89.675781 28.921875 L 89.675781 29.335938 C 89.675781 29.554688 89.703125 29.761719 89.753906 29.953125 M 91.652344 28.308594 L 91.652344 29.980469 L 92.320312 29.980469 L 92.320312 30.34375 L 91.652344 30.34375 L 91.652344 32.625 L 91.230469 32.625 L 91.230469 28.308594 Z M 91.652344 28.308594 "/>
<path style=" stroke:none;fill-rule:nonzero;fill:rgb(100%,100%,100%);fill-opacity:1;" d="M 95.613281 31.105469 L 95.613281 32.617188 L 95.1875 32.617188 L 95.1875 31.105469 L 94.078125 31.105469 L 94.078125 32.585938 L 93.652344 32.585938 L 93.652344 31.113281 L 92.535156 31.113281 L 92.535156 30.757812 L 96.707031 30.757812 L 96.707031 31.109375 L 95.613281 31.109375 Z M 93.4375 30.050781 C 93.148438 29.859375 93.003906 29.625 93.003906 29.34375 C 93.003906 29.0625 93.144531 28.828125 93.433594 28.632812 C 93.71875 28.441406 94.117188 28.347656 94.621094 28.347656 C 95.128906 28.347656 95.523438 28.441406 95.8125 28.632812 C 96.097656 28.824219 96.242188 29.058594 96.242188 29.34375 C 96.242188 29.621094 96.097656 29.855469 95.8125 30.046875 C 95.523438 30.238281 95.125 30.332031 94.621094 30.332031 C 94.121094 30.332031 93.726562 30.238281 93.4375 30.050781 M 93.78125 29.808594 C 94.007812 29.921875 94.285156 29.980469 94.621094 29.980469 C 94.953125 29.980469 95.234375 29.925781 95.453125 29.8125 C 95.675781 29.699219 95.789062 29.546875 95.789062 29.355469 C 95.789062 29.152344 95.675781 28.992188 95.457031 28.875 C 95.234375 28.757812 94.957031 28.699219 94.621094 28.699219 C 94.28125 28.699219 94.003906 28.757812 93.777344 28.871094 C 93.554688 28.988281 93.441406 29.144531 93.441406 29.34375 C 93.441406 29.539062 93.554688 29.691406 93.78125 29.808594 "/>
<path style=" stroke:none;fill-rule:nonzero;fill:rgb(100%,100%,100%);fill-opacity:1;" d="M 97.640625 28.824219 C 97.878906 28.5625 98.132812 28.433594 98.40625 28.433594 C 98.6875 28.433594 98.941406 28.5625 99.171875 28.824219 C 99.402344 29.085938 99.515625 29.503906 99.515625 30.070312 C 99.515625 30.628906 99.402344 31.042969 99.175781 31.3125 C 98.949219 31.578125 98.691406 31.714844 98.40625 31.714844 C 98.121094 31.714844 97.863281 31.578125 97.632812 31.3125 C 97.40625 31.046875 97.289062 30.632812 97.289062 30.070312 C 97.289062 29.5 97.40625 29.082031 97.640625 28.824219 M 97.882812 30.964844 C 98.007812 31.222656 98.183594 31.355469 98.410156 31.355469 C 98.636719 31.355469 98.808594 31.222656 98.925781 30.964844 C 99.042969 30.707031 99.101562 30.40625 99.101562 30.066406 C 99.101562 29.738281 99.042969 29.441406 98.925781 29.183594 C 98.808594 28.921875 98.636719 28.792969 98.410156 28.792969 C 98.183594 28.792969 98.007812 28.921875 97.882812 29.183594 C 97.761719 29.445312 97.699219 29.742188 97.699219 30.066406 C 97.699219 30.40625 97.761719 30.707031 97.882812 30.964844 M 100.414062 28.308594 L 100.835938 28.308594 L 100.835938 32.621094 L 100.414062 32.621094 Z M 100.414062 28.308594 "/>
<path style=" stroke:none;fill-rule:nonzero;fill:rgb(100%,100%,100%);fill-opacity:1;" d="M 101.550781 30.769531 L 101.550781 30.425781 L 102.6875 30.425781 L 102.6875 29.785156 C 102.472656 29.710938 102.3125 29.613281 102.203125 29.492188 C 102.089844 29.371094 102.035156 29.238281 102.035156 29.097656 C 102.035156 28.867188 102.175781 28.675781 102.453125 28.515625 C 102.734375 28.355469 103.125 28.277344 103.628906 28.277344 C 104.144531 28.277344 104.539062 28.359375 104.820312 28.519531 C 105.101562 28.683594 105.242188 28.878906 105.242188 29.105469 C 105.242188 29.246094 105.1875 29.375 105.078125 29.496094 C 104.96875 29.613281 104.808594 29.710938 104.59375 29.785156 L 104.59375 30.425781 L 105.722656 30.425781 L 105.722656 30.769531 Z M 102.425781 31.320312 C 102.707031 31.167969 103.109375 31.09375 103.632812 31.09375 C 104.160156 31.09375 104.566406 31.167969 104.847656 31.324219 C 105.125 31.476562 105.265625 31.671875 105.265625 31.902344 C 105.265625 32.128906 105.125 32.320312 104.847656 32.476562 C 104.570312 32.628906 104.164062 32.707031 103.632812 32.707031 C 103.109375 32.707031 102.707031 32.628906 102.425781 32.476562 C 102.144531 32.320312 102 32.128906 102 31.898438 C 102 31.664062 102.144531 31.46875 102.425781 31.320312 M 102.785156 32.261719 C 102.996094 32.347656 103.28125 32.390625 103.632812 32.390625 C 103.980469 32.390625 104.261719 32.347656 104.476562 32.261719 C 104.6875 32.175781 104.796875 32.054688 104.796875 31.902344 C 104.796875 31.742188 104.6875 31.617188 104.476562 31.53125 C 104.261719 31.441406 103.980469 31.398438 103.632812 31.398438 C 103.28125 31.398438 102.996094 31.441406 102.785156 31.53125 C 102.574219 31.617188 102.46875 31.738281 102.46875 31.898438 C 102.46875 32.054688 102.574219 32.175781 102.785156 32.261719 M 102.800781 29.457031 C 103.007812 29.554688 103.285156 29.601562 103.628906 29.601562 C 103.96875 29.601562 104.246094 29.554688 104.460938 29.464844 C 104.675781 29.371094 104.785156 29.25 104.785156 29.101562 C 104.785156 28.949219 104.675781 28.828125 104.460938 28.730469 C 104.246094 28.636719 103.96875 28.589844 103.628906 28.589844 C 103.289062 28.589844 103.011719 28.632812 102.804688 28.726562 C 102.59375 28.816406 102.488281 28.941406 102.488281 29.09375 C 102.488281 29.242188 102.589844 29.363281 102.800781 29.457031 M 104.183594 29.871094 C 104.105469 29.890625 104.015625 29.902344 103.921875 29.910156 C 103.824219 29.917969 103.730469 29.921875 103.628906 29.921875 C 103.535156 29.921875 103.441406 29.917969 103.351562 29.910156 C 103.257812 29.902344 103.175781 29.890625 103.101562 29.875 L 103.101562 30.425781 L 104.183594 30.425781 Z M 104.183594 29.871094 "/>
<path style=" stroke:none;fill-rule:nonzero;fill:rgb(100%,100%,100%);fill-opacity:1;" d="M 106.289062 29.105469 L 108.886719 29.105469 L 108.886719 29.457031 L 106.289062 29.457031 Z M 106.773438 30.082031 C 106.984375 29.878906 107.257812 29.777344 107.597656 29.777344 C 107.925781 29.777344 108.199219 29.878906 108.410156 30.082031 C 108.621094 30.289062 108.726562 30.53125 108.726562 30.808594 C 108.726562 31.078125 108.621094 31.320312 108.410156 31.535156 C 108.199219 31.746094 107.925781 31.855469 107.597656 31.855469 C 107.265625 31.855469 106.992188 31.75 106.777344 31.539062 C 106.566406 31.328125 106.457031 31.085938 106.457031 30.808594 C 106.457031 30.53125 106.5625 30.289062 106.773438 30.082031 M 107.078125 31.304688 C 107.203125 31.4375 107.375 31.503906 107.597656 31.503906 C 107.816406 31.503906 107.988281 31.4375 108.109375 31.300781 C 108.234375 31.167969 108.296875 31 108.296875 30.808594 C 108.296875 30.617188 108.234375 30.453125 108.109375 30.320312 C 107.988281 30.1875 107.816406 30.121094 107.597656 30.121094 C 107.375 30.121094 107.203125 30.1875 107.078125 30.320312 C 106.953125 30.453125 106.894531 30.617188 106.894531 30.808594 C 106.894531 31.003906 106.953125 31.167969 107.078125 31.304688 M 106.914062 28.402344 L 108.265625 28.402344 L 108.265625 28.742188 L 106.914062 28.742188 Z M 109.5625 32.621094 L 109.5625 30.476562 L 108.816406 30.476562 L 108.816406 30.113281 L 109.5625 30.113281 L 109.5625 28.308594 L 109.984375 28.308594 L 109.984375 32.621094 Z M 109.5625 32.621094 "/>
<path style=" stroke:none;fill-rule:nonzero;fill:rgb(100%,100%,100%);fill-opacity:1;" d="M 113.589844 30.585938 C 113.429688 30.613281 113.1875 30.644531 112.859375 30.675781 C 112.535156 30.710938 112.238281 30.726562 111.976562 30.734375 C 111.800781 30.738281 111.574219 30.742188 111.292969 30.746094 C 111.007812 30.75 110.863281 30.75 110.847656 30.75 L 110.847656 29.417969 L 112.5 29.417969 L 112.5 28.804688 L 110.847656 28.804688 L 110.847656 28.46875 L 112.914062 28.46875 L 112.914062 29.746094 L 111.253906 29.746094 L 111.253906 30.398438 L 112.027344 30.390625 C 112.234375 30.386719 112.503906 30.371094 112.832031 30.339844 C 113.164062 30.308594 113.414062 30.277344 113.589844 30.246094 Z M 113.78125 32.648438 L 113.78125 31.535156 L 111.230469 31.535156 L 111.230469 31.183594 L 114.210938 31.183594 L 114.210938 32.648438 Z M 114.210938 29.6875 L 114.210938 30.980469 L 113.789062 30.980469 L 113.789062 28.308594 L 114.210938 28.308594 L 114.210938 29.335938 L 114.828125 29.335938 L 114.828125 29.6875 Z M 114.210938 29.6875 "/>
</g>
</svg>
