<?xml version="1.0" encoding="UTF-8"?>
<svg xmlns="http://www.w3.org/2000/svg" xmlns:xlink="http://www.w3.org/1999/xlink" width="142px" height="35px" viewBox="0 0 142 35" version="1.1">
<g id="surface1">
<path style=" stroke:none;fill-rule:nonzero;fill:rgb(0%,0%,0%);fill-opacity:1;" d="M 119.875 20.722656 L 119.875 19.847656 L 119.25 19.847656 L 119.25 20.152344 L 117.683594 20.152344 L 117.683594 18.472656 L 118.078125 18.472656 L 118.078125 18.976562 L 118.859375 18.976562 L 118.859375 18.472656 L 119.25 18.472656 L 119.25 18.835938 L 119.875 18.835938 L 119.875 18.378906 L 120.273438 18.378906 L 120.273438 20.722656 Z M 118.03125 21.519531 L 118.03125 20.453125 L 118.433594 20.453125 L 118.433594 21.183594 L 120.34375 21.183594 L 120.34375 21.519531 Z M 118.859375 19.3125 L 118.078125 19.3125 L 118.078125 19.816406 L 118.859375 19.816406 Z M 119.875 19.160156 L 119.25 19.160156 L 119.25 19.527344 L 119.875 19.527344 Z M 119.875 19.160156 "/>
<path style=" stroke:none;fill-rule:nonzero;fill:rgb(0%,0%,0%);fill-opacity:1;" d="M 122.585938 18.507812 C 122.582031 18.71875 122.542969 18.914062 122.46875 19.09375 C 122.394531 19.273438 122.296875 19.4375 122.171875 19.578125 C 122.039062 19.734375 121.878906 19.867188 121.695312 19.980469 C 121.507812 20.089844 121.308594 20.175781 121.097656 20.238281 C 121.078125 20.210938 121.042969 20.171875 120.996094 20.113281 C 120.945312 20.054688 120.894531 20.007812 120.839844 19.964844 C 121 19.921875 121.160156 19.863281 121.320312 19.789062 C 121.480469 19.714844 121.621094 19.621094 121.75 19.511719 C 121.851562 19.421875 121.933594 19.324219 122.003906 19.210938 C 122.070312 19.097656 122.113281 18.976562 122.132812 18.84375 L 121.039062 18.84375 L 121.039062 18.507812 Z M 121.628906 21.464844 C 121.40625 21.347656 121.296875 21.179688 121.296875 20.964844 C 121.296875 20.75 121.410156 20.585938 121.636719 20.46875 C 121.863281 20.351562 122.144531 20.292969 122.476562 20.292969 C 122.816406 20.292969 123.097656 20.351562 123.328125 20.46875 C 123.554688 20.582031 123.667969 20.75 123.667969 20.964844 C 123.667969 21.179688 123.554688 21.347656 123.328125 21.464844 C 123.097656 21.582031 122.816406 21.636719 122.476562 21.636719 C 122.132812 21.636719 121.851562 21.582031 121.628906 21.464844 M 121.9375 21.230469 C 122.078125 21.296875 122.257812 21.328125 122.480469 21.328125 C 122.707031 21.328125 122.890625 21.296875 123.03125 21.234375 C 123.175781 21.167969 123.242188 21.082031 123.242188 20.972656 C 123.242188 20.859375 123.175781 20.769531 123.03125 20.703125 C 122.890625 20.636719 122.707031 20.605469 122.480469 20.605469 C 122.257812 20.605469 122.078125 20.636719 121.9375 20.699219 C 121.796875 20.765625 121.726562 20.851562 121.726562 20.964844 C 121.726562 21.074219 121.796875 21.164062 121.9375 21.230469 M 123.230469 20.277344 L 123.230469 19.832031 L 122.613281 19.832031 L 122.613281 19.507812 L 123.230469 19.507812 L 123.230469 19.125 L 122.683594 19.125 L 122.683594 18.796875 L 123.230469 18.796875 L 123.230469 18.371094 L 123.625 18.371094 L 123.625 20.277344 Z M 123.230469 20.277344 "/>
<path style=" stroke:none;fill-rule:nonzero;fill:rgb(0%,0%,0%);fill-opacity:1;" d="M 124.09375 19.949219 L 124.09375 19.621094 L 126.304688 19.621094 C 126.328125 19.519531 126.355469 19.390625 126.382812 19.230469 C 126.410156 19.070312 126.429688 18.925781 126.4375 18.796875 L 124.429688 18.796875 L 124.429688 18.460938 L 126.855469 18.460938 C 126.851562 18.640625 126.835938 18.839844 126.800781 19.058594 C 126.765625 19.277344 126.730469 19.464844 126.695312 19.621094 L 127.171875 19.621094 L 127.171875 19.949219 Z M 124.488281 20.300781 L 126.773438 20.300781 L 126.773438 21.542969 L 124.488281 21.542969 Z M 126.378906 20.636719 L 124.886719 20.636719 L 124.886719 21.210938 L 126.378906 21.210938 Z M 126.378906 20.636719 "/>
<path style=" stroke:none;fill-rule:nonzero;fill:rgb(0%,0%,0%);fill-opacity:1;" d="M 128.789062 19.621094 C 128.820312 19.757812 128.871094 19.886719 128.9375 20.007812 C 129.011719 20.136719 129.101562 20.253906 129.214844 20.359375 C 129.324219 20.464844 129.457031 20.558594 129.605469 20.640625 C 129.558594 20.683594 129.507812 20.726562 129.453125 20.773438 C 129.398438 20.824219 129.355469 20.867188 129.320312 20.90625 C 129.25 20.867188 129.179688 20.816406 129.105469 20.757812 C 129.027344 20.695312 128.957031 20.628906 128.886719 20.558594 C 128.8125 20.476562 128.742188 20.394531 128.679688 20.304688 C 128.617188 20.214844 128.566406 20.128906 128.53125 20.042969 C 128.5 20.128906 128.457031 20.21875 128.402344 20.308594 C 128.347656 20.394531 128.285156 20.480469 128.214844 20.5625 C 128.140625 20.648438 128.058594 20.730469 127.976562 20.800781 C 127.894531 20.875 127.816406 20.9375 127.738281 20.984375 C 127.695312 20.945312 127.648438 20.90625 127.589844 20.863281 C 127.53125 20.816406 127.46875 20.773438 127.402344 20.726562 C 127.550781 20.640625 127.683594 20.542969 127.800781 20.433594 C 127.917969 20.324219 128.015625 20.199219 128.09375 20.0625 C 128.167969 19.9375 128.222656 19.800781 128.261719 19.652344 C 128.300781 19.5 128.320312 19.339844 128.320312 19.164062 L 128.320312 18.902344 L 127.640625 18.902344 L 127.640625 18.574219 L 129.429688 18.574219 L 129.429688 18.902344 L 128.742188 18.902344 L 128.742188 19.183594 C 128.742188 19.335938 128.757812 19.484375 128.789062 19.621094 M 129.902344 18.378906 L 130.296875 18.378906 L 130.296875 21.582031 L 129.902344 21.582031 Z M 129.902344 18.378906 "/>
<path style=" stroke:none;fill-rule:nonzero;fill:rgb(0%,0%,0%);fill-opacity:1;" d="M 132.292969 4.597656 L 115.90625 4.597656 C 115.035156 4.597656 114.335938 5.28125 114.335938 6.125 L 114.335938 21.636719 C 114.335938 22.480469 115.035156 23.164062 115.90625 23.164062 L 132.292969 23.164062 C 133.164062 23.164062 133.867188 22.480469 133.867188 21.636719 L 133.867188 6.125 C 133.867188 5.28125 133.164062 4.597656 132.292969 4.597656 M 132.292969 22.539062 L 115.90625 22.539062 C 115.394531 22.539062 114.980469 22.136719 114.980469 21.636719 L 114.980469 17.515625 L 133.222656 17.515625 L 133.222656 21.636719 C 133.21875 22.136719 132.804688 22.535156 132.292969 22.539062 "/>
<path style=" stroke:none;fill-rule:nonzero;fill:rgb(100%,100%,100%);fill-opacity:1;" d="M 133.03125 16.53125 L 128.253906 13.484375 C 128.3125 13.371094 128.371094 13.261719 128.421875 13.144531 C 128.671875 12.5625 128.8125 11.925781 128.8125 11.257812 L 128.8125 11.253906 C 128.8125 10.769531 128.738281 10.300781 128.601562 9.859375 L 129.464844 9.398438 C 129.539062 9.355469 129.585938 9.273438 129.574219 9.191406 C 129.5625 9.109375 129.503906 9.039062 129.421875 9.015625 L 127.167969 8.386719 C 127.054688 8.351562 126.9375 8.417969 126.90625 8.527344 L 126.257812 10.714844 C 126.234375 10.792969 126.261719 10.882812 126.332031 10.933594 C 126.398438 10.988281 126.492188 10.992188 126.566406 10.953125 L 127.363281 10.523438 C 127.414062 10.761719 127.441406 11.003906 127.441406 11.257812 C 127.441406 11.742188 127.34375 12.203125 127.160156 12.625 C 127.140625 12.664062 127.121094 12.703125 127.101562 12.742188 L 121.121094 8.914062 C 121.164062 8.863281 121.210938 8.8125 121.257812 8.765625 C 121.585938 8.445312 121.976562 8.1875 122.410156 8.011719 C 122.84375 7.832031 123.316406 7.734375 123.820312 7.734375 C 123.875 7.734375 123.929688 7.714844 123.96875 7.675781 C 124.007812 7.632812 124.03125 7.582031 124.03125 7.527344 L 124.03125 6.609375 C 124.03125 6.554688 124.007812 6.503906 123.96875 6.464844 C 123.929688 6.425781 123.875 6.402344 123.820312 6.402344 C 123.132812 6.402344 122.476562 6.539062 121.875 6.785156 C 121.277344 7.03125 120.738281 7.382812 120.289062 7.824219 C 120.175781 7.933594 120.066406 8.050781 119.964844 8.171875 L 115.660156 5.414062 C 115.527344 5.328125 115.386719 5.300781 115.355469 5.351562 L 115.167969 5.625 C 115.132812 5.675781 115.214844 5.789062 115.351562 5.875 L 119.632812 8.621094 C 119.472656 8.855469 119.332031 9.101562 119.21875 9.367188 C 118.964844 9.949219 118.828125 10.585938 118.828125 11.257812 C 118.828125 11.921875 118.964844 12.5625 119.21875 13.144531 C 119.472656 13.726562 119.839844 14.25 120.289062 14.683594 C 120.742188 15.121094 121.28125 15.472656 121.875 15.71875 C 122.46875 15.960938 123.121094 16.09375 123.800781 16.097656 L 123.824219 16.097656 C 124.511719 16.097656 125.167969 15.960938 125.765625 15.71875 C 126.363281 15.472656 126.902344 15.121094 127.351562 14.683594 C 127.582031 14.464844 127.789062 14.222656 127.96875 13.960938 L 132.722656 16.992188 C 132.855469 17.078125 132.992188 17.105469 133.03125 17.058594 L 133.214844 16.785156 C 133.25 16.730469 133.167969 16.621094 133.03125 16.53125 M 126.382812 13.746094 C 126.054688 14.0625 125.664062 14.320312 125.230469 14.496094 C 124.796875 14.675781 124.320312 14.773438 123.820312 14.773438 C 123.320312 14.773438 122.84375 14.675781 122.410156 14.496094 C 121.980469 14.320312 121.585938 14.0625 121.257812 13.742188 C 120.929688 13.425781 120.664062 13.046875 120.484375 12.625 C 120.296875 12.203125 120.199219 11.742188 120.199219 11.253906 C 120.199219 10.765625 120.296875 10.304688 120.484375 9.886719 C 120.5625 9.699219 120.664062 9.523438 120.777344 9.351562 L 126.824219 13.226562 C 126.691406 13.414062 126.546875 13.585938 126.382812 13.746094 "/>
<path style=" stroke:none;fill-rule:nonzero;fill:rgb(0%,0%,0%);fill-opacity:1;" d="M 138.335938 0.175781 L 3.457031 0.175781 C 1.695312 0.175781 0.269531 1.5625 0.265625 3.277344 L 0.265625 34.652344 L 141.527344 34.652344 L 141.527344 26.878906 C 141.527344 26.863281 141.527344 26.851562 141.527344 26.835938 L 141.527344 3.277344 C 141.527344 1.566406 140.101562 0.175781 138.335938 0.175781 M 1.605469 3.277344 C 1.605469 2.28125 2.433594 1.476562 3.457031 1.472656 L 59.917969 1.472656 L 59.917969 26.1875 L 1.605469 26.1875 Z M 140.191406 26.1875 L 61.253906 26.1875 L 61.253906 1.472656 L 138.335938 1.472656 C 139.359375 1.476562 140.1875 2.28125 140.191406 3.277344 Z M 140.191406 26.1875 "/>
<path style=" stroke:none;fill-rule:nonzero;fill:rgb(0%,0%,0%);fill-opacity:1;" d="M 72.394531 20.074219 L 72.394531 20.320312 L 73.328125 20.320312 L 73.328125 21.066406 L 71.46875 21.066406 L 71.46875 21.28125 L 73.410156 21.28125 L 73.410156 21.558594 L 71.035156 21.558594 L 71.035156 20.804688 L 72.898438 20.804688 L 72.898438 20.597656 L 71.035156 20.597656 L 71.035156 20.320312 L 71.957031 20.320312 L 71.957031 20.074219 L 70.644531 20.074219 L 70.644531 19.78125 L 73.722656 19.78125 L 73.722656 20.074219 Z M 72.671875 19.167969 C 72.746094 19.203125 72.828125 19.230469 72.917969 19.253906 C 73.015625 19.28125 73.125 19.300781 73.234375 19.316406 C 73.347656 19.332031 73.453125 19.347656 73.558594 19.355469 C 73.523438 19.394531 73.484375 19.441406 73.441406 19.496094 C 73.398438 19.554688 73.363281 19.605469 73.332031 19.644531 C 73.242188 19.636719 73.140625 19.617188 73.039062 19.597656 C 72.933594 19.578125 72.832031 19.550781 72.730469 19.519531 C 72.617188 19.484375 72.507812 19.441406 72.410156 19.390625 C 72.3125 19.339844 72.238281 19.285156 72.183594 19.222656 C 72.128906 19.277344 72.0625 19.328125 71.976562 19.375 C 71.894531 19.417969 71.800781 19.457031 71.699219 19.492188 C 71.597656 19.527344 71.488281 19.558594 71.375 19.582031 C 71.257812 19.609375 71.144531 19.628906 71.027344 19.644531 C 70.996094 19.597656 70.960938 19.550781 70.917969 19.503906 C 70.878906 19.453125 70.839844 19.40625 70.796875 19.355469 C 70.910156 19.347656 71.023438 19.332031 71.136719 19.316406 C 71.246094 19.300781 71.351562 19.28125 71.445312 19.253906 C 71.542969 19.230469 71.625 19.199219 71.699219 19.164062 C 71.769531 19.125 71.824219 19.085938 71.863281 19.039062 L 70.96875 19.039062 L 70.96875 18.769531 L 73.382812 18.769531 L 73.382812 19.039062 L 72.492188 19.039062 C 72.539062 19.089844 72.597656 19.132812 72.671875 19.167969 M 71.53125 18.332031 L 72.824219 18.332031 L 72.824219 18.597656 L 71.53125 18.597656 Z M 71.53125 18.332031 "/>
<path style=" stroke:none;fill-rule:nonzero;fill:rgb(0%,0%,0%);fill-opacity:1;" d="M 75.375 19.855469 C 75.417969 19.972656 75.472656 20.078125 75.539062 20.179688 C 75.617188 20.28125 75.703125 20.378906 75.804688 20.460938 C 75.902344 20.542969 76.007812 20.609375 76.117188 20.660156 C 76.0625 20.703125 76.011719 20.75 75.964844 20.796875 C 75.917969 20.847656 75.875 20.890625 75.835938 20.929688 C 75.765625 20.882812 75.695312 20.835938 75.628906 20.78125 C 75.558594 20.726562 75.488281 20.664062 75.417969 20.597656 C 75.359375 20.535156 75.304688 20.46875 75.25 20.394531 C 75.195312 20.320312 75.144531 20.238281 75.101562 20.152344 C 75.0625 20.238281 75.015625 20.320312 74.960938 20.402344 C 74.90625 20.480469 74.84375 20.558594 74.777344 20.632812 C 74.714844 20.699219 74.648438 20.761719 74.574219 20.824219 C 74.496094 20.886719 74.417969 20.945312 74.332031 21.003906 C 74.292969 20.96875 74.242188 20.925781 74.183594 20.878906 C 74.125 20.828125 74.066406 20.785156 74.003906 20.738281 C 74.128906 20.671875 74.242188 20.597656 74.351562 20.511719 C 74.457031 20.425781 74.550781 20.332031 74.628906 20.226562 C 74.707031 20.121094 74.769531 20.007812 74.8125 19.886719 C 74.859375 19.765625 74.878906 19.632812 74.878906 19.492188 L 74.878906 19.359375 L 74.195312 19.359375 L 74.195312 19.023438 L 76 19.023438 L 76 19.359375 L 75.316406 19.359375 L 75.316406 19.492188 C 75.316406 19.621094 75.335938 19.738281 75.375 19.855469 M 74.585938 18.429688 L 75.601562 18.429688 L 75.601562 18.753906 L 74.585938 18.753906 Z M 76.46875 21.578125 L 76.46875 19.996094 L 75.84375 19.996094 L 75.84375 19.65625 L 76.46875 19.65625 L 76.46875 18.378906 L 76.867188 18.378906 L 76.867188 21.578125 Z M 76.46875 21.578125 "/>
<path style=" stroke:none;fill-rule:nonzero;fill:rgb(0%,0%,0%);fill-opacity:1;" d="M 77.285156 21.226562 L 77.285156 20.886719 L 78.015625 20.886719 L 78.015625 20.238281 L 78.410156 20.238281 L 78.410156 20.886719 L 79.261719 20.886719 L 79.261719 20.234375 L 79.644531 20.234375 L 79.644531 20.886719 L 80.375 20.886719 L 80.375 21.226562 Z M 77.542969 20.097656 L 77.542969 19.765625 L 77.988281 19.765625 L 77.976562 18.855469 L 77.617188 18.855469 L 77.617188 18.519531 L 80.039062 18.519531 L 80.039062 18.855469 L 79.667969 18.855469 L 79.65625 19.765625 L 80.113281 19.765625 L 80.113281 20.097656 Z M 78.390625 19.765625 L 79.265625 19.765625 L 79.277344 18.855469 L 78.375 18.855469 Z M 78.390625 19.765625 "/>
<path style=" stroke:none;fill-rule:nonzero;fill:rgb(0%,0%,0%);fill-opacity:1;" d="M 81.910156 19.652344 C 81.945312 19.785156 81.996094 19.90625 82.058594 20.019531 C 82.140625 20.152344 82.234375 20.269531 82.347656 20.371094 C 82.460938 20.476562 82.585938 20.570312 82.726562 20.65625 C 82.667969 20.699219 82.613281 20.746094 82.558594 20.792969 C 82.507812 20.839844 82.460938 20.878906 82.425781 20.914062 C 82.363281 20.875 82.292969 20.824219 82.222656 20.761719 C 82.148438 20.703125 82.078125 20.632812 82.007812 20.5625 C 81.933594 20.484375 81.863281 20.402344 81.804688 20.316406 C 81.746094 20.226562 81.691406 20.140625 81.652344 20.050781 C 81.625 20.132812 81.585938 20.21875 81.527344 20.308594 C 81.46875 20.398438 81.40625 20.484375 81.332031 20.566406 C 81.261719 20.65625 81.183594 20.734375 81.101562 20.808594 C 81.019531 20.878906 80.941406 20.941406 80.867188 20.988281 C 80.828125 20.953125 80.777344 20.910156 80.714844 20.863281 C 80.652344 20.816406 80.589844 20.773438 80.535156 20.734375 C 80.683594 20.644531 80.816406 20.546875 80.933594 20.433594 C 81.046875 20.324219 81.144531 20.199219 81.21875 20.066406 C 81.292969 19.9375 81.347656 19.804688 81.382812 19.65625 C 81.417969 19.511719 81.4375 19.355469 81.4375 19.191406 L 81.4375 18.503906 L 81.855469 18.503906 L 81.855469 19.210938 C 81.855469 19.371094 81.871094 19.519531 81.910156 19.652344 M 83.054688 18.375 L 83.453125 18.375 L 83.453125 21.578125 L 83.054688 21.578125 Z M 83.054688 18.375 "/>
<path style=" stroke:none;fill-rule:nonzero;fill:rgb(0%,0%,0%);fill-opacity:1;" d="M 85.492188 4.59375 L 69.101562 4.59375 C 68.230469 4.597656 67.527344 5.28125 67.523438 6.125 L 67.523438 21.636719 C 67.523438 22.480469 68.230469 23.164062 69.101562 23.164062 L 85.492188 23.164062 C 86.359375 23.164062 87.0625 22.480469 87.0625 21.636719 L 87.0625 6.125 C 87.0625 5.28125 86.359375 4.59375 85.492188 4.59375 M 85.492188 22.539062 L 69.101562 22.539062 C 68.589844 22.535156 68.175781 22.136719 68.175781 21.636719 L 68.175781 17.515625 L 86.414062 17.515625 L 86.414062 21.636719 C 86.414062 22.136719 86.003906 22.535156 85.492188 22.539062 "/>
<path style=" stroke:none;fill-rule:nonzero;fill:rgb(0%,0%,0%);fill-opacity:1;" d="M 93.640625 19.128906 C 93.6875 19.234375 93.75 19.332031 93.828125 19.414062 C 93.902344 19.496094 93.992188 19.570312 94.089844 19.636719 C 94.1875 19.699219 94.285156 19.746094 94.386719 19.777344 C 94.351562 19.820312 94.308594 19.867188 94.253906 19.925781 C 94.207031 19.984375 94.164062 20.035156 94.136719 20.074219 C 94.074219 20.042969 94.011719 20.011719 93.945312 19.96875 C 93.878906 19.929688 93.8125 19.886719 93.746094 19.835938 C 93.667969 19.777344 93.597656 19.710938 93.527344 19.644531 C 93.457031 19.574219 93.402344 19.5 93.355469 19.425781 C 93.332031 19.492188 93.292969 19.5625 93.238281 19.636719 C 93.183594 19.707031 93.121094 19.777344 93.050781 19.839844 C 92.980469 19.90625 92.902344 19.96875 92.824219 20.023438 C 92.742188 20.078125 92.667969 20.121094 92.597656 20.15625 C 92.558594 20.121094 92.507812 20.078125 92.445312 20.027344 C 92.386719 19.976562 92.328125 19.933594 92.273438 19.894531 C 92.402344 19.835938 92.523438 19.765625 92.640625 19.683594 C 92.753906 19.601562 92.855469 19.507812 92.9375 19.402344 C 93 19.320312 93.050781 19.226562 93.089844 19.125 C 93.128906 19.023438 93.148438 18.917969 93.148438 18.804688 L 93.148438 18.445312 L 93.570312 18.445312 L 93.570312 18.796875 C 93.570312 18.914062 93.59375 19.023438 93.640625 19.128906 M 94.886719 20.5 C 95.082031 20.625 95.179688 20.785156 95.179688 20.972656 C 95.179688 21.167969 95.085938 21.328125 94.894531 21.453125 C 94.703125 21.574219 94.414062 21.636719 94.023438 21.636719 C 93.640625 21.636719 93.347656 21.574219 93.144531 21.453125 C 92.9375 21.328125 92.835938 21.167969 92.835938 20.972656 C 92.835938 20.785156 92.9375 20.625 93.132812 20.5 C 93.332031 20.375 93.625 20.3125 94.007812 20.3125 C 94.394531 20.3125 94.6875 20.375 94.886719 20.5 M 93.476562 21.234375 C 93.621094 21.300781 93.804688 21.332031 94.027344 21.332031 C 94.257812 21.332031 94.4375 21.300781 94.5625 21.238281 C 94.691406 21.175781 94.753906 21.089844 94.753906 20.980469 C 94.753906 20.867188 94.6875 20.78125 94.550781 20.71875 C 94.417969 20.65625 94.238281 20.625 94.011719 20.625 C 93.785156 20.625 93.605469 20.65625 93.46875 20.714844 C 93.332031 20.777344 93.265625 20.863281 93.265625 20.972656 C 93.265625 21.085938 93.335938 21.171875 93.476562 21.234375 M 95.082031 18.375 L 95.082031 19.074219 L 95.523438 19.074219 L 95.523438 19.414062 L 95.082031 19.414062 L 95.082031 20.292969 L 94.6875 20.292969 L 94.6875 18.375 Z M 95.082031 18.375 "/>
<path style=" stroke:none;fill-rule:nonzero;fill:rgb(0%,0%,0%);fill-opacity:1;" d="M 98.121094 20.082031 L 98.121094 19.382812 L 97.527344 19.382812 C 97.488281 19.5625 97.390625 19.710938 97.234375 19.824219 C 97.078125 19.941406 96.894531 20 96.683594 20 C 96.433594 20 96.226562 19.921875 96.0625 19.769531 C 95.898438 19.617188 95.816406 19.429688 95.816406 19.207031 C 95.816406 18.980469 95.898438 18.792969 96.058594 18.640625 C 96.222656 18.484375 96.429688 18.410156 96.683594 18.410156 C 96.898438 18.410156 97.085938 18.46875 97.242188 18.585938 C 97.398438 18.707031 97.492188 18.859375 97.53125 19.042969 L 98.121094 19.042969 L 98.121094 18.378906 L 98.519531 18.378906 L 98.519531 20.082031 Z M 96.335938 19.53125 C 96.421875 19.625 96.539062 19.667969 96.683594 19.667969 C 96.828125 19.667969 96.941406 19.625 97.027344 19.53125 C 97.109375 19.445312 97.152344 19.332031 97.152344 19.207031 C 97.152344 19.074219 97.109375 18.964844 97.027344 18.878906 C 96.941406 18.789062 96.828125 18.742188 96.683594 18.742188 C 96.539062 18.742188 96.421875 18.789062 96.335938 18.878906 C 96.25 18.96875 96.207031 19.078125 96.207031 19.207031 C 96.207031 19.335938 96.25 19.445312 96.335938 19.53125 M 96.289062 21.546875 L 96.289062 20.210938 L 96.675781 20.210938 L 96.675781 20.550781 L 98.125 20.550781 L 98.125 20.210938 L 98.515625 20.210938 L 98.515625 21.546875 Z M 98.125 20.871094 L 96.675781 20.871094 L 96.675781 21.226562 L 98.125 21.226562 Z M 98.125 20.871094 "/>
<path style=" stroke:none;fill-rule:nonzero;fill:rgb(0%,0%,0%);fill-opacity:1;" d="M 99.03125 20.214844 L 99.03125 19.878906 L 99.832031 19.878906 L 99.832031 19.453125 C 99.679688 19.398438 99.5625 19.328125 99.480469 19.242188 C 99.398438 19.152344 99.359375 19.058594 99.359375 18.953125 C 99.359375 18.785156 99.46875 18.644531 99.6875 18.527344 C 99.910156 18.414062 100.203125 18.355469 100.570312 18.355469 C 100.941406 18.355469 101.238281 18.414062 101.457031 18.527344 C 101.675781 18.644531 101.78125 18.789062 101.78125 18.960938 C 101.78125 19.066406 101.742188 19.160156 101.664062 19.246094 C 101.582031 19.328125 101.464844 19.398438 101.3125 19.453125 L 101.3125 19.878906 L 102.113281 19.878906 L 102.113281 20.21875 L 99.03125 20.21875 Z M 99.652344 20.601562 C 99.859375 20.488281 100.167969 20.433594 100.5625 20.433594 C 100.96875 20.433594 101.273438 20.488281 101.484375 20.605469 C 101.695312 20.71875 101.800781 20.863281 101.800781 21.039062 C 101.800781 21.207031 101.695312 21.347656 101.488281 21.464844 C 101.277344 21.582031 100.972656 21.640625 100.566406 21.640625 C 100.171875 21.640625 99.863281 21.582031 99.652344 21.464844 C 99.441406 21.347656 99.335938 21.203125 99.335938 21.035156 C 99.335938 20.859375 99.441406 20.714844 99.652344 20.601562 M 100.003906 21.261719 C 100.140625 21.316406 100.328125 21.34375 100.566406 21.34375 C 100.800781 21.34375 100.988281 21.316406 101.128906 21.261719 C 101.269531 21.207031 101.339844 21.132812 101.339844 21.039062 C 101.339844 20.941406 101.269531 20.863281 101.128906 20.808594 C 100.988281 20.753906 100.800781 20.726562 100.566406 20.726562 C 100.328125 20.726562 100.140625 20.753906 100.003906 20.808594 C 99.863281 20.863281 99.796875 20.9375 99.796875 21.035156 C 99.796875 21.128906 99.867188 21.207031 100.003906 21.261719 M 100.015625 19.171875 C 100.15625 19.230469 100.339844 19.257812 100.570312 19.257812 C 100.796875 19.257812 100.976562 19.234375 101.121094 19.179688 C 101.261719 19.125 101.332031 19.050781 101.332031 18.957031 C 101.332031 18.863281 101.261719 18.789062 101.117188 18.734375 C 100.972656 18.675781 100.789062 18.648438 100.570312 18.648438 C 100.34375 18.648438 100.160156 18.675781 100.019531 18.730469 C 99.878906 18.785156 99.808594 18.859375 99.808594 18.949219 C 99.808594 19.042969 99.878906 19.113281 100.015625 19.171875 M 100.917969 19.535156 C 100.863281 19.546875 100.808594 19.550781 100.746094 19.554688 C 100.6875 19.558594 100.628906 19.5625 100.570312 19.5625 C 100.511719 19.5625 100.449219 19.558594 100.394531 19.554688 C 100.335938 19.550781 100.28125 19.546875 100.234375 19.539062 L 100.234375 19.878906 L 100.917969 19.878906 Z M 100.917969 19.535156 "/>
<path style=" stroke:none;fill-rule:nonzero;fill:rgb(0%,0%,0%);fill-opacity:1;" d="M 102.355469 19.949219 L 102.355469 19.617188 L 104.5625 19.617188 C 104.589844 19.519531 104.617188 19.390625 104.644531 19.230469 C 104.671875 19.070312 104.691406 18.925781 104.699219 18.796875 L 102.691406 18.796875 L 102.691406 18.460938 L 105.117188 18.460938 C 105.113281 18.640625 105.09375 18.839844 105.0625 19.058594 C 105.027344 19.277344 104.992188 19.464844 104.957031 19.617188 L 105.433594 19.617188 L 105.433594 19.949219 Z M 102.75 20.300781 L 105.039062 20.300781 L 105.039062 21.539062 L 102.75 21.539062 Z M 104.640625 20.632812 L 103.148438 20.632812 L 103.148438 21.207031 L 104.640625 21.207031 Z M 104.640625 20.632812 "/>
<path style=" stroke:none;fill-rule:nonzero;fill:rgb(0%,0%,0%);fill-opacity:1;" d="M 107.050781 19.621094 C 107.082031 19.757812 107.132812 19.886719 107.199219 20.003906 C 107.273438 20.136719 107.363281 20.253906 107.476562 20.359375 C 107.585938 20.464844 107.71875 20.558594 107.871094 20.640625 C 107.820312 20.679688 107.769531 20.726562 107.714844 20.777344 C 107.660156 20.824219 107.617188 20.867188 107.582031 20.90625 C 107.511719 20.867188 107.4375 20.816406 107.363281 20.757812 C 107.289062 20.695312 107.21875 20.628906 107.148438 20.558594 C 107.070312 20.476562 107.003906 20.390625 106.941406 20.304688 C 106.878906 20.214844 106.828125 20.128906 106.792969 20.039062 C 106.761719 20.128906 106.71875 20.21875 106.664062 20.304688 C 106.609375 20.394531 106.542969 20.480469 106.476562 20.5625 C 106.402344 20.652344 106.320312 20.730469 106.238281 20.800781 C 106.15625 20.875 106.078125 20.933594 106 20.984375 C 105.960938 20.945312 105.910156 20.90625 105.851562 20.863281 C 105.792969 20.816406 105.730469 20.773438 105.664062 20.726562 C 105.8125 20.640625 105.945312 20.542969 106.0625 20.433594 C 106.179688 20.324219 106.277344 20.199219 106.355469 20.0625 C 106.429688 19.933594 106.484375 19.800781 106.523438 19.648438 C 106.5625 19.5 106.582031 19.339844 106.582031 19.167969 L 106.582031 18.902344 L 105.902344 18.902344 L 105.902344 18.574219 L 107.691406 18.574219 L 107.691406 18.902344 L 107.007812 18.902344 L 107.007812 19.183594 C 107.003906 19.335938 107.019531 19.480469 107.050781 19.621094 M 108.164062 18.375 L 108.558594 18.375 L 108.558594 21.578125 L 108.164062 21.578125 Z M 108.164062 18.375 "/>
<path style=" stroke:none;fill-rule:nonzero;fill:rgb(0%,0%,0%);fill-opacity:1;" d="M 108.894531 4.597656 L 92.507812 4.597656 C 91.636719 4.597656 90.9375 5.28125 90.933594 6.125 L 90.933594 21.636719 C 90.933594 22.480469 91.636719 23.164062 92.507812 23.164062 L 108.894531 23.164062 C 109.761719 23.164062 110.464844 22.480469 110.464844 21.636719 L 110.464844 6.125 C 110.464844 5.28125 109.761719 4.597656 108.894531 4.597656 M 108.894531 22.539062 L 92.507812 22.539062 C 91.992188 22.539062 91.582031 22.136719 91.582031 21.636719 L 91.582031 17.515625 L 109.820312 17.515625 L 109.820312 21.636719 C 109.820312 22.136719 109.40625 22.539062 108.894531 22.539062 "/>
<path style=" stroke:none;fill-rule:nonzero;fill:rgb(100%,100%,100%);fill-opacity:1;" d="M 109.628906 16.53125 L 104.765625 13.425781 C 104.886719 13.035156 104.953125 12.625 104.953125 12.195312 C 104.953125 10.304688 103.660156 8.710938 101.878906 8.195312 L 102.753906 6.726562 C 102.8125 6.628906 102.8125 6.507812 102.753906 6.40625 C 102.695312 6.304688 102.585938 6.246094 102.46875 6.246094 L 98.808594 6.246094 C 98.691406 6.246094 98.582031 6.304688 98.523438 6.40625 C 98.464844 6.507812 98.464844 6.628906 98.523438 6.726562 L 99.398438 8.195312 C 98.828125 8.359375 98.304688 8.640625 97.859375 9.003906 L 92.261719 5.417969 C 92.125 5.332031 91.988281 5.300781 91.953125 5.351562 L 91.765625 5.625 C 91.730469 5.679688 91.8125 5.789062 91.949219 5.875 L 97.441406 9.394531 C 96.746094 10.136719 96.324219 11.117188 96.324219 12.195312 C 96.324219 14.5 98.253906 16.359375 100.636719 16.359375 C 102.375 16.359375 103.867188 15.371094 104.550781 13.949219 L 109.320312 16.992188 C 109.453125 17.078125 109.59375 17.105469 109.628906 17.058594 L 109.816406 16.78125 C 109.847656 16.730469 109.765625 16.621094 109.628906 16.53125 "/>
<path style=" stroke:none;fill-rule:nonzero;fill:rgb(0%,0%,0%);fill-opacity:1;" d="M 102.582031 12 L 103.015625 10.507812 L 102.371094 10.507812 L 101.972656 12 L 101.378906 12 L 101.238281 11.4375 L 101.242188 11.4375 L 101.019531 10.511719 L 100.398438 10.511719 L 99.996094 12 L 99.414062 12 L 99.015625 10.507812 L 98.363281 10.507812 L 98.753906 12 L 97.863281 12 L 97.863281 12.574219 L 98.90625 12.574219 L 99.328125 14.199219 L 99.9375 14.199219 L 100.042969 13.816406 C 100.042969 13.8125 100.046875 13.808594 100.050781 13.804688 L 100.394531 12.574219 L 100.925781 12.574219 L 101.183594 13.613281 L 101.328125 14.199219 L 101.941406 14.199219 L 102.414062 12.574219 L 103.515625 12.574219 L 103.515625 12 Z M 99.839844 12.574219 C 99.777344 12.8125 99.71875 13.039062 99.667969 13.246094 C 99.625 13.039062 99.574219 12.808594 99.519531 12.574219 Z M 99.378906 12 L 99.378906 11.996094 Z M 100.558594 12 C 100.605469 11.824219 100.644531 11.664062 100.679688 11.507812 C 100.707031 11.664062 100.746094 11.824219 100.785156 12 Z M 101.828125 12.574219 C 101.765625 12.800781 101.710938 13.015625 101.664062 13.226562 C 101.625 13.015625 101.574219 12.796875 101.519531 12.574219 Z M 101.828125 12.574219 "/>
<path style=" stroke:none;fill-rule:nonzero;fill:rgb(100%,100%,100%);fill-opacity:1;" d="M 81.058594 14.003906 C 80.746094 11.800781 79.761719 10.652344 78.847656 10.105469 C 79.28125 9.695312 79.554688 9.121094 79.554688 8.480469 C 79.554688 7.230469 78.515625 6.214844 77.226562 6.214844 C 75.941406 6.214844 74.898438 7.230469 74.898438 8.480469 C 74.898438 9.117188 75.171875 9.695312 75.609375 10.105469 C 74.695312 10.652344 73.707031 11.800781 73.398438 14.007812 C 73.347656 14.320312 73.324219 14.613281 73.324219 14.886719 C 73.324219 15.152344 73.347656 15.394531 73.394531 15.628906 C 73.453125 15.925781 73.722656 16.140625 74.035156 16.140625 L 80.421875 16.140625 C 80.734375 16.140625 81.003906 15.921875 81.0625 15.625 C 81.109375 15.398438 81.128906 15.152344 81.128906 14.886719 C 81.128906 14.613281 81.105469 14.320312 81.058594 14.003906 "/>
<path style=" stroke:none;fill-rule:nonzero;fill:rgb(0%,0%,0%);fill-opacity:1;" d="M 31.394531 9.273438 C 31.097656 8.757812 30.695312 8.34375 30.191406 8.042969 C 29.695312 7.742188 29.128906 7.539062 28.496094 7.425781 C 27.875 7.3125 27.234375 7.257812 26.5625 7.257812 L 21.703125 7.257812 C 21.625 7.257812 21.550781 7.289062 21.496094 7.34375 C 21.4375 7.394531 21.40625 7.46875 21.40625 7.542969 L 21.40625 20.136719 C 21.40625 20.214844 21.4375 20.289062 21.496094 20.339844 C 21.550781 20.394531 21.625 20.425781 21.703125 20.425781 L 23.417969 20.425781 C 23.496094 20.425781 23.574219 20.394531 23.628906 20.339844 C 23.683594 20.289062 23.714844 20.214844 23.714844 20.136719 L 23.714844 15.390625 L 26.675781 15.390625 C 28.308594 15.390625 29.59375 15.054688 30.496094 14.34375 C 31.402344 13.628906 31.847656 12.554688 31.84375 11.222656 C 31.84375 10.457031 31.703125 9.800781 31.394531 9.273438 M 26.71875 13.320312 L 23.714844 13.320312 L 23.714844 9.332031 L 26.660156 9.332031 C 27.066406 9.332031 27.453125 9.359375 27.8125 9.414062 C 28.160156 9.464844 28.453125 9.5625 28.703125 9.703125 C 28.941406 9.839844 29.125 10.023438 29.269531 10.269531 C 29.402344 10.5 29.480469 10.828125 29.480469 11.261719 C 29.480469 11.621094 29.425781 11.925781 29.332031 12.175781 C 29.234375 12.425781 29.089844 12.625 28.882812 12.789062 C 28.675781 12.960938 28.402344 13.089844 28.046875 13.183594 C 27.691406 13.273438 27.25 13.320312 26.71875 13.320312 "/>
<path style=" stroke:none;fill-rule:nonzero;fill:rgb(0%,0%,0%);fill-opacity:1;" d="M 43.203125 18.433594 C 43.148438 18.382812 43.070312 18.351562 42.992188 18.351562 L 35.324219 18.351562 L 35.324219 14.660156 L 42.199219 14.660156 C 42.277344 14.660156 42.351562 14.628906 42.40625 14.574219 C 42.464844 14.519531 42.492188 14.449219 42.492188 14.371094 L 42.492188 12.875 C 42.492188 12.796875 42.460938 12.722656 42.40625 12.671875 C 42.351562 12.617188 42.277344 12.585938 42.199219 12.585938 L 35.324219 12.585938 L 35.324219 9.332031 L 42.707031 9.332031 C 42.785156 9.332031 42.859375 9.304688 42.914062 9.25 C 42.972656 9.195312 43.003906 9.121094 43.003906 9.046875 L 43.003906 7.546875 C 43.003906 7.472656 42.96875 7.394531 42.917969 7.34375 C 42.859375 7.289062 42.785156 7.257812 42.707031 7.257812 L 33.3125 7.257812 C 33.234375 7.257812 33.15625 7.289062 33.101562 7.34375 C 33.046875 7.394531 33.015625 7.472656 33.015625 7.546875 L 33.015625 20.140625 C 33.015625 20.214844 33.046875 20.289062 33.101562 20.34375 C 33.15625 20.394531 33.234375 20.425781 33.3125 20.425781 L 42.992188 20.425781 C 43.074219 20.425781 43.148438 20.394531 43.203125 20.34375 C 43.257812 20.289062 43.289062 20.214844 43.289062 20.140625 L 43.289062 18.640625 C 43.289062 18.5625 43.257812 18.488281 43.203125 18.433594 "/>
<path style=" stroke:none;fill-rule:nonzero;fill:rgb(0%,0%,0%);fill-opacity:1;" d="M 55.328125 7.34375 C 55.273438 7.289062 55.199219 7.257812 55.121094 7.257812 L 53.472656 7.257812 C 53.394531 7.257812 53.316406 7.289062 53.261719 7.34375 C 53.207031 7.394531 53.175781 7.46875 53.175781 7.542969 L 53.175781 16.535156 L 46.9375 7.386719 C 46.882812 7.304688 46.792969 7.257812 46.691406 7.257812 L 44.917969 7.257812 C 44.839844 7.257812 44.765625 7.289062 44.710938 7.34375 C 44.65625 7.394531 44.625 7.46875 44.625 7.542969 L 44.625 20.136719 C 44.625 20.214844 44.652344 20.289062 44.710938 20.339844 C 44.765625 20.394531 44.839844 20.425781 44.917969 20.425781 L 46.550781 20.425781 C 46.628906 20.425781 46.703125 20.394531 46.757812 20.339844 C 46.8125 20.289062 46.84375 20.214844 46.84375 20.136719 L 46.84375 11.160156 L 53.109375 20.296875 C 53.164062 20.375 53.253906 20.425781 53.355469 20.425781 L 55.121094 20.425781 C 55.199219 20.425781 55.273438 20.394531 55.328125 20.339844 C 55.382812 20.289062 55.414062 20.214844 55.414062 20.136719 L 55.414062 7.542969 C 55.417969 7.46875 55.382812 7.394531 55.328125 7.34375 "/>
<path style=" stroke:none;fill-rule:nonzero;fill:rgb(0%,69.411767%,57.647061%);fill-opacity:1;" d="M 12.457031 8.402344 C 15.128906 8.40625 17.335938 10.3125 17.726562 12.804688 C 18.640625 12.933594 19.386719 13.164062 19.980469 13.417969 C 19.976562 13.25 19.964844 13.167969 19.964844 13.167969 L 19.964844 13.164062 C 19.738281 9.324219 16.460938 6.277344 12.457031 6.277344 C 8.480469 6.277344 5.230469 9.273438 4.953125 13.066406 C 4.964844 13.316406 5.097656 13.789062 5.828125 14.136719 L 5.785156 14.125 C 6.523438 14.511719 7.675781 14.964844 9.035156 14.96875 C 10.046875 14.96875 11.398438 14.707031 12.515625 13.980469 C 13.292969 13.464844 14.1875 12.984375 15.15625 12.980469 C 15.457031 12.980469 15.753906 13.011719 16.046875 13.070312 C 16.132812 13.089844 16.210938 13.105469 16.292969 13.128906 C 16.292969 13.128906 16.566406 13.273438 16.621094 13.101562 C 16.652344 13.003906 16.621094 12.921875 16.589844 12.863281 C 16.492188 12.710938 16.253906 12.558594 16.097656 12.464844 C 15.882812 12.328125 15.648438 12.230469 15.398438 12.171875 C 14.832031 12.027344 14.226562 12.070312 13.660156 12.179688 C 13.089844 12.292969 12.523438 12.480469 12 12.722656 C 11.089844 13.144531 10.128906 13.296875 9.546875 13.296875 C 8.597656 13.296875 8.027344 12.894531 7.664062 12.488281 C 7.535156 12.339844 7.433594 12.191406 7.359375 12.0625 C 8.03125 9.945312 10.054688 8.40625 12.457031 8.402344 "/>
<path style=" stroke:none;fill-rule:nonzero;fill:rgb(0%,0%,0%);fill-opacity:1;" d="M 17.832031 13.65625 C 17.828125 13.808594 17.816406 13.933594 17.8125 13.988281 L 17.808594 13.988281 C 17.609375 16.667969 15.304688 18.789062 12.488281 18.792969 C 10.183594 18.789062 8.300781 17.558594 7.558594 15.589844 C 7.035156 15.476562 5.789062 15.15625 5.011719 14.546875 L 5.011719 14.554688 C 5.390625 18.238281 8.585938 20.914062 12.488281 20.917969 C 16.398438 20.914062 19.609375 18.015625 19.976562 14.320312 C 19.25 13.960938 18.464844 13.761719 17.832031 13.65625 "/>
<path style=" stroke:none;fill-rule:nonzero;fill:rgb(100%,100%,100%);fill-opacity:1;" d="M 26.851562 29.96875 L 24.613281 29.96875 L 24.613281 29.054688 C 24.613281 29.046875 24.609375 29.035156 24.605469 29.03125 C 24.597656 29.023438 24.589844 29.019531 24.578125 29.019531 L 23.96875 29.019531 C 23.960938 29.019531 23.949219 29.023438 23.941406 29.03125 C 23.9375 29.035156 23.933594 29.046875 23.933594 29.054688 L 23.933594 29.96875 L 22.273438 29.96875 C 22.261719 29.96875 22.253906 29.972656 22.25 29.980469 C 22.242188 29.984375 22.238281 29.992188 22.238281 30.003906 L 22.238281 30.53125 C 22.238281 30.539062 22.242188 30.546875 22.25 30.554688 C 22.253906 30.5625 22.261719 30.566406 22.273438 30.566406 L 26.851562 30.566406 C 26.859375 30.566406 26.871094 30.5625 26.875 30.554688 C 26.882812 30.546875 26.886719 30.539062 26.886719 30.53125 L 26.886719 30.003906 C 26.886719 29.992188 26.882812 29.984375 26.875 29.980469 C 26.871094 29.972656 26.859375 29.96875 26.851562 29.96875 M 25.9375 31.175781 C 25.613281 30.980469 25.152344 30.882812 24.550781 30.882812 C 23.957031 30.882812 23.5 30.980469 23.175781 31.175781 C 22.855469 31.367188 22.6875 31.628906 22.6875 31.941406 C 22.6875 32.25 22.855469 32.503906 23.179688 32.703125 C 23.503906 32.898438 23.964844 32.996094 24.554688 32.996094 C 25.15625 32.996094 25.617188 32.898438 25.941406 32.703125 C 26.257812 32.503906 26.425781 32.25 26.425781 31.941406 C 26.425781 31.628906 26.257812 31.367188 25.9375 31.175781 M 25.394531 32.320312 C 25.183594 32.40625 24.90625 32.449219 24.554688 32.449219 C 24.199219 32.449219 23.921875 32.40625 23.71875 32.320312 C 23.519531 32.234375 23.429688 32.113281 23.429688 31.933594 C 23.429688 31.773438 23.519531 31.65625 23.71875 31.566406 C 23.921875 31.480469 24.199219 31.433594 24.554688 31.433594 C 24.90625 31.433594 25.183594 31.480469 25.394531 31.566406 C 25.601562 31.65625 25.695312 31.773438 25.695312 31.933594 C 25.695312 32.109375 25.601562 32.234375 25.394531 32.320312 M 22.761719 28.542969 L 25.722656 28.542969 C 25.71875 28.726562 25.703125 28.917969 25.671875 29.117188 C 25.644531 29.328125 25.613281 29.515625 25.582031 29.675781 C 25.578125 29.6875 25.582031 29.699219 25.589844 29.703125 C 25.59375 29.714844 25.605469 29.71875 25.617188 29.71875 L 26.203125 29.722656 C 26.21875 29.722656 26.234375 29.710938 26.238281 29.695312 C 26.28125 29.445312 26.320312 29.183594 26.355469 28.90625 C 26.386719 28.628906 26.40625 28.320312 26.410156 27.984375 C 26.410156 27.972656 26.40625 27.964844 26.398438 27.957031 C 26.390625 27.953125 26.382812 27.949219 26.371094 27.949219 L 22.761719 27.949219 C 22.753906 27.949219 22.742188 27.953125 22.734375 27.957031 C 22.730469 27.964844 22.726562 27.972656 22.726562 27.984375 L 22.726562 28.511719 C 22.726562 28.519531 22.730469 28.527344 22.734375 28.535156 C 22.746094 28.539062 22.753906 28.542969 22.761719 28.542969 M 27.703125 28.542969 L 30.660156 28.542969 C 30.65625 28.726562 30.640625 28.917969 30.613281 29.117188 C 30.585938 29.328125 30.554688 29.515625 30.519531 29.675781 C 30.519531 29.6875 30.519531 29.699219 30.527344 29.703125 C 30.535156 29.714844 30.542969 29.71875 30.554688 29.71875 L 31.140625 29.722656 C 31.160156 29.722656 31.175781 29.710938 31.179688 29.695312 C 31.222656 29.445312 31.261719 29.183594 31.292969 28.90625 C 31.328125 28.628906 31.34375 28.320312 31.347656 27.984375 C 31.347656 27.972656 31.34375 27.964844 31.339844 27.957031 C 31.332031 27.953125 31.324219 27.949219 31.3125 27.949219 L 27.703125 27.949219 C 27.691406 27.949219 27.683594 27.953125 27.675781 27.957031 C 27.667969 27.964844 27.664062 27.972656 27.664062 27.984375 L 27.664062 28.511719 C 27.664062 28.519531 27.671875 28.527344 27.675781 28.535156 C 27.683594 28.539062 27.691406 28.542969 27.703125 28.542969 M 30.875 31.175781 C 30.554688 30.980469 30.089844 30.882812 29.492188 30.882812 C 28.898438 30.882812 28.441406 30.980469 28.117188 31.175781 C 27.796875 31.367188 27.625 31.628906 27.628906 31.941406 C 27.628906 32.25 27.796875 32.503906 28.117188 32.703125 C 28.445312 32.898438 28.902344 32.996094 29.496094 32.996094 C 30.09375 32.996094 30.558594 32.898438 30.878906 32.703125 C 31.199219 32.503906 31.367188 32.25 31.367188 31.941406 C 31.367188 31.628906 31.199219 31.367188 30.875 31.175781 M 30.332031 32.320312 C 30.125 32.40625 29.84375 32.449219 29.496094 32.449219 C 29.140625 32.449219 28.859375 32.40625 28.660156 32.320312 C 28.460938 32.234375 28.371094 32.113281 28.367188 31.933594 C 28.371094 31.773438 28.460938 31.65625 28.660156 31.566406 C 28.859375 31.480469 29.140625 31.433594 29.496094 31.433594 C 29.84375 31.433594 30.125 31.480469 30.332031 31.566406 C 30.542969 31.65625 30.632812 31.773438 30.636719 31.933594 C 30.632812 32.109375 30.542969 32.234375 30.332031 32.320312 M 31.789062 29.96875 L 29.554688 29.96875 L 29.554688 29.054688 C 29.554688 29.046875 29.550781 29.035156 29.542969 29.03125 C 29.535156 29.023438 29.527344 29.019531 29.519531 29.019531 L 28.910156 29.019531 C 28.898438 29.019531 28.890625 29.023438 28.882812 29.03125 C 28.875 29.035156 28.875 29.046875 28.875 29.054688 L 28.875 29.96875 L 27.210938 29.96875 C 27.203125 29.96875 27.195312 29.972656 27.1875 29.980469 C 27.179688 29.984375 27.175781 29.992188 27.175781 30.003906 L 27.175781 30.53125 C 27.175781 30.539062 27.179688 30.546875 27.1875 30.554688 C 27.195312 30.5625 27.203125 30.566406 27.210938 30.566406 L 31.789062 30.566406 C 31.800781 30.566406 31.808594 30.5625 31.816406 30.554688 C 31.820312 30.546875 31.828125 30.539062 31.828125 30.53125 L 31.828125 30.003906 C 31.828125 29.992188 31.820312 29.984375 31.816406 29.980469 C 31.808594 29.972656 31.800781 29.96875 31.789062 29.96875 M 32.710938 30.027344 L 36.269531 30.027344 C 36.277344 30.027344 36.289062 30.023438 36.292969 30.015625 C 36.300781 30.007812 36.304688 30 36.304688 29.992188 L 36.304688 29.464844 C 36.304688 29.453125 36.300781 29.445312 36.292969 29.441406 C 36.289062 29.433594 36.277344 29.429688 36.269531 29.429688 L 33.328125 29.429688 L 33.328125 27.992188 C 33.328125 27.984375 33.324219 27.976562 33.320312 27.96875 C 33.3125 27.960938 33.300781 27.957031 33.292969 27.957031 L 32.710938 27.957031 C 32.703125 27.957031 32.695312 27.960938 32.6875 27.96875 C 32.679688 27.976562 32.675781 27.984375 32.675781 27.992188 L 32.675781 29.992188 C 32.675781 30 32.679688 30.007812 32.6875 30.015625 C 32.695312 30.023438 32.703125 30.027344 32.710938 30.027344 M 36.730469 30.585938 L 32.152344 30.585938 C 32.144531 30.585938 32.132812 30.589844 32.128906 30.597656 C 32.121094 30.601562 32.117188 30.609375 32.117188 30.621094 L 32.117188 31.144531 C 32.117188 31.152344 32.121094 31.160156 32.128906 31.167969 C 32.136719 31.175781 32.144531 31.179688 32.152344 31.179688 L 34.109375 31.179688 L 34.109375 32.867188 C 34.109375 32.875 34.113281 32.882812 34.121094 32.890625 C 34.128906 32.894531 34.136719 32.902344 34.144531 32.902344 L 34.75 32.902344 C 34.757812 32.902344 34.765625 32.894531 34.773438 32.890625 C 34.78125 32.882812 34.785156 32.875 34.785156 32.867188 L 34.785156 31.175781 L 36.730469 31.175781 C 36.742188 31.175781 36.75 31.171875 36.757812 31.167969 C 36.761719 31.160156 36.765625 31.152344 36.765625 31.140625 L 36.765625 30.621094 C 36.765625 30.609375 36.761719 30.601562 36.757812 30.597656 C 36.75 30.589844 36.738281 30.585938 36.730469 30.585938 M 40.425781 30.984375 C 40.265625 31.011719 40.019531 31.042969 39.691406 31.082031 C 39.367188 31.117188 39.078125 31.136719 38.832031 31.136719 L 38.105469 31.136719 L 38.105469 30.183594 L 39.777344 30.183594 C 39.789062 30.183594 39.796875 30.179688 39.800781 30.171875 C 39.808594 30.167969 39.8125 30.160156 39.8125 30.148438 L 39.8125 28.113281 C 39.8125 28.101562 39.808594 28.09375 39.800781 28.085938 C 39.796875 28.082031 39.785156 28.078125 39.777344 28.078125 L 37.480469 28.078125 C 37.472656 28.078125 37.464844 28.078125 37.457031 28.085938 C 37.449219 28.09375 37.445312 28.101562 37.445312 28.113281 L 37.445312 28.640625 C 37.445312 28.648438 37.449219 28.65625 37.457031 28.664062 C 37.464844 28.671875 37.472656 28.675781 37.480469 28.675781 L 39.152344 28.675781 L 39.152344 29.597656 L 37.480469 29.597656 C 37.472656 29.597656 37.464844 29.601562 37.457031 29.609375 C 37.449219 29.613281 37.445312 29.625 37.445312 29.632812 L 37.445312 31.710938 C 37.445312 31.71875 37.449219 31.726562 37.457031 31.734375 C 37.464844 31.742188 37.472656 31.746094 37.480469 31.746094 C 37.488281 31.746094 37.664062 31.742188 38.015625 31.738281 C 38.367188 31.734375 38.582031 31.734375 38.667969 31.734375 C 38.992188 31.726562 39.324219 31.703125 39.667969 31.667969 C 40.011719 31.632812 40.265625 31.601562 40.433594 31.574219 C 40.453125 31.574219 40.464844 31.558594 40.464844 31.542969 L 40.464844 31.019531 C 40.464844 31.007812 40.460938 31 40.453125 30.992188 C 40.445312 30.988281 40.433594 30.984375 40.425781 30.984375 M 41.285156 27.828125 C 41.277344 27.820312 41.269531 27.816406 41.257812 27.816406 L 40.664062 27.816406 C 40.65625 27.816406 40.648438 27.820312 40.640625 27.828125 C 40.632812 27.835938 40.628906 27.84375 40.628906 27.851562 L 40.628906 32.867188 C 40.628906 32.875 40.632812 32.882812 40.640625 32.890625 C 40.648438 32.898438 40.65625 32.902344 40.664062 32.902344 L 41.257812 32.902344 C 41.269531 32.902344 41.277344 32.898438 41.285156 32.890625 C 41.289062 32.882812 41.292969 32.875 41.292969 32.867188 L 41.292969 27.851562 C 41.292969 27.84375 41.289062 27.835938 41.285156 27.828125 "/>
<path style=" stroke:none;fill-rule:nonzero;fill:rgb(100%,100%,100%);fill-opacity:1;" d="M 68.742188 30.464844 L 68.742188 30.121094 L 70.34375 30.121094 L 70.34375 29.210938 L 70.769531 29.210938 L 70.769531 30.121094 L 72.898438 30.121094 L 72.898438 30.464844 Z M 69.609375 32.34375 C 69.328125 32.179688 69.1875 31.972656 69.1875 31.726562 C 69.1875 31.476562 69.328125 31.273438 69.609375 31.109375 C 69.894531 30.945312 70.296875 30.863281 70.816406 30.863281 C 71.34375 30.863281 71.746094 30.945312 72.027344 31.109375 C 72.308594 31.269531 72.449219 31.476562 72.449219 31.726562 C 72.449219 31.972656 72.308594 32.179688 72.027344 32.34375 C 71.746094 32.511719 71.34375 32.59375 70.816406 32.59375 C 70.296875 32.59375 69.894531 32.511719 69.609375 32.34375 M 72.429688 28.320312 C 72.425781 28.59375 72.40625 28.859375 72.367188 29.121094 C 72.332031 29.378906 72.289062 29.609375 72.242188 29.8125 L 71.84375 29.8125 C 71.878906 29.65625 71.914062 29.472656 71.945312 29.257812 C 71.976562 29.042969 71.992188 28.84375 71.992188 28.664062 L 69.226562 28.664062 L 69.226562 28.320312 Z M 69.964844 32.132812 C 70.179688 32.222656 70.464844 32.269531 70.816406 32.269531 C 71.164062 32.269531 71.449219 32.222656 71.667969 32.132812 C 71.886719 32.039062 71.992188 31.902344 71.992188 31.722656 C 71.992188 31.546875 71.886719 31.414062 71.667969 31.324219 C 71.449219 31.234375 71.164062 31.1875 70.816406 31.1875 C 70.464844 31.1875 70.179688 31.234375 69.964844 31.324219 C 69.746094 31.414062 69.640625 31.546875 69.640625 31.722656 C 69.640625 31.902344 69.746094 32.039062 69.964844 32.132812 "/>
<path style=" stroke:none;fill-rule:nonzero;fill:rgb(100%,100%,100%);fill-opacity:1;" d="M 74.453125 30.464844 L 74.453125 30.121094 L 76.054688 30.121094 L 76.054688 29.210938 L 76.476562 29.210938 L 76.476562 30.121094 L 78.605469 30.121094 L 78.605469 30.464844 Z M 75.320312 32.34375 C 75.039062 32.179688 74.894531 31.972656 74.894531 31.726562 C 74.894531 31.476562 75.039062 31.273438 75.320312 31.109375 C 75.601562 30.945312 76.007812 30.863281 76.527344 30.863281 C 77.054688 30.863281 77.457031 30.945312 77.738281 31.109375 C 78.015625 31.269531 78.160156 31.476562 78.160156 31.726562 C 78.160156 31.972656 78.015625 32.179688 77.738281 32.34375 C 77.457031 32.511719 77.054688 32.59375 76.527344 32.59375 C 76.007812 32.59375 75.601562 32.511719 75.320312 32.34375 M 78.140625 28.320312 C 78.136719 28.59375 78.113281 28.859375 78.078125 29.121094 C 78.042969 29.378906 78 29.609375 77.953125 29.8125 L 77.554688 29.8125 C 77.589844 29.65625 77.625 29.472656 77.65625 29.257812 C 77.683594 29.042969 77.703125 28.84375 77.703125 28.664062 L 74.9375 28.664062 L 74.9375 28.320312 Z M 75.675781 32.132812 C 75.890625 32.222656 76.175781 32.269531 76.527344 32.269531 C 76.875 32.269531 77.160156 32.222656 77.378906 32.132812 C 77.59375 32.039062 77.703125 31.902344 77.703125 31.722656 C 77.703125 31.546875 77.59375 31.414062 77.378906 31.324219 C 77.160156 31.234375 76.875 31.1875 76.527344 31.1875 C 76.175781 31.1875 75.890625 31.234375 75.675781 31.324219 C 75.457031 31.414062 75.351562 31.546875 75.351562 31.722656 C 75.351562 31.902344 75.457031 32.039062 75.675781 32.132812 "/>
<path style=" stroke:none;fill-rule:nonzero;fill:rgb(100%,100%,100%);fill-opacity:1;" d="M 81.972656 29.839844 C 82.023438 30.03125 82.097656 30.210938 82.195312 30.375 C 82.296875 30.554688 82.429688 30.714844 82.585938 30.863281 C 82.746094 31.007812 82.933594 31.144531 83.144531 31.265625 C 83.089844 31.304688 83.035156 31.351562 82.980469 31.40625 C 82.921875 31.460938 82.871094 31.507812 82.832031 31.550781 C 82.71875 31.480469 82.609375 31.402344 82.5 31.308594 C 82.390625 31.21875 82.289062 31.121094 82.195312 31.019531 C 82.082031 30.898438 81.984375 30.773438 81.894531 30.640625 C 81.808594 30.503906 81.734375 30.367188 81.679688 30.226562 C 81.640625 30.355469 81.582031 30.492188 81.503906 30.628906 C 81.425781 30.761719 81.332031 30.894531 81.230469 31.019531 C 81.125 31.148438 81.015625 31.269531 80.894531 31.382812 C 80.773438 31.496094 80.652344 31.589844 80.539062 31.667969 C 80.492188 31.625 80.4375 31.582031 80.367188 31.53125 C 80.296875 31.480469 80.230469 31.433594 80.164062 31.394531 C 80.371094 31.269531 80.554688 31.128906 80.71875 30.972656 C 80.882812 30.816406 81.019531 30.644531 81.125 30.457031 C 81.234375 30.269531 81.320312 30.070312 81.378906 29.851562 C 81.433594 29.636719 81.464844 29.40625 81.464844 29.160156 L 81.464844 28.808594 L 80.496094 28.808594 L 80.496094 28.464844 L 82.886719 28.464844 L 82.886719 28.808594 L 81.898438 28.808594 L 81.898438 29.222656 C 81.898438 29.441406 81.925781 29.648438 81.972656 29.839844 M 83.613281 32.507812 L 83.613281 29.933594 L 82.65625 29.933594 L 82.65625 29.570312 L 83.613281 29.570312 L 83.613281 28.195312 L 84.039062 28.195312 L 84.039062 32.507812 Z M 83.613281 32.507812 "/>
<path style=" stroke:none;fill-rule:nonzero;fill:rgb(100%,100%,100%);fill-opacity:1;" d="M 87.628906 29.320312 C 87.6875 29.457031 87.769531 29.585938 87.871094 29.695312 C 87.980469 29.816406 88.105469 29.917969 88.253906 30.007812 C 88.402344 30.09375 88.554688 30.164062 88.710938 30.214844 C 88.660156 30.261719 88.613281 30.308594 88.5625 30.363281 C 88.511719 30.417969 88.46875 30.46875 88.4375 30.511719 C 88.335938 30.46875 88.230469 30.414062 88.113281 30.351562 C 88 30.285156 87.890625 30.210938 87.785156 30.121094 C 87.691406 30.046875 87.605469 29.96875 87.523438 29.882812 C 87.445312 29.792969 87.375 29.699219 87.320312 29.597656 C 87.28125 29.699219 87.230469 29.796875 87.160156 29.890625 C 87.089844 29.988281 87.011719 30.078125 86.925781 30.160156 C 86.824219 30.257812 86.707031 30.347656 86.585938 30.429688 C 86.457031 30.507812 86.332031 30.578125 86.207031 30.640625 C 86.171875 30.605469 86.121094 30.5625 86.054688 30.507812 C 85.992188 30.457031 85.929688 30.410156 85.875 30.371094 C 86.058594 30.292969 86.234375 30.199219 86.398438 30.089844 C 86.558594 29.980469 86.699219 29.851562 86.8125 29.703125 C 86.898438 29.589844 86.972656 29.460938 87.023438 29.316406 C 87.074219 29.171875 87.101562 29.015625 87.101562 28.847656 L 87.101562 28.734375 L 86.207031 28.734375 L 86.207031 28.390625 L 88.425781 28.390625 L 88.425781 28.734375 L 87.539062 28.734375 L 87.539062 28.863281 C 87.539062 29.03125 87.570312 29.183594 87.628906 29.320312 M 89.144531 32.535156 L 89.144531 31.34375 L 86.601562 31.34375 L 86.601562 30.992188 L 89.558594 30.992188 L 89.558594 32.535156 Z M 89.558594 29.570312 L 89.558594 30.792969 L 89.144531 30.792969 L 89.144531 28.195312 L 89.558594 28.195312 L 89.558594 29.210938 L 90.1875 29.210938 L 90.1875 29.570312 Z M 89.558594 29.570312 "/>
<path style=" stroke:none;fill-rule:nonzero;fill:rgb(100%,100%,100%);fill-opacity:1;" d="M 93.867188 30.292969 L 93.867188 30.730469 L 95.183594 30.730469 L 95.183594 31.742188 L 92.59375 31.742188 L 92.59375 32.152344 L 95.285156 32.152344 L 95.285156 32.46875 L 92.136719 32.46875 L 92.136719 31.4375 L 94.730469 31.4375 L 94.730469 31.046875 L 92.136719 31.046875 L 92.136719 30.730469 L 93.4375 30.730469 L 93.4375 30.292969 L 91.582031 30.292969 L 91.582031 29.96875 L 95.738281 29.96875 L 95.738281 30.292969 Z M 92.128906 28.316406 L 95.191406 28.316406 L 95.191406 29.605469 L 92.128906 29.605469 Z M 94.78125 28.636719 L 92.53125 28.636719 L 92.53125 29.285156 L 94.78125 29.285156 Z M 94.78125 28.636719 "/>
<path style=" stroke:none;fill-rule:nonzero;fill:rgb(100%,100%,100%);fill-opacity:1;" d="M 101.714844 29.839844 C 101.765625 30.03125 101.839844 30.210938 101.933594 30.375 C 102.042969 30.554688 102.171875 30.714844 102.332031 30.863281 C 102.488281 31.007812 102.675781 31.144531 102.890625 31.265625 C 102.839844 31.304688 102.785156 31.351562 102.726562 31.40625 C 102.667969 31.460938 102.617188 31.507812 102.578125 31.550781 C 102.464844 31.480469 102.355469 31.402344 102.242188 31.308594 C 102.132812 31.21875 102.03125 31.121094 101.933594 31.019531 C 101.824219 30.898438 101.726562 30.773438 101.636719 30.640625 C 101.550781 30.503906 101.476562 30.367188 101.421875 30.226562 C 101.386719 30.355469 101.328125 30.492188 101.246094 30.628906 C 101.167969 30.761719 101.078125 30.894531 100.972656 31.019531 C 100.871094 31.148438 100.757812 31.269531 100.640625 31.382812 C 100.519531 31.496094 100.398438 31.589844 100.285156 31.667969 C 100.238281 31.625 100.179688 31.582031 100.113281 31.53125 C 100.042969 31.480469 99.976562 31.433594 99.90625 31.394531 C 100.113281 31.269531 100.300781 31.128906 100.460938 30.976562 C 100.617188 30.820312 100.753906 30.648438 100.867188 30.460938 C 100.976562 30.277344 101.0625 30.074219 101.121094 29.855469 C 101.179688 29.636719 101.207031 29.40625 101.207031 29.160156 L 101.207031 28.808594 L 100.246094 28.808594 L 100.246094 28.464844 L 102.632812 28.464844 L 102.632812 28.808594 L 101.640625 28.808594 L 101.640625 29.222656 C 101.640625 29.441406 101.664062 29.648438 101.714844 29.839844 M 103.605469 28.195312 L 103.605469 29.867188 L 104.273438 29.867188 L 104.273438 30.230469 L 103.605469 30.230469 L 103.605469 32.511719 L 103.1875 32.511719 L 103.1875 28.195312 Z M 103.605469 28.195312 "/>
<path style=" stroke:none;fill-rule:nonzero;fill:rgb(100%,100%,100%);fill-opacity:1;" d="M 108.679688 30.996094 L 108.679688 32.507812 L 108.253906 32.507812 L 108.253906 30.996094 L 107.152344 30.996094 L 107.152344 32.472656 L 106.726562 32.472656 L 106.726562 31 L 105.617188 31 L 105.617188 30.644531 L 109.769531 30.644531 L 109.769531 30.996094 Z M 106.511719 29.9375 C 106.222656 29.746094 106.078125 29.511719 106.078125 29.230469 C 106.078125 28.949219 106.222656 28.714844 106.507812 28.519531 C 106.796875 28.328125 107.1875 28.234375 107.691406 28.234375 C 108.195312 28.234375 108.59375 28.328125 108.878906 28.519531 C 109.164062 28.710938 109.304688 28.945312 109.304688 29.230469 C 109.304688 29.507812 109.164062 29.742188 108.878906 29.933594 C 108.59375 30.125 108.195312 30.21875 107.691406 30.21875 C 107.191406 30.21875 106.800781 30.125 106.511719 29.9375 M 106.855469 29.695312 C 107.078125 29.808594 107.359375 29.867188 107.691406 29.867188 C 108.023438 29.867188 108.300781 29.8125 108.523438 29.699219 C 108.742188 29.585938 108.851562 29.433594 108.851562 29.242188 C 108.851562 29.039062 108.742188 28.878906 108.523438 28.761719 C 108.304688 28.644531 108.027344 28.585938 107.691406 28.585938 C 107.355469 28.585938 107.074219 28.644531 106.851562 28.757812 C 106.628906 28.875 106.519531 29.03125 106.519531 29.230469 C 106.519531 29.425781 106.632812 29.578125 106.855469 29.695312 "/>
<path style=" stroke:none;fill-rule:nonzero;fill:rgb(100%,100%,100%);fill-opacity:1;" d="M 111.679688 28.710938 C 111.914062 28.449219 112.164062 28.320312 112.4375 28.320312 C 112.71875 28.320312 112.972656 28.449219 113.203125 28.710938 C 113.429688 28.972656 113.546875 29.390625 113.546875 29.957031 C 113.546875 30.515625 113.433594 30.929688 113.207031 31.199219 C 112.980469 31.464844 112.722656 31.601562 112.4375 31.601562 C 112.15625 31.601562 111.898438 31.464844 111.671875 31.199219 C 111.441406 30.933594 111.328125 30.519531 111.328125 29.957031 C 111.328125 29.386719 111.445312 28.96875 111.679688 28.710938 M 111.921875 30.851562 C 112.042969 31.113281 112.21875 31.242188 112.441406 31.242188 C 112.667969 31.242188 112.839844 31.113281 112.957031 30.851562 C 113.074219 30.59375 113.132812 30.292969 113.132812 29.953125 C 113.132812 29.625 113.074219 29.328125 112.957031 29.070312 C 112.839844 28.808594 112.667969 28.679688 112.441406 28.679688 C 112.21875 28.679688 112.042969 28.808594 111.921875 29.070312 C 111.796875 29.332031 111.734375 29.628906 111.734375 29.953125 C 111.734375 30.292969 111.796875 30.59375 111.921875 30.851562 M 114.4375 28.195312 L 114.859375 28.195312 L 114.859375 32.507812 L 114.4375 32.507812 Z M 114.4375 28.195312 "/>
<path style=" stroke:none;fill-rule:nonzero;fill:rgb(100%,100%,100%);fill-opacity:1;" d="M 117.035156 30.65625 L 117.035156 30.3125 L 118.167969 30.3125 L 118.167969 29.671875 C 117.957031 29.597656 117.796875 29.5 117.683594 29.378906 C 117.574219 29.257812 117.519531 29.125 117.519531 28.984375 C 117.519531 28.753906 117.660156 28.5625 117.9375 28.402344 C 118.214844 28.242188 118.605469 28.164062 119.105469 28.164062 C 119.617188 28.164062 120.015625 28.246094 120.292969 28.40625 C 120.574219 28.570312 120.710938 28.765625 120.710938 28.992188 C 120.710938 29.132812 120.660156 29.261719 120.550781 29.382812 C 120.441406 29.503906 120.28125 29.597656 120.070312 29.671875 L 120.070312 30.3125 L 121.191406 30.3125 L 121.191406 30.65625 Z M 117.90625 31.207031 C 118.1875 31.054688 118.589844 30.980469 119.113281 30.980469 C 119.636719 30.980469 120.039062 31.058594 120.320312 31.210938 C 120.597656 31.363281 120.738281 31.558594 120.738281 31.789062 C 120.738281 32.015625 120.597656 32.207031 120.320312 32.363281 C 120.042969 32.515625 119.640625 32.59375 119.113281 32.59375 C 118.589844 32.59375 118.1875 32.515625 117.90625 32.363281 C 117.625 32.207031 117.488281 32.015625 117.488281 31.785156 C 117.488281 31.550781 117.625 31.355469 117.90625 31.207031 M 118.265625 32.148438 C 118.476562 32.234375 118.761719 32.277344 119.113281 32.277344 C 119.457031 32.277344 119.738281 32.234375 119.949219 32.148438 C 120.164062 32.0625 120.269531 31.941406 120.269531 31.789062 C 120.269531 31.628906 120.164062 31.503906 119.949219 31.417969 C 119.738281 31.328125 119.457031 31.285156 119.113281 31.285156 C 118.761719 31.285156 118.476562 31.328125 118.265625 31.417969 C 118.054688 31.503906 117.949219 31.625 117.949219 31.785156 C 117.949219 31.941406 118.054688 32.0625 118.265625 32.148438 M 118.28125 29.34375 C 118.488281 29.441406 118.765625 29.488281 119.105469 29.488281 C 119.445312 29.488281 119.722656 29.441406 119.9375 29.351562 C 120.152344 29.257812 120.257812 29.136719 120.257812 28.988281 C 120.257812 28.835938 120.152344 28.714844 119.9375 28.617188 C 119.722656 28.523438 119.445312 28.476562 119.105469 28.476562 C 118.769531 28.476562 118.492188 28.519531 118.285156 28.613281 C 118.074219 28.703125 117.96875 28.828125 117.96875 28.980469 C 117.96875 29.128906 118.074219 29.25 118.28125 29.34375 M 119.660156 29.757812 C 119.582031 29.777344 119.492188 29.789062 119.398438 29.796875 C 119.304688 29.804688 119.207031 29.808594 119.105469 29.808594 C 119.015625 29.808594 118.921875 29.804688 118.832031 29.796875 C 118.738281 29.789062 118.65625 29.777344 118.582031 29.765625 L 118.582031 30.3125 L 119.660156 30.3125 Z M 119.660156 29.757812 "/>
<path style=" stroke:none;fill-rule:nonzero;fill:rgb(100%,100%,100%);fill-opacity:1;" d="M 122.746094 28.992188 L 125.335938 28.992188 L 125.335938 29.34375 L 122.746094 29.34375 Z M 123.230469 29.96875 C 123.441406 29.765625 123.714844 29.664062 124.054688 29.664062 C 124.378906 29.664062 124.648438 29.765625 124.859375 29.96875 C 125.070312 30.175781 125.175781 30.417969 125.175781 30.695312 C 125.175781 30.964844 125.070312 31.207031 124.859375 31.421875 C 124.648438 31.636719 124.378906 31.742188 124.054688 31.742188 C 123.722656 31.742188 123.449219 31.636719 123.238281 31.425781 C 123.023438 31.21875 122.917969 30.972656 122.917969 30.695312 C 122.917969 30.417969 123.023438 30.175781 123.230469 29.96875 M 123.535156 31.191406 C 123.660156 31.324219 123.832031 31.390625 124.054688 31.390625 C 124.269531 31.390625 124.441406 31.324219 124.5625 31.1875 C 124.6875 31.054688 124.746094 30.886719 124.746094 30.695312 C 124.746094 30.503906 124.6875 30.339844 124.5625 30.207031 C 124.441406 30.074219 124.269531 30.007812 124.054688 30.007812 C 123.832031 30.007812 123.660156 30.074219 123.535156 30.207031 C 123.414062 30.339844 123.351562 30.503906 123.351562 30.695312 C 123.351562 30.890625 123.410156 31.058594 123.535156 31.191406 M 123.371094 28.289062 L 124.71875 28.289062 L 124.71875 28.628906 L 123.371094 28.628906 Z M 126.007812 32.507812 L 126.007812 30.363281 L 125.265625 30.363281 L 125.265625 30 L 126.007812 30 L 126.007812 28.195312 L 126.429688 28.195312 L 126.429688 32.507812 Z M 126.007812 32.507812 "/>
<path style=" stroke:none;fill-rule:nonzero;fill:rgb(100%,100%,100%);fill-opacity:1;" d="M 131.1875 30.472656 C 131.023438 30.5 130.785156 30.53125 130.460938 30.5625 C 130.136719 30.597656 129.84375 30.617188 129.578125 30.621094 C 129.40625 30.625 129.179688 30.628906 128.898438 30.632812 C 128.617188 30.636719 128.472656 30.636719 128.457031 30.636719 L 128.457031 29.304688 L 130.101562 29.304688 L 130.101562 28.695312 L 128.457031 28.695312 L 128.457031 28.355469 L 130.511719 28.355469 L 130.511719 29.632812 L 128.863281 29.632812 L 128.863281 30.289062 L 129.628906 30.277344 C 129.835938 30.273438 130.101562 30.257812 130.433594 30.226562 C 130.761719 30.195312 131.011719 30.164062 131.183594 30.132812 L 131.183594 30.472656 Z M 131.375 32.535156 L 131.375 31.421875 L 128.835938 31.421875 L 128.835938 31.070312 L 131.804688 31.070312 L 131.804688 32.535156 Z M 131.804688 29.574219 L 131.804688 30.867188 L 131.386719 30.867188 L 131.386719 28.195312 L 131.804688 28.195312 L 131.804688 29.222656 L 132.417969 29.222656 L 132.417969 29.574219 Z M 131.804688 29.574219 "/>
</g>
</svg>
