<?xml version="1.0" encoding="UTF-8"?>
<svg xmlns="http://www.w3.org/2000/svg" xmlns:xlink="http://www.w3.org/1999/xlink" width="119px" height="35px" viewBox="0 0 119 35" version="1.1">
<g id="surface1">
<path style=" stroke:none;fill-rule:nonzero;fill:rgb(0%,0%,0%);fill-opacity:1;" d="M 115.402344 0.140625 L 3.285156 0.140625 C 1.515625 0.140625 0.0859375 1.527344 0.0820312 3.238281 L 0.0820312 34.625 L 118.605469 34.625 L 118.605469 26.851562 C 118.609375 26.839844 118.605469 26.824219 118.605469 26.8125 L 118.605469 3.238281 C 118.605469 1.527344 117.171875 0.140625 115.402344 0.140625 M 1.425781 3.238281 C 1.425781 2.242188 2.257812 1.4375 3.285156 1.4375 L 59.984375 1.4375 L 59.984375 26.164062 L 1.425781 26.164062 Z M 117.265625 26.164062 L 61.324219 26.164062 L 61.324219 1.4375 L 115.402344 1.4375 C 116.429688 1.4375 117.261719 2.246094 117.265625 3.242188 Z M 117.265625 26.164062 "/>
<path style=" stroke:none;fill-rule:nonzero;fill:rgb(0%,0%,0%);fill-opacity:1;" d="M 72.5 20.046875 L 72.5 20.296875 L 73.4375 20.296875 L 73.4375 21.042969 L 71.566406 21.042969 L 71.566406 21.253906 L 73.519531 21.253906 L 73.519531 21.535156 L 71.132812 21.535156 L 71.132812 20.78125 L 73.007812 20.78125 L 73.007812 20.574219 L 71.132812 20.574219 L 71.132812 20.296875 L 72.058594 20.296875 L 72.058594 20.046875 L 70.742188 20.046875 L 70.742188 19.757812 L 73.832031 19.757812 L 73.832031 20.046875 Z M 72.777344 19.140625 C 72.851562 19.175781 72.933594 19.207031 73.023438 19.230469 C 73.121094 19.257812 73.230469 19.277344 73.339844 19.292969 C 73.453125 19.308594 73.5625 19.320312 73.667969 19.332031 C 73.632812 19.367188 73.59375 19.414062 73.550781 19.472656 C 73.503906 19.527344 73.46875 19.578125 73.441406 19.621094 C 73.347656 19.609375 73.25 19.59375 73.144531 19.570312 C 73.039062 19.550781 72.9375 19.527344 72.835938 19.496094 C 72.71875 19.460938 72.613281 19.417969 72.515625 19.367188 C 72.417969 19.316406 72.339844 19.261719 72.285156 19.199219 C 72.230469 19.253906 72.164062 19.304688 72.078125 19.347656 C 71.996094 19.394531 71.902344 19.433594 71.800781 19.464844 C 71.695312 19.503906 71.589844 19.53125 71.472656 19.558594 C 71.359375 19.582031 71.242188 19.605469 71.125 19.621094 C 71.09375 19.574219 71.058594 19.523438 71.015625 19.476562 C 70.976562 19.429688 70.933594 19.382812 70.894531 19.332031 C 71.007812 19.320312 71.125 19.308594 71.234375 19.289062 C 71.34375 19.273438 71.449219 19.253906 71.542969 19.230469 C 71.640625 19.203125 71.726562 19.171875 71.796875 19.136719 C 71.871094 19.101562 71.925781 19.0625 71.964844 19.015625 L 71.066406 19.015625 L 71.066406 18.742188 L 73.492188 18.742188 L 73.492188 19.015625 L 72.597656 19.015625 C 72.644531 19.066406 72.703125 19.109375 72.777344 19.140625 M 71.628906 18.304688 L 72.929688 18.304688 L 72.929688 18.574219 L 71.628906 18.574219 Z M 71.628906 18.304688 "/>
<path style=" stroke:none;fill-rule:nonzero;fill:rgb(0%,0%,0%);fill-opacity:1;" d="M 75.492188 19.832031 C 75.535156 19.945312 75.589844 20.054688 75.65625 20.152344 C 75.734375 20.257812 75.824219 20.351562 75.921875 20.433594 C 76.023438 20.515625 76.128906 20.582031 76.238281 20.632812 C 76.183594 20.679688 76.132812 20.726562 76.085938 20.773438 C 76.039062 20.820312 75.992188 20.863281 75.953125 20.902344 C 75.882812 20.859375 75.816406 20.808594 75.746094 20.753906 C 75.675781 20.699219 75.605469 20.640625 75.535156 20.574219 C 75.476562 20.511719 75.417969 20.441406 75.367188 20.367188 C 75.3125 20.292969 75.261719 20.214844 75.21875 20.128906 C 75.175781 20.214844 75.128906 20.296875 75.074219 20.375 C 75.019531 20.457031 74.960938 20.535156 74.890625 20.609375 C 74.828125 20.675781 74.761719 20.738281 74.683594 20.800781 C 74.609375 20.859375 74.53125 20.917969 74.445312 20.976562 C 74.40625 20.941406 74.355469 20.898438 74.296875 20.851562 C 74.234375 20.804688 74.175781 20.757812 74.113281 20.710938 C 74.238281 20.648438 74.351562 20.574219 74.460938 20.484375 C 74.570312 20.398438 74.664062 20.304688 74.742188 20.203125 C 74.820312 20.097656 74.882812 19.984375 74.925781 19.863281 C 74.972656 19.738281 74.996094 19.609375 74.996094 19.46875 L 74.996094 19.335938 L 74.304688 19.335938 L 74.304688 18.996094 L 76.117188 18.996094 L 76.117188 19.335938 L 75.433594 19.335938 L 75.433594 19.46875 C 75.429688 19.59375 75.453125 19.714844 75.492188 19.832031 M 74.699219 18.40625 L 75.71875 18.40625 L 75.71875 18.726562 L 74.699219 18.726562 Z M 76.589844 21.554688 L 76.589844 19.96875 L 75.960938 19.96875 L 75.960938 19.632812 L 76.589844 19.632812 L 76.589844 18.351562 L 76.988281 18.351562 L 76.988281 21.554688 Z M 76.589844 21.554688 "/>
<path style=" stroke:none;fill-rule:nonzero;fill:rgb(0%,0%,0%);fill-opacity:1;" d="M 77.410156 21.199219 L 77.410156 20.863281 L 78.140625 20.863281 L 78.140625 20.214844 L 78.539062 20.214844 L 78.539062 20.863281 L 79.390625 20.863281 L 79.390625 20.210938 L 79.78125 20.210938 L 79.78125 20.863281 L 80.511719 20.863281 L 80.511719 21.199219 Z M 77.667969 20.074219 L 77.667969 19.738281 L 78.117188 19.738281 L 78.105469 18.832031 L 77.742188 18.832031 L 77.742188 18.496094 L 80.171875 18.496094 L 80.171875 18.832031 L 79.804688 18.832031 L 79.792969 19.738281 L 80.246094 19.738281 L 80.246094 20.074219 Z M 78.519531 19.738281 L 79.398438 19.738281 L 79.410156 18.832031 L 78.503906 18.832031 Z M 78.519531 19.738281 "/>
<path style=" stroke:none;fill-rule:nonzero;fill:rgb(0%,0%,0%);fill-opacity:1;" d="M 82.054688 19.628906 C 82.089844 19.757812 82.140625 19.882812 82.203125 19.992188 C 82.285156 20.125 82.378906 20.242188 82.492188 20.347656 C 82.605469 20.453125 82.730469 20.546875 82.871094 20.628906 C 82.816406 20.675781 82.757812 20.722656 82.707031 20.769531 C 82.652344 20.8125 82.609375 20.855469 82.570312 20.890625 C 82.507812 20.851562 82.4375 20.800781 82.367188 20.738281 C 82.292969 20.675781 82.222656 20.609375 82.148438 20.535156 C 82.074219 20.460938 82.007812 20.378906 81.949219 20.289062 C 81.886719 20.203125 81.835938 20.113281 81.792969 20.027344 C 81.769531 20.109375 81.726562 20.191406 81.667969 20.285156 C 81.613281 20.375 81.546875 20.460938 81.476562 20.542969 C 81.402344 20.628906 81.324219 20.710938 81.238281 20.78125 C 81.15625 20.855469 81.078125 20.914062 81.007812 20.964844 C 80.96875 20.925781 80.917969 20.886719 80.855469 20.835938 C 80.792969 20.789062 80.730469 20.746094 80.671875 20.707031 C 80.820312 20.621094 80.957031 20.519531 81.070312 20.40625 C 81.1875 20.296875 81.285156 20.175781 81.359375 20.039062 C 81.433594 19.914062 81.488281 19.777344 81.523438 19.632812 C 81.5625 19.484375 81.578125 19.328125 81.578125 19.164062 L 81.578125 18.480469 L 82 18.480469 L 82 19.1875 C 81.996094 19.347656 82.015625 19.492188 82.054688 19.628906 M 83.203125 18.351562 L 83.605469 18.351562 L 83.605469 21.554688 L 83.203125 21.554688 Z M 83.203125 18.351562 "/>
<path style=" stroke:none;fill-rule:nonzero;fill:rgb(0%,0%,0%);fill-opacity:1;" d="M 85.648438 4.558594 L 69.191406 4.558594 C 68.320312 4.5625 67.617188 5.242188 67.613281 6.085938 L 67.613281 21.613281 C 67.613281 22.457031 68.320312 23.140625 69.191406 23.140625 L 85.648438 23.140625 C 86.519531 23.140625 87.226562 22.457031 87.226562 21.613281 L 87.226562 6.085938 C 87.226562 5.242188 86.519531 4.558594 85.648438 4.558594 M 85.648438 22.511719 L 69.191406 22.511719 C 68.679688 22.511719 68.265625 22.109375 68.265625 21.613281 L 68.265625 17.488281 L 86.578125 17.488281 L 86.578125 21.613281 C 86.578125 22.109375 86.164062 22.511719 85.648438 22.511719 "/>
<path style=" stroke:none;fill-rule:nonzero;fill:rgb(0%,0%,0%);fill-opacity:1;" d="M 93.765625 19.105469 C 93.816406 19.210938 93.875 19.304688 93.953125 19.390625 C 94.03125 19.472656 94.121094 19.546875 94.21875 19.609375 C 94.316406 19.671875 94.414062 19.722656 94.515625 19.753906 C 94.480469 19.792969 94.433594 19.839844 94.386719 19.902344 C 94.335938 19.960938 94.292969 20.011719 94.261719 20.046875 C 94.203125 20.019531 94.136719 19.984375 94.070312 19.945312 C 94.003906 19.902344 93.9375 19.859375 93.871094 19.8125 C 93.792969 19.753906 93.722656 19.6875 93.652344 19.617188 C 93.582031 19.546875 93.527344 19.476562 93.480469 19.398438 C 93.457031 19.46875 93.417969 19.539062 93.363281 19.609375 C 93.308594 19.683594 93.246094 19.75 93.175781 19.816406 C 93.101562 19.882812 93.027344 19.941406 92.945312 19.996094 C 92.867188 20.054688 92.789062 20.097656 92.71875 20.128906 C 92.679688 20.097656 92.628906 20.054688 92.566406 20.003906 C 92.507812 19.949219 92.449219 19.90625 92.394531 19.867188 C 92.523438 19.8125 92.644531 19.742188 92.761719 19.660156 C 92.878906 19.574219 92.976562 19.480469 93.058594 19.378906 C 93.121094 19.292969 93.175781 19.199219 93.214844 19.101562 C 93.25 19 93.269531 18.890625 93.269531 18.777344 L 93.269531 18.417969 L 93.695312 18.417969 L 93.695312 18.769531 C 93.695312 18.886719 93.71875 19 93.765625 19.105469 M 95.015625 20.476562 C 95.214844 20.597656 95.3125 20.757812 95.3125 20.949219 C 95.3125 21.140625 95.21875 21.300781 95.027344 21.425781 C 94.835938 21.550781 94.542969 21.613281 94.152344 21.613281 C 93.765625 21.613281 93.472656 21.550781 93.265625 21.425781 C 93.0625 21.300781 92.960938 21.140625 92.960938 20.949219 C 92.960938 20.757812 93.058594 20.597656 93.257812 20.476562 C 93.457031 20.351562 93.75 20.289062 94.136719 20.289062 C 94.523438 20.289062 94.820312 20.351562 95.015625 20.476562 M 93.601562 21.210938 C 93.746094 21.273438 93.929688 21.308594 94.15625 21.308594 C 94.386719 21.308594 94.566406 21.273438 94.695312 21.210938 C 94.820312 21.148438 94.886719 21.0625 94.886719 20.957031 C 94.886719 20.84375 94.820312 20.753906 94.683594 20.691406 C 94.546875 20.632812 94.363281 20.597656 94.136719 20.597656 C 93.910156 20.597656 93.730469 20.628906 93.59375 20.691406 C 93.457031 20.753906 93.390625 20.839844 93.390625 20.945312 C 93.390625 21.058594 93.460938 21.144531 93.601562 21.210938 M 95.214844 18.351562 L 95.214844 19.050781 L 95.65625 19.050781 L 95.65625 19.386719 L 95.214844 19.386719 L 95.214844 20.265625 L 94.816406 20.265625 L 94.816406 18.351562 Z M 95.214844 18.351562 "/>
<path style=" stroke:none;fill-rule:nonzero;fill:rgb(0%,0%,0%);fill-opacity:1;" d="M 98.265625 20.054688 L 98.265625 19.355469 L 97.671875 19.355469 C 97.628906 19.539062 97.53125 19.6875 97.375 19.800781 C 97.21875 19.914062 97.035156 19.972656 96.824219 19.972656 C 96.570312 19.972656 96.363281 19.898438 96.199219 19.746094 C 96.035156 19.59375 95.949219 19.40625 95.949219 19.179688 C 95.949219 18.957031 96.03125 18.765625 96.195312 18.613281 C 96.359375 18.460938 96.570312 18.382812 96.824219 18.382812 C 97.039062 18.382812 97.226562 18.445312 97.382812 18.5625 C 97.539062 18.679688 97.636719 18.832031 97.675781 19.019531 L 98.265625 19.019531 L 98.265625 18.351562 L 98.664062 18.351562 L 98.664062 20.054688 Z M 96.472656 19.507812 C 96.558594 19.597656 96.675781 19.644531 96.824219 19.644531 C 96.96875 19.644531 97.082031 19.597656 97.167969 19.507812 C 97.25 19.417969 97.292969 19.308594 97.292969 19.179688 C 97.292969 19.050781 97.25 18.941406 97.167969 18.851562 C 97.082031 18.761719 96.96875 18.71875 96.824219 18.71875 C 96.675781 18.71875 96.558594 18.761719 96.472656 18.855469 C 96.386719 18.945312 96.34375 19.054688 96.34375 19.179688 C 96.34375 19.308594 96.386719 19.417969 96.472656 19.507812 M 96.425781 21.523438 L 96.425781 20.183594 L 96.816406 20.183594 L 96.816406 20.523438 L 98.269531 20.523438 L 98.269531 20.183594 L 98.660156 20.183594 L 98.660156 21.523438 Z M 98.269531 20.84375 L 96.816406 20.84375 L 96.816406 21.203125 L 98.269531 21.203125 Z M 98.269531 20.84375 "/>
<path style=" stroke:none;fill-rule:nonzero;fill:rgb(0%,0%,0%);fill-opacity:1;" d="M 99.179688 20.191406 L 99.179688 19.855469 L 99.984375 19.855469 L 99.984375 19.425781 C 99.832031 19.371094 99.714844 19.300781 99.628906 19.214844 C 99.550781 19.128906 99.507812 19.035156 99.507812 18.929688 C 99.507812 18.761719 99.617188 18.621094 99.839844 18.503906 C 100.0625 18.386719 100.355469 18.328125 100.722656 18.328125 C 101.097656 18.328125 101.394531 18.386719 101.613281 18.503906 C 101.835938 18.621094 101.941406 18.761719 101.941406 18.9375 C 101.941406 19.042969 101.902344 19.136719 101.820312 19.21875 C 101.742188 19.304688 101.625 19.375 101.472656 19.425781 L 101.472656 19.855469 L 102.273438 19.855469 L 102.273438 20.191406 Z M 99.800781 20.574219 C 100.011719 20.464844 100.320312 20.40625 100.71875 20.40625 C 101.125 20.40625 101.433594 20.464844 101.644531 20.578125 C 101.855469 20.695312 101.960938 20.839844 101.960938 21.011719 C 101.960938 21.179688 101.855469 21.320312 101.644531 21.4375 C 101.4375 21.558594 101.128906 21.617188 100.722656 21.617188 C 100.324219 21.617188 100.015625 21.558594 99.804688 21.4375 C 99.589844 21.324219 99.484375 21.179688 99.484375 21.007812 C 99.484375 20.832031 99.589844 20.6875 99.800781 20.574219 M 100.15625 21.238281 C 100.296875 21.289062 100.484375 21.316406 100.722656 21.316406 C 100.957031 21.316406 101.148438 21.289062 101.285156 21.238281 C 101.429688 21.179688 101.5 21.105469 101.5 21.015625 C 101.5 20.914062 101.429688 20.839844 101.285156 20.785156 C 101.144531 20.730469 100.957031 20.703125 100.722656 20.703125 C 100.484375 20.703125 100.296875 20.730469 100.15625 20.78125 C 100.015625 20.835938 99.949219 20.910156 99.949219 21.007812 C 99.949219 21.105469 100.015625 21.179688 100.15625 21.238281 M 100.167969 19.148438 C 100.308594 19.207031 100.492188 19.234375 100.722656 19.234375 C 100.953125 19.234375 101.136719 19.207031 101.277344 19.152344 C 101.417969 19.101562 101.492188 19.027344 101.492188 18.933594 C 101.492188 18.839844 101.417969 18.765625 101.273438 18.707031 C 101.125 18.652344 100.941406 18.625 100.722656 18.625 C 100.5 18.625 100.316406 18.652344 100.171875 18.707031 C 100.03125 18.761719 99.960938 18.835938 99.960938 18.925781 C 99.960938 19.015625 100.027344 19.089844 100.167969 19.148438 M 101.074219 19.507812 C 101.019531 19.519531 100.964844 19.527344 100.902344 19.53125 C 100.84375 19.535156 100.785156 19.535156 100.722656 19.535156 C 100.664062 19.535156 100.605469 19.535156 100.546875 19.53125 C 100.488281 19.527344 100.433594 19.519531 100.386719 19.515625 L 100.386719 19.855469 L 101.074219 19.855469 Z M 101.074219 19.507812 "/>
<path style=" stroke:none;fill-rule:nonzero;fill:rgb(0%,0%,0%);fill-opacity:1;" d="M 102.519531 19.921875 L 102.519531 19.59375 L 104.734375 19.59375 C 104.761719 19.496094 104.789062 19.367188 104.816406 19.207031 C 104.84375 19.042969 104.863281 18.898438 104.871094 18.773438 L 102.855469 18.773438 L 102.855469 18.433594 L 105.292969 18.433594 C 105.289062 18.613281 105.269531 18.816406 105.234375 19.035156 C 105.203125 19.25 105.164062 19.4375 105.132812 19.59375 L 105.609375 19.59375 L 105.609375 19.921875 Z M 102.914062 20.273438 L 105.210938 20.273438 L 105.210938 21.515625 L 102.914062 21.515625 Z M 104.8125 20.609375 L 103.316406 20.609375 L 103.316406 21.183594 L 104.8125 21.183594 Z M 104.8125 20.609375 "/>
<path style=" stroke:none;fill-rule:nonzero;fill:rgb(0%,0%,0%);fill-opacity:1;" d="M 107.234375 19.59375 C 107.261719 19.730469 107.3125 19.859375 107.382812 19.980469 C 107.453125 20.109375 107.546875 20.226562 107.660156 20.332031 C 107.769531 20.441406 107.902344 20.53125 108.054688 20.613281 C 108.003906 20.65625 107.953125 20.699219 107.898438 20.75 C 107.847656 20.796875 107.800781 20.84375 107.765625 20.878906 C 107.695312 20.839844 107.621094 20.789062 107.546875 20.730469 C 107.472656 20.671875 107.398438 20.605469 107.332031 20.53125 C 107.253906 20.453125 107.183594 20.367188 107.121094 20.277344 C 107.058594 20.1875 107.007812 20.101562 106.976562 20.015625 C 106.941406 20.105469 106.898438 20.191406 106.84375 20.28125 C 106.789062 20.367188 106.726562 20.453125 106.65625 20.535156 C 106.582031 20.625 106.5 20.703125 106.417969 20.777344 C 106.335938 20.847656 106.253906 20.910156 106.179688 20.960938 C 106.136719 20.921875 106.085938 20.878906 106.027344 20.835938 C 105.96875 20.789062 105.910156 20.746094 105.84375 20.699219 C 105.988281 20.613281 106.121094 20.515625 106.242188 20.40625 C 106.359375 20.300781 106.457031 20.175781 106.535156 20.039062 C 106.609375 19.910156 106.664062 19.773438 106.703125 19.625 C 106.742188 19.476562 106.761719 19.316406 106.761719 19.140625 L 106.761719 18.878906 L 106.078125 18.878906 L 106.078125 18.546875 L 107.878906 18.546875 L 107.878906 18.878906 L 107.1875 18.878906 L 107.1875 19.160156 C 107.1875 19.3125 107.203125 19.457031 107.234375 19.59375 M 108.351562 18.351562 L 108.746094 18.351562 L 108.746094 21.554688 L 108.351562 21.554688 Z M 108.351562 18.351562 "/>
<path style=" stroke:none;fill-rule:nonzero;fill:rgb(0%,0%,0%);fill-opacity:1;" d="M 109.082031 4.558594 L 92.628906 4.558594 C 91.753906 4.5625 91.050781 5.242188 91.046875 6.085938 L 91.046875 21.613281 C 91.046875 22.457031 91.753906 23.140625 92.628906 23.140625 L 109.082031 23.140625 C 109.953125 23.140625 110.660156 22.457031 110.660156 21.613281 L 110.660156 6.085938 C 110.660156 5.242188 109.953125 4.5625 109.082031 4.558594 M 109.082031 22.511719 L 92.628906 22.511719 C 92.113281 22.511719 91.699219 22.109375 91.699219 21.613281 L 91.699219 17.488281 L 110.011719 17.488281 L 110.011719 21.613281 C 110.011719 22.109375 109.597656 22.511719 109.082031 22.511719 "/>
<path style=" stroke:none;fill-rule:nonzero;fill:rgb(100%,100%,100%);fill-opacity:1;" d="M 109.824219 16.507812 L 104.9375 13.390625 C 105.058594 13 105.128906 12.589844 105.128906 12.160156 C 105.125 10.269531 103.824219 8.675781 102.039062 8.160156 L 102.917969 6.691406 C 102.976562 6.589844 102.976562 6.46875 102.917969 6.371094 C 102.855469 6.269531 102.75 6.210938 102.632812 6.210938 L 98.957031 6.210938 C 98.835938 6.210938 98.730469 6.269531 98.671875 6.367188 C 98.609375 6.46875 98.609375 6.589844 98.671875 6.691406 L 99.550781 8.160156 C 98.972656 8.324219 98.449219 8.601562 98.003906 8.96875 L 92.378906 5.378906 C 92.242188 5.292969 92.105469 5.265625 92.070312 5.3125 L 91.882812 5.589844 C 91.851562 5.644531 91.929688 5.753906 92.066406 5.839844 L 97.582031 9.359375 C 96.886719 10.097656 96.460938 11.082031 96.460938 12.160156 C 96.460938 14.46875 98.398438 16.335938 100.789062 16.335938 C 102.539062 16.335938 104.035156 15.34375 104.722656 13.914062 L 109.511719 16.964844 C 109.644531 17.054688 109.785156 17.082031 109.820312 17.03125 L 110.007812 16.757812 C 110.039062 16.707031 109.960938 16.59375 109.824219 16.507812 "/>
<path style=" stroke:none;fill-rule:nonzero;fill:rgb(0%,0%,0%);fill-opacity:1;" d="M 102.746094 11.960938 L 103.183594 10.472656 L 102.535156 10.472656 L 102.132812 11.960938 L 101.535156 11.960938 L 101.398438 11.398438 L 101.398438 11.402344 L 101.175781 10.476562 L 100.554688 10.476562 L 100.148438 11.964844 L 99.566406 11.964844 L 99.164062 10.472656 L 98.507812 10.472656 L 98.902344 11.964844 L 98.007812 11.964844 L 98.007812 12.539062 L 99.054688 12.539062 L 99.476562 14.164062 L 100.085938 14.164062 L 100.195312 13.78125 C 100.195312 13.777344 100.199219 13.773438 100.199219 13.769531 L 100.550781 12.539062 L 101.082031 12.539062 L 101.339844 13.578125 L 101.488281 14.164062 L 102.097656 14.164062 L 102.097656 14.160156 L 102.101562 14.160156 L 102.574219 12.539062 L 103.683594 12.539062 L 103.683594 11.960938 Z M 99.992188 12.539062 C 99.929688 12.777344 99.867188 13 99.820312 13.210938 C 99.777344 13 99.722656 12.773438 99.667969 12.539062 Z M 99.53125 11.960938 Z M 100.710938 11.960938 C 100.761719 11.789062 100.800781 11.625 100.835938 11.472656 C 100.863281 11.628906 100.902344 11.789062 100.941406 11.960938 Z M 101.984375 12.539062 C 101.925781 12.765625 101.871094 12.980469 101.820312 13.191406 C 101.78125 12.980469 101.730469 12.757812 101.679688 12.539062 Z M 101.984375 12.539062 "/>
<path style=" stroke:none;fill-rule:nonzero;fill:rgb(100%,100%,100%);fill-opacity:1;" d="M 81.199219 13.96875 C 80.886719 11.765625 79.894531 10.617188 78.976562 10.070312 C 79.414062 9.660156 79.691406 9.082031 79.691406 8.445312 C 79.691406 7.195312 78.644531 6.179688 77.351562 6.179688 C 76.058594 6.179688 75.011719 7.195312 75.011719 8.445312 C 75.011719 9.082031 75.289062 9.660156 75.726562 10.070312 C 74.8125 10.617188 73.816406 11.765625 73.503906 13.96875 C 73.457031 14.285156 73.433594 14.582031 73.433594 14.851562 C 73.433594 15.121094 73.457031 15.367188 73.5 15.601562 C 73.5625 15.898438 73.832031 16.113281 74.148438 16.113281 L 80.558594 16.113281 C 80.875 16.113281 81.144531 15.894531 81.203125 15.597656 C 81.246094 15.367188 81.269531 15.121094 81.269531 14.855469 C 81.269531 14.582031 81.246094 14.285156 81.199219 13.96875 "/>
<path style=" stroke:none;fill-rule:nonzero;fill:rgb(0%,0%,0%);fill-opacity:1;" d="M 31.339844 9.234375 C 31.042969 8.722656 30.636719 8.308594 30.128906 8.003906 C 29.632812 7.707031 29.066406 7.503906 28.429688 7.390625 C 27.808594 7.277344 27.160156 7.222656 26.488281 7.222656 L 21.609375 7.222656 C 21.53125 7.222656 21.453125 7.25 21.398438 7.304688 C 21.34375 7.359375 21.3125 7.433594 21.3125 7.507812 L 21.3125 20.113281 C 21.3125 20.1875 21.34375 20.261719 21.398438 20.316406 C 21.453125 20.371094 21.53125 20.398438 21.609375 20.398438 L 23.332031 20.398438 C 23.410156 20.398438 23.484375 20.371094 23.539062 20.316406 C 23.597656 20.261719 23.628906 20.1875 23.628906 20.113281 L 23.628906 15.359375 L 26.601562 15.359375 C 28.242188 15.359375 29.53125 15.023438 30.4375 14.308594 C 31.347656 13.59375 31.796875 12.519531 31.792969 11.1875 C 31.792969 10.421875 31.648438 9.765625 31.339844 9.234375 M 26.644531 13.285156 L 23.628906 13.285156 L 23.628906 9.296875 L 26.585938 9.296875 C 26.996094 9.296875 27.382812 9.324219 27.742188 9.378906 C 28.089844 9.429688 28.386719 9.527344 28.636719 9.667969 C 28.875 9.804688 29.0625 9.988281 29.203125 10.234375 C 29.335938 10.464844 29.417969 10.792969 29.417969 11.226562 C 29.417969 11.582031 29.363281 11.886719 29.265625 12.140625 C 29.171875 12.386719 29.023438 12.585938 28.816406 12.753906 C 28.609375 12.921875 28.335938 13.054688 27.976562 13.144531 C 27.621094 13.238281 27.175781 13.285156 26.644531 13.285156 "/>
<path style=" stroke:none;fill-rule:nonzero;fill:rgb(0%,0%,0%);fill-opacity:1;" d="M 43.199219 18.410156 C 43.140625 18.355469 43.066406 18.324219 42.988281 18.324219 L 35.285156 18.324219 L 35.285156 14.625 L 42.1875 14.625 C 42.265625 14.625 42.339844 14.59375 42.398438 14.542969 C 42.453125 14.488281 42.484375 14.414062 42.484375 14.335938 L 42.484375 12.835938 C 42.484375 12.761719 42.453125 12.6875 42.398438 12.632812 C 42.34375 12.582031 42.265625 12.550781 42.1875 12.550781 L 35.285156 12.550781 L 35.285156 9.296875 L 42.699219 9.296875 C 42.777344 9.296875 42.851562 9.265625 42.910156 9.214844 C 42.964844 9.160156 42.996094 9.085938 42.996094 9.007812 L 42.996094 7.511719 C 42.996094 7.433594 42.960938 7.359375 42.910156 7.308594 C 42.851562 7.253906 42.777344 7.222656 42.699219 7.222656 L 33.265625 7.222656 C 33.183594 7.222656 33.109375 7.253906 33.054688 7.308594 C 33 7.359375 32.96875 7.433594 32.96875 7.511719 L 32.96875 20.113281 C 32.96875 20.1875 33 20.261719 33.054688 20.316406 C 33.109375 20.371094 33.183594 20.398438 33.265625 20.398438 L 42.988281 20.398438 C 43.066406 20.398438 43.140625 20.371094 43.195312 20.316406 C 43.253906 20.261719 43.285156 20.1875 43.285156 20.113281 L 43.285156 18.613281 C 43.285156 18.535156 43.253906 18.460938 43.199219 18.410156 "/>
<path style=" stroke:none;fill-rule:nonzero;fill:rgb(0%,0%,0%);fill-opacity:1;" d="M 55.375 7.304688 C 55.320312 7.25 55.242188 7.222656 55.164062 7.222656 L 53.507812 7.222656 C 53.429688 7.222656 53.351562 7.25 53.296875 7.304688 C 53.242188 7.359375 53.210938 7.433594 53.210938 7.507812 L 53.210938 16.507812 L 46.949219 7.347656 C 46.894531 7.269531 46.800781 7.222656 46.699219 7.222656 L 44.917969 7.222656 C 44.84375 7.222656 44.765625 7.25 44.710938 7.304688 C 44.65625 7.359375 44.625 7.433594 44.625 7.507812 L 44.625 20.113281 C 44.625 20.1875 44.652344 20.261719 44.710938 20.316406 C 44.765625 20.371094 44.839844 20.398438 44.917969 20.398438 L 46.558594 20.398438 C 46.636719 20.398438 46.710938 20.371094 46.765625 20.316406 C 46.824219 20.261719 46.855469 20.1875 46.855469 20.113281 L 46.855469 11.125 L 53.144531 20.269531 C 53.199219 20.351562 53.292969 20.398438 53.390625 20.398438 L 55.164062 20.398438 C 55.242188 20.398438 55.316406 20.371094 55.375 20.316406 C 55.429688 20.261719 55.460938 20.1875 55.460938 20.113281 L 55.460938 7.507812 C 55.460938 7.433594 55.429688 7.359375 55.375 7.304688 "/>
<path style=" stroke:none;fill-rule:nonzero;fill:rgb(0%,69.411767%,57.647061%);fill-opacity:1;" d="M 12.320312 8.363281 C 15.007812 8.371094 17.222656 10.277344 17.617188 12.769531 C 18.53125 12.898438 19.28125 13.125 19.878906 13.382812 C 19.875 13.210938 19.863281 13.128906 19.863281 13.128906 C 19.632812 9.285156 16.34375 6.242188 12.320312 6.242188 C 8.328125 6.242188 5.066406 9.234375 4.785156 13.027344 C 4.800781 13.28125 4.933594 13.753906 5.664062 14.101562 L 5.621094 14.089844 C 6.363281 14.476562 7.523438 14.933594 8.886719 14.9375 C 9.902344 14.9375 11.257812 14.675781 12.378906 13.941406 C 13.164062 13.429688 14.0625 12.945312 15.035156 12.945312 C 15.335938 12.945312 15.636719 12.976562 15.929688 13.035156 C 16.011719 13.054688 16.09375 13.070312 16.175781 13.09375 C 16.175781 13.09375 16.449219 13.238281 16.503906 13.066406 C 16.535156 12.96875 16.503906 12.882812 16.472656 12.828125 C 16.375 12.671875 16.132812 12.523438 15.980469 12.425781 C 15.765625 12.292969 15.527344 12.195312 15.277344 12.132812 C 14.710938 11.992188 14.101562 12.035156 13.53125 12.144531 C 12.957031 12.257812 12.390625 12.441406 11.863281 12.6875 C 10.949219 13.105469 9.988281 13.261719 9.402344 13.261719 C 8.445312 13.257812 7.875 12.859375 7.507812 12.453125 C 7.378906 12.304688 7.277344 12.15625 7.203125 12.027344 C 7.878906 9.910156 9.910156 8.371094 12.320312 8.363281 "/>
<path style=" stroke:none;fill-rule:nonzero;fill:rgb(0%,0%,0%);fill-opacity:1;" d="M 17.722656 13.617188 C 17.714844 13.773438 17.707031 13.894531 17.699219 13.953125 L 17.695312 13.953125 C 17.496094 16.640625 15.183594 18.761719 12.351562 18.765625 C 10.042969 18.765625 8.148438 17.53125 7.402344 15.5625 C 6.878906 15.449219 5.628906 15.125 4.84375 14.515625 L 4.84375 14.519531 C 5.226562 18.210938 8.4375 20.890625 12.351562 20.894531 C 16.28125 20.890625 19.507812 17.992188 19.871094 14.285156 C 19.144531 13.925781 18.355469 13.726562 17.722656 13.617188 "/>
<path style=" stroke:none;fill-rule:nonzero;fill:rgb(100%,100%,100%);fill-opacity:1;" d="M 27.175781 29.9375 L 24.929688 29.9375 L 24.929688 29.027344 C 24.929688 29.015625 24.929688 29.007812 24.921875 29 C 24.914062 28.996094 24.90625 28.992188 24.894531 28.992188 L 24.28125 28.992188 C 24.273438 28.992188 24.265625 28.996094 24.257812 29 C 24.25 29.007812 24.246094 29.015625 24.246094 29.027344 L 24.246094 29.9375 L 22.578125 29.9375 C 22.570312 29.9375 22.5625 29.941406 22.554688 29.949219 C 22.546875 29.957031 22.542969 29.964844 22.542969 29.972656 L 22.542969 30.5 C 22.542969 30.511719 22.550781 30.519531 22.554688 30.527344 C 22.5625 30.53125 22.570312 30.535156 22.578125 30.535156 L 27.175781 30.535156 C 27.1875 30.535156 27.195312 30.53125 27.203125 30.527344 C 27.210938 30.519531 27.210938 30.511719 27.210938 30.5 L 27.210938 29.972656 C 27.210938 29.964844 27.210938 29.957031 27.203125 29.949219 C 27.195312 29.941406 27.1875 29.9375 27.175781 29.9375 M 26.261719 31.144531 C 25.933594 30.949219 25.472656 30.855469 24.867188 30.855469 C 24.273438 30.855469 23.8125 30.949219 23.488281 31.144531 C 23.164062 31.339844 22.996094 31.597656 22.996094 31.910156 C 22.996094 32.21875 23.167969 32.476562 23.492188 32.671875 C 23.816406 32.871094 24.277344 32.96875 24.875 32.96875 C 25.476562 32.96875 25.9375 32.871094 26.261719 32.671875 C 26.582031 32.476562 26.75 32.21875 26.75 31.910156 C 26.75 31.597656 26.582031 31.339844 26.261719 31.144531 M 25.714844 32.292969 C 25.503906 32.378906 25.222656 32.421875 24.875 32.421875 C 24.515625 32.421875 24.234375 32.378906 24.035156 32.292969 C 23.832031 32.207031 23.742188 32.082031 23.742188 31.90625 C 23.742188 31.746094 23.832031 31.625 24.035156 31.539062 C 24.234375 31.449219 24.515625 31.40625 24.875 31.40625 C 25.222656 31.40625 25.503906 31.449219 25.714844 31.539062 C 25.921875 31.628906 26.015625 31.746094 26.019531 31.90625 C 26.015625 32.082031 25.921875 32.207031 25.714844 32.292969 M 23.074219 28.519531 L 26.042969 28.519531 C 26.039062 28.699219 26.023438 28.890625 25.996094 29.089844 C 25.964844 29.300781 25.933594 29.488281 25.902344 29.648438 C 25.898438 29.65625 25.902344 29.667969 25.910156 29.675781 C 25.917969 29.683594 25.925781 29.6875 25.9375 29.6875 L 26.527344 29.695312 C 26.542969 29.695312 26.558594 29.683594 26.5625 29.664062 C 26.605469 29.417969 26.644531 29.15625 26.679688 28.878906 C 26.710938 28.601562 26.730469 28.296875 26.734375 27.957031 C 26.734375 27.949219 26.730469 27.941406 26.722656 27.933594 C 26.714844 27.925781 26.707031 27.921875 26.699219 27.921875 L 23.074219 27.921875 C 23.0625 27.921875 23.054688 27.925781 23.046875 27.933594 C 23.039062 27.9375 23.035156 27.949219 23.035156 27.957031 L 23.035156 28.484375 C 23.035156 28.492188 23.039062 28.5 23.046875 28.507812 C 23.054688 28.515625 23.0625 28.519531 23.074219 28.519531 M 28.03125 28.519531 L 31.003906 28.519531 C 31 28.699219 30.984375 28.890625 30.957031 29.089844 C 30.925781 29.300781 30.894531 29.488281 30.863281 29.648438 C 30.859375 29.65625 30.863281 29.667969 30.871094 29.675781 C 30.875 29.683594 30.886719 29.6875 30.898438 29.6875 L 31.488281 29.695312 C 31.503906 29.695312 31.519531 29.683594 31.523438 29.664062 C 31.566406 29.417969 31.605469 29.15625 31.640625 28.878906 C 31.671875 28.601562 31.691406 28.296875 31.695312 27.957031 C 31.695312 27.949219 31.691406 27.941406 31.683594 27.933594 C 31.675781 27.925781 31.667969 27.921875 31.65625 27.921875 L 28.03125 27.921875 C 28.023438 27.921875 28.011719 27.925781 28.007812 27.933594 C 28 27.9375 27.996094 27.949219 27.996094 27.957031 L 27.996094 28.484375 C 27.996094 28.492188 28 28.5 28.007812 28.507812 C 28.011719 28.515625 28.023438 28.519531 28.03125 28.519531 M 31.21875 31.144531 C 30.894531 30.949219 30.429688 30.855469 29.828125 30.855469 C 29.234375 30.855469 28.773438 30.949219 28.449219 31.144531 C 28.125 31.339844 27.957031 31.597656 27.957031 31.910156 C 27.957031 32.21875 28.125 32.476562 28.449219 32.671875 C 28.777344 32.871094 29.238281 32.96875 29.832031 32.96875 C 30.4375 32.96875 30.898438 32.871094 31.222656 32.671875 C 31.542969 32.476562 31.710938 32.21875 31.710938 31.910156 C 31.710938 31.597656 31.542969 31.339844 31.21875 31.144531 M 30.675781 32.292969 C 30.464844 32.378906 30.183594 32.421875 29.832031 32.421875 C 29.476562 32.421875 29.195312 32.378906 28.992188 32.292969 C 28.792969 32.207031 28.703125 32.082031 28.699219 31.90625 C 28.703125 31.746094 28.792969 31.625 28.992188 31.539062 C 29.195312 31.449219 29.476562 31.40625 29.832031 31.40625 C 30.183594 31.40625 30.464844 31.449219 30.675781 31.539062 C 30.882812 31.628906 30.976562 31.746094 30.976562 31.90625 C 30.976562 32.082031 30.882812 32.207031 30.675781 32.292969 M 32.136719 29.9375 L 29.890625 29.9375 L 29.890625 29.027344 C 29.890625 29.015625 29.886719 29.007812 29.882812 29 C 29.875 28.996094 29.867188 28.992188 29.855469 28.992188 L 29.242188 28.992188 C 29.234375 28.992188 29.226562 28.996094 29.21875 29 C 29.210938 29.007812 29.207031 29.015625 29.207031 29.027344 L 29.207031 29.9375 L 27.539062 29.9375 C 27.53125 29.9375 27.523438 29.941406 27.515625 29.949219 C 27.507812 29.957031 27.503906 29.964844 27.503906 29.972656 L 27.503906 30.5 C 27.503906 30.511719 27.507812 30.519531 27.515625 30.527344 C 27.523438 30.53125 27.53125 30.535156 27.539062 30.535156 L 32.136719 30.535156 C 32.144531 30.535156 32.15625 30.53125 32.164062 30.527344 C 32.167969 30.519531 32.171875 30.511719 32.171875 30.5 L 32.171875 29.972656 C 32.171875 29.964844 32.167969 29.957031 32.164062 29.949219 C 32.15625 29.941406 32.148438 29.9375 32.136719 29.9375 M 33.0625 29.996094 L 36.636719 29.996094 C 36.644531 29.996094 36.652344 29.992188 36.660156 29.988281 C 36.667969 29.980469 36.671875 29.972656 36.671875 29.960938 L 36.671875 29.433594 C 36.671875 29.425781 36.667969 29.417969 36.660156 29.410156 C 36.652344 29.402344 36.644531 29.398438 36.632812 29.398438 L 33.683594 29.398438 L 33.683594 27.96875 C 33.683594 27.957031 33.679688 27.949219 33.671875 27.941406 C 33.664062 27.9375 33.65625 27.933594 33.648438 27.933594 L 33.0625 27.933594 C 33.050781 27.933594 33.042969 27.9375 33.039062 27.941406 C 33.03125 27.949219 33.027344 27.957031 33.027344 27.96875 L 33.027344 29.964844 C 33.027344 29.972656 33.03125 29.980469 33.039062 29.988281 C 33.046875 29.992188 33.054688 29.996094 33.0625 29.996094 M 37.097656 30.554688 L 32.5 30.554688 C 32.492188 30.554688 32.480469 30.5625 32.476562 30.566406 C 32.46875 30.574219 32.464844 30.582031 32.464844 30.59375 L 32.464844 31.113281 C 32.464844 31.125 32.46875 31.128906 32.476562 31.136719 C 32.480469 31.144531 32.492188 31.148438 32.5 31.148438 L 34.464844 31.148438 L 34.464844 32.835938 C 34.464844 32.847656 34.46875 32.855469 34.476562 32.863281 C 34.484375 32.867188 34.492188 32.871094 34.5 32.871094 L 35.109375 32.871094 C 35.117188 32.871094 35.125 32.867188 35.132812 32.863281 C 35.140625 32.855469 35.144531 32.847656 35.144531 32.835938 L 35.144531 31.148438 L 37.097656 31.148438 C 37.109375 31.148438 37.117188 31.144531 37.125 31.136719 C 37.128906 31.128906 37.132812 31.121094 37.132812 31.113281 L 37.132812 30.589844 C 37.132812 30.582031 37.128906 30.574219 37.125 30.566406 C 37.117188 30.5625 37.109375 30.554688 37.097656 30.554688 M 40.808594 30.957031 C 40.644531 30.984375 40.402344 31.015625 40.074219 31.050781 C 39.746094 31.089844 39.457031 31.109375 39.210938 31.109375 L 38.480469 31.109375 L 38.480469 30.15625 L 40.15625 30.15625 C 40.167969 30.15625 40.175781 30.152344 40.183594 30.144531 C 40.1875 30.136719 40.191406 30.128906 40.191406 30.121094 L 40.191406 28.085938 C 40.191406 28.074219 40.1875 28.066406 40.183594 28.0625 C 40.175781 28.054688 40.167969 28.050781 40.15625 28.050781 L 37.855469 28.050781 C 37.84375 28.050781 37.835938 28.054688 37.828125 28.0625 C 37.820312 28.066406 37.816406 28.074219 37.816406 28.085938 L 37.816406 28.613281 C 37.816406 28.621094 37.820312 28.628906 37.828125 28.636719 C 37.835938 28.644531 37.84375 28.644531 37.855469 28.644531 L 39.53125 28.644531 L 39.53125 29.570312 L 37.855469 29.570312 C 37.84375 29.570312 37.835938 29.570312 37.828125 29.578125 C 37.820312 29.585938 37.816406 29.59375 37.816406 29.601562 L 37.816406 31.679688 C 37.816406 31.691406 37.820312 31.699219 37.828125 31.707031 C 37.835938 31.710938 37.84375 31.714844 37.855469 31.714844 C 37.855469 31.714844 38.035156 31.710938 38.390625 31.710938 C 38.742188 31.707031 38.960938 31.703125 39.042969 31.703125 C 39.367188 31.695312 39.703125 31.675781 40.046875 31.640625 C 40.390625 31.601562 40.648438 31.574219 40.820312 31.546875 C 40.835938 31.542969 40.847656 31.527344 40.847656 31.511719 L 40.847656 30.988281 C 40.847656 30.980469 40.84375 30.96875 40.835938 30.964844 C 40.828125 30.957031 40.816406 30.953125 40.808594 30.957031 M 41.667969 27.800781 C 41.664062 27.796875 41.65625 27.792969 41.644531 27.792969 L 41.050781 27.792969 C 41.039062 27.792969 41.03125 27.796875 41.023438 27.800781 C 41.015625 27.808594 41.011719 27.820312 41.011719 27.828125 L 41.011719 32.839844 C 41.011719 32.847656 41.019531 32.855469 41.023438 32.863281 C 41.03125 32.867188 41.039062 32.871094 41.050781 32.871094 L 41.644531 32.871094 C 41.65625 32.871094 41.664062 32.867188 41.667969 32.863281 C 41.675781 32.855469 41.679688 32.847656 41.679688 32.839844 L 41.679688 27.828125 C 41.679688 27.820312 41.675781 27.808594 41.667969 27.800781 "/>
<path style=" stroke:none;fill-rule:nonzero;fill:rgb(100%,100%,100%);fill-opacity:1;" d="M 64.082031 30.4375 L 64.082031 30.09375 L 65.6875 30.09375 L 65.6875 29.183594 L 66.113281 29.183594 L 66.113281 30.09375 L 68.253906 30.09375 L 68.253906 30.4375 Z M 64.953125 32.316406 C 64.667969 32.148438 64.527344 31.945312 64.527344 31.699219 C 64.527344 31.449219 64.667969 31.242188 64.953125 31.082031 C 65.234375 30.917969 65.640625 30.835938 66.164062 30.835938 C 66.691406 30.835938 67.09375 30.917969 67.378906 31.082031 C 67.660156 31.242188 67.800781 31.449219 67.800781 31.699219 C 67.800781 31.941406 67.660156 32.148438 67.378906 32.316406 C 67.09375 32.480469 66.691406 32.566406 66.164062 32.566406 C 65.640625 32.566406 65.234375 32.480469 64.953125 32.316406 M 67.78125 28.296875 C 67.777344 28.566406 67.757812 28.832031 67.722656 29.089844 C 67.683594 29.347656 67.644531 29.582031 67.597656 29.785156 L 67.195312 29.785156 C 67.230469 29.628906 67.265625 29.445312 67.296875 29.230469 C 67.328125 29.011719 67.34375 28.816406 67.34375 28.636719 L 64.566406 28.636719 L 64.566406 28.292969 L 67.78125 28.292969 Z M 65.308594 32.101562 C 65.523438 32.195312 65.808594 32.242188 66.164062 32.242188 C 66.515625 32.242188 66.800781 32.195312 67.019531 32.101562 C 67.234375 32.011719 67.34375 31.875 67.34375 31.691406 C 67.34375 31.519531 67.234375 31.386719 67.019531 31.296875 C 66.800781 31.207031 66.515625 31.160156 66.164062 31.160156 C 65.808594 31.160156 65.523438 31.207031 65.308594 31.296875 C 65.089844 31.386719 64.980469 31.519531 64.980469 31.691406 C 64.980469 31.875 65.089844 32.011719 65.308594 32.101562 "/>
<path style=" stroke:none;fill-rule:nonzero;fill:rgb(100%,100%,100%);fill-opacity:1;" d="M 68.585938 30.4375 L 68.585938 30.09375 L 70.195312 30.09375 L 70.195312 29.183594 L 70.621094 29.183594 L 70.621094 30.09375 L 72.761719 30.09375 L 72.761719 30.4375 Z M 69.457031 32.316406 C 69.175781 32.148438 69.03125 31.945312 69.03125 31.699219 C 69.03125 31.449219 69.175781 31.242188 69.457031 31.082031 C 69.742188 30.917969 70.148438 30.835938 70.671875 30.835938 C 71.199219 30.835938 71.605469 30.917969 71.886719 31.082031 C 72.167969 31.242188 72.308594 31.449219 72.308594 31.699219 C 72.308594 31.941406 72.167969 32.148438 71.886719 32.316406 C 71.605469 32.480469 71.199219 32.566406 70.671875 32.566406 C 70.148438 32.566406 69.742188 32.480469 69.457031 32.316406 M 72.289062 28.296875 C 72.285156 28.566406 72.265625 28.832031 72.226562 29.089844 C 72.191406 29.347656 72.148438 29.582031 72.101562 29.785156 L 71.703125 29.785156 C 71.738281 29.628906 71.773438 29.445312 71.800781 29.230469 C 71.832031 29.011719 71.847656 28.816406 71.851562 28.636719 L 69.074219 28.636719 L 69.074219 28.292969 L 72.289062 28.292969 Z M 69.816406 32.101562 C 70.03125 32.195312 70.316406 32.242188 70.671875 32.242188 C 71.023438 32.242188 71.304688 32.195312 71.523438 32.101562 C 71.742188 32.011719 71.851562 31.875 71.851562 31.691406 C 71.851562 31.519531 71.742188 31.386719 71.523438 31.296875 C 71.304688 31.207031 71.023438 31.160156 70.671875 31.160156 C 70.316406 31.160156 70.03125 31.207031 69.816406 31.296875 C 69.597656 31.386719 69.488281 31.519531 69.488281 31.691406 C 69.488281 31.875 69.597656 32.011719 69.816406 32.101562 "/>
<path style=" stroke:none;fill-rule:nonzero;fill:rgb(100%,100%,100%);fill-opacity:1;" d="M 74.914062 29.808594 C 74.960938 30.003906 75.035156 30.179688 75.132812 30.347656 C 75.234375 30.523438 75.367188 30.6875 75.527344 30.832031 C 75.6875 30.980469 75.875 31.117188 76.089844 31.238281 C 76.035156 31.277344 75.980469 31.324219 75.921875 31.378906 C 75.863281 31.433594 75.8125 31.480469 75.773438 31.523438 C 75.660156 31.453125 75.546875 31.371094 75.441406 31.28125 C 75.332031 31.191406 75.230469 31.09375 75.132812 30.988281 C 75.023438 30.871094 74.921875 30.742188 74.835938 30.609375 C 74.746094 30.476562 74.671875 30.335938 74.617188 30.195312 C 74.578125 30.328125 74.519531 30.460938 74.4375 30.597656 C 74.363281 30.734375 74.269531 30.863281 74.167969 30.988281 C 74.0625 31.117188 73.949219 31.242188 73.828125 31.355469 C 73.707031 31.46875 73.585938 31.5625 73.46875 31.640625 C 73.425781 31.597656 73.371094 31.550781 73.300781 31.503906 C 73.230469 31.453125 73.160156 31.40625 73.09375 31.363281 C 73.300781 31.242188 73.488281 31.101562 73.652344 30.945312 C 73.816406 30.789062 73.953125 30.617188 74.058594 30.429688 C 74.171875 30.242188 74.253906 30.039062 74.3125 29.824219 C 74.371094 29.605469 74.402344 29.375 74.402344 29.128906 L 74.402344 28.78125 L 73.429688 28.78125 L 73.429688 28.4375 L 75.828125 28.4375 L 75.828125 28.78125 L 74.835938 28.78125 L 74.835938 29.191406 C 74.835938 29.414062 74.863281 29.617188 74.914062 29.808594 M 76.558594 32.476562 L 76.558594 29.90625 L 75.597656 29.90625 L 75.597656 29.542969 L 76.558594 29.542969 L 76.558594 28.167969 L 76.984375 28.167969 L 76.984375 32.476562 Z M 76.558594 32.476562 "/>
<path style=" stroke:none;fill-rule:nonzero;fill:rgb(100%,100%,100%);fill-opacity:1;" d="M 79.367188 29.292969 C 79.429688 29.429688 79.511719 29.554688 79.613281 29.667969 C 79.722656 29.789062 79.847656 29.890625 79.996094 29.976562 C 80.144531 30.066406 80.300781 30.132812 80.457031 30.1875 C 80.40625 30.230469 80.355469 30.28125 80.304688 30.335938 C 80.253906 30.390625 80.214844 30.441406 80.179688 30.480469 C 80.082031 30.441406 79.972656 30.386719 79.855469 30.320312 C 79.742188 30.257812 79.632812 30.179688 79.523438 30.09375 C 79.429688 30.019531 79.34375 29.9375 79.265625 29.851562 C 79.183594 29.765625 79.117188 29.671875 79.058594 29.570312 C 79.023438 29.671875 78.96875 29.769531 78.898438 29.863281 C 78.828125 29.957031 78.75 30.046875 78.664062 30.132812 C 78.558594 30.230469 78.445312 30.316406 78.320312 30.398438 C 78.195312 30.480469 78.070312 30.550781 77.941406 30.609375 C 77.90625 30.574219 77.855469 30.53125 77.789062 30.480469 C 77.722656 30.429688 77.664062 30.382812 77.605469 30.339844 C 77.792969 30.265625 77.96875 30.167969 78.132812 30.0625 C 78.296875 29.953125 78.433594 29.824219 78.546875 29.675781 C 78.636719 29.558594 78.710938 29.429688 78.761719 29.285156 C 78.8125 29.144531 78.835938 28.984375 78.835938 28.820312 L 78.835938 28.707031 L 77.941406 28.707031 L 77.941406 28.367188 L 80.167969 28.367188 L 80.167969 28.707031 L 79.277344 28.707031 L 79.277344 28.832031 C 79.28125 29.003906 79.308594 29.15625 79.367188 29.292969 M 80.890625 32.507812 L 80.890625 31.3125 L 78.335938 31.3125 L 78.335938 30.964844 L 81.308594 30.964844 L 81.308594 32.507812 Z M 81.308594 29.542969 L 81.308594 30.761719 L 80.890625 30.761719 L 80.890625 28.167969 L 81.308594 28.167969 L 81.308594 29.183594 L 81.9375 29.183594 L 81.9375 29.542969 Z M 81.308594 29.542969 "/>
<path style=" stroke:none;fill-rule:nonzero;fill:rgb(100%,100%,100%);fill-opacity:1;" d="M 84.402344 30.265625 L 84.402344 30.699219 L 85.722656 30.699219 L 85.722656 31.710938 L 83.125 31.710938 L 83.125 32.125 L 85.824219 32.125 L 85.824219 32.4375 L 82.664062 32.4375 L 82.664062 31.40625 L 85.269531 31.40625 L 85.269531 31.019531 L 82.664062 31.019531 L 82.664062 30.699219 L 83.972656 30.699219 L 83.972656 30.265625 L 82.109375 30.265625 L 82.109375 29.9375 L 86.28125 29.9375 L 86.28125 30.265625 Z M 82.65625 28.289062 L 85.730469 28.289062 L 85.730469 29.574219 L 82.65625 29.574219 Z M 85.320312 28.609375 L 83.058594 28.609375 L 83.058594 29.253906 L 85.320312 29.253906 Z M 85.320312 28.609375 "/>
<path style=" stroke:none;fill-rule:nonzero;fill:rgb(100%,100%,100%);fill-opacity:1;" d="M 89.839844 29.808594 C 89.890625 30.003906 89.964844 30.179688 90.0625 30.347656 C 90.167969 30.523438 90.300781 30.6875 90.457031 30.832031 C 90.617188 30.980469 90.804688 31.117188 91.023438 31.238281 C 90.96875 31.277344 90.914062 31.324219 90.855469 31.378906 C 90.796875 31.433594 90.746094 31.480469 90.707031 31.523438 C 90.59375 31.453125 90.480469 31.371094 90.371094 31.28125 C 90.261719 31.191406 90.15625 31.09375 90.0625 30.988281 C 89.949219 30.871094 89.851562 30.742188 89.761719 30.609375 C 89.675781 30.476562 89.601562 30.335938 89.546875 30.195312 C 89.507812 30.328125 89.449219 30.460938 89.371094 30.597656 C 89.289062 30.734375 89.199219 30.863281 89.09375 30.988281 C 88.992188 31.117188 88.878906 31.242188 88.757812 31.355469 C 88.640625 31.46875 88.519531 31.5625 88.402344 31.640625 C 88.355469 31.597656 88.300781 31.550781 88.230469 31.503906 C 88.164062 31.453125 88.09375 31.40625 88.023438 31.363281 C 88.234375 31.242188 88.417969 31.101562 88.578125 30.949219 C 88.742188 30.792969 88.875 30.621094 88.988281 30.433594 C 89.097656 30.246094 89.183594 30.042969 89.242188 29.824219 C 89.300781 29.609375 89.332031 29.375 89.332031 29.128906 L 89.332031 28.78125 L 88.363281 28.78125 L 88.363281 28.4375 L 90.761719 28.4375 L 90.761719 28.78125 L 89.765625 28.78125 L 89.765625 29.191406 C 89.765625 29.414062 89.789062 29.617188 89.839844 29.808594 M 91.738281 28.167969 L 91.738281 29.835938 L 92.410156 29.835938 L 92.410156 30.199219 L 91.738281 30.199219 L 91.738281 32.484375 L 91.316406 32.484375 L 91.316406 28.167969 Z M 91.738281 28.167969 "/>
<path style=" stroke:none;fill-rule:nonzero;fill:rgb(100%,100%,100%);fill-opacity:1;" d="M 95.699219 30.964844 L 95.699219 32.476562 L 95.273438 32.476562 L 95.273438 30.964844 L 94.167969 30.964844 L 94.167969 32.445312 L 93.742188 32.445312 L 93.742188 30.972656 L 92.625 30.972656 L 92.625 30.617188 L 96.796875 30.617188 L 96.796875 30.964844 Z M 93.523438 29.90625 C 93.234375 29.71875 93.089844 29.484375 93.089844 29.203125 C 93.089844 28.921875 93.234375 28.6875 93.519531 28.492188 C 93.808594 28.304688 94.203125 28.207031 94.707031 28.207031 C 95.214844 28.207031 95.613281 28.304688 95.898438 28.492188 C 96.1875 28.683594 96.332031 28.917969 96.332031 29.203125 C 96.332031 29.480469 96.1875 29.714844 95.898438 29.90625 C 95.613281 30.09375 95.214844 30.191406 94.707031 30.191406 C 94.207031 30.191406 93.8125 30.097656 93.523438 29.90625 M 93.867188 29.664062 C 94.09375 29.78125 94.375 29.835938 94.707031 29.835938 C 95.042969 29.835938 95.320312 29.78125 95.542969 29.667969 C 95.765625 29.558594 95.875 29.40625 95.875 29.210938 C 95.875 29.007812 95.765625 28.847656 95.542969 28.734375 C 95.324219 28.617188 95.046875 28.558594 94.707031 28.558594 C 94.371094 28.558594 94.089844 28.617188 93.867188 28.730469 C 93.640625 28.84375 93.53125 29.003906 93.53125 29.203125 C 93.53125 29.394531 93.644531 29.550781 93.867188 29.664062 "/>
<path style=" stroke:none;fill-rule:nonzero;fill:rgb(100%,100%,100%);fill-opacity:1;" d="M 97.730469 28.683594 C 97.964844 28.421875 98.21875 28.292969 98.496094 28.292969 C 98.773438 28.292969 99.03125 28.421875 99.261719 28.683594 C 99.492188 28.945312 99.605469 29.359375 99.605469 29.929688 C 99.605469 30.488281 99.492188 30.902344 99.265625 31.167969 C 99.039062 31.4375 98.78125 31.570312 98.496094 31.570312 C 98.210938 31.570312 97.953125 31.4375 97.722656 31.171875 C 97.492188 30.90625 97.378906 30.492188 97.378906 29.929688 C 97.378906 29.359375 97.496094 28.941406 97.730469 28.683594 M 97.972656 30.824219 C 98.097656 31.082031 98.269531 31.214844 98.5 31.214844 C 98.726562 31.214844 98.898438 31.082031 99.015625 30.824219 C 99.132812 30.5625 99.191406 30.265625 99.191406 29.925781 C 99.191406 29.597656 99.132812 29.300781 99.015625 29.039062 C 98.898438 28.78125 98.726562 28.652344 98.5 28.652344 C 98.273438 28.652344 98.097656 28.78125 97.972656 29.042969 C 97.851562 29.304688 97.785156 29.597656 97.785156 29.925781 C 97.789062 30.265625 97.851562 30.5625 97.972656 30.824219 M 100.503906 28.167969 L 100.921875 28.167969 L 100.921875 32.476562 L 100.503906 32.476562 Z M 100.503906 28.167969 "/>
<path style=" stroke:none;fill-rule:nonzero;fill:rgb(100%,100%,100%);fill-opacity:1;" d="M 101.636719 30.625 L 101.636719 30.28125 L 102.777344 30.28125 L 102.777344 29.644531 C 102.5625 29.570312 102.398438 29.472656 102.289062 29.351562 C 102.179688 29.230469 102.125 29.097656 102.125 28.957031 C 102.125 28.726562 102.265625 28.535156 102.542969 28.375 C 102.820312 28.21875 103.214844 28.140625 103.71875 28.140625 C 104.230469 28.140625 104.628906 28.21875 104.910156 28.382812 C 105.1875 28.542969 105.328125 28.734375 105.328125 28.964844 C 105.328125 29.101562 105.273438 29.234375 105.167969 29.351562 C 105.058594 29.472656 104.898438 29.570312 104.683594 29.644531 L 104.683594 30.28125 L 105.808594 30.28125 L 105.808594 30.625 Z M 102.511719 31.175781 C 102.796875 31.027344 103.199219 30.953125 103.722656 30.953125 C 104.25 30.953125 104.652344 31.027344 104.933594 31.179688 C 105.214844 31.335938 105.355469 31.527344 105.355469 31.761719 C 105.355469 31.988281 105.214844 32.175781 104.9375 32.332031 C 104.660156 32.488281 104.253906 32.566406 103.722656 32.566406 C 103.199219 32.566406 102.796875 32.488281 102.511719 32.332031 C 102.230469 32.175781 102.089844 31.984375 102.089844 31.757812 C 102.089844 31.519531 102.230469 31.328125 102.511719 31.175781 M 102.875 32.117188 C 103.085938 32.207031 103.367188 32.25 103.722656 32.25 C 104.070312 32.25 104.347656 32.207031 104.5625 32.117188 C 104.777344 32.03125 104.882812 31.914062 104.882812 31.761719 C 104.882812 31.601562 104.777344 31.476562 104.5625 31.386719 C 104.347656 31.300781 104.070312 31.257812 103.722656 31.257812 C 103.367188 31.257812 103.085938 31.300781 102.875 31.386719 C 102.660156 31.476562 102.554688 31.597656 102.554688 31.757812 C 102.554688 31.910156 102.660156 32.03125 102.875 32.117188 M 102.886719 29.316406 C 103.097656 29.414062 103.371094 29.457031 103.714844 29.457031 C 104.058594 29.457031 104.335938 29.414062 104.550781 29.320312 C 104.765625 29.230469 104.875 29.109375 104.875 28.960938 C 104.875 28.808594 104.765625 28.6875 104.550781 28.59375 C 104.335938 28.496094 104.058594 28.449219 103.714844 28.449219 C 103.375 28.449219 103.101562 28.496094 102.890625 28.585938 C 102.679688 28.675781 102.574219 28.800781 102.574219 28.949219 C 102.574219 29.097656 102.679688 29.222656 102.886719 29.316406 M 104.273438 29.730469 C 104.191406 29.746094 104.105469 29.757812 104.011719 29.765625 C 103.914062 29.773438 103.816406 29.777344 103.714844 29.777344 C 103.625 29.777344 103.53125 29.773438 103.4375 29.765625 C 103.347656 29.757812 103.265625 29.746094 103.191406 29.734375 L 103.191406 30.28125 L 104.273438 30.28125 Z M 104.273438 29.730469 "/>
<path style=" stroke:none;fill-rule:nonzero;fill:rgb(100%,100%,100%);fill-opacity:1;" d="M 106.375 28.964844 L 108.976562 28.964844 L 108.976562 29.3125 L 106.375 29.3125 Z M 106.863281 29.941406 C 107.070312 29.734375 107.347656 29.636719 107.6875 29.636719 C 108.015625 29.636719 108.285156 29.734375 108.496094 29.941406 C 108.707031 30.144531 108.8125 30.386719 108.8125 30.664062 C 108.8125 30.9375 108.707031 31.179688 108.496094 31.394531 C 108.285156 31.605469 108.015625 31.714844 107.6875 31.714844 C 107.355469 31.714844 107.082031 31.609375 106.867188 31.398438 C 106.652344 31.1875 106.546875 30.945312 106.546875 30.667969 C 106.546875 30.386719 106.652344 30.144531 106.863281 29.941406 M 107.167969 31.164062 C 107.292969 31.296875 107.464844 31.363281 107.6875 31.363281 C 107.90625 31.363281 108.074219 31.296875 108.199219 31.160156 C 108.324219 31.023438 108.386719 30.859375 108.386719 30.664062 C 108.386719 30.476562 108.324219 30.3125 108.199219 30.179688 C 108.074219 30.042969 107.90625 29.976562 107.6875 29.976562 C 107.464844 29.976562 107.292969 30.042969 107.167969 30.179688 C 107.042969 30.3125 106.984375 30.476562 106.984375 30.664062 C 106.984375 30.863281 107.042969 31.027344 107.167969 31.164062 M 107.003906 28.265625 L 108.355469 28.265625 L 108.355469 28.605469 L 107.003906 28.605469 Z M 109.652344 32.476562 L 109.652344 30.335938 L 108.90625 30.335938 L 108.90625 29.972656 L 109.652344 29.972656 L 109.652344 28.167969 L 110.074219 28.167969 L 110.074219 32.476562 Z M 109.652344 32.476562 "/>
<path style=" stroke:none;fill-rule:nonzero;fill:rgb(100%,100%,100%);fill-opacity:1;" d="M 113.679688 30.441406 C 113.515625 30.472656 113.273438 30.503906 112.949219 30.535156 C 112.625 30.566406 112.328125 30.585938 112.066406 30.59375 C 111.890625 30.597656 111.664062 30.597656 111.378906 30.601562 C 111.097656 30.605469 110.949219 30.605469 110.9375 30.605469 L 110.9375 29.273438 L 112.589844 29.273438 L 112.589844 28.664062 L 110.9375 28.664062 L 110.9375 28.328125 L 113 28.328125 L 113 29.605469 L 111.34375 29.605469 L 111.34375 30.257812 L 112.117188 30.25 C 112.320312 30.246094 112.589844 30.226562 112.921875 30.199219 C 113.25 30.167969 113.503906 30.136719 113.675781 30.101562 L 113.675781 30.441406 Z M 113.867188 32.507812 L 113.867188 31.394531 L 111.320312 31.394531 L 111.320312 31.042969 L 114.300781 31.042969 L 114.300781 32.507812 Z M 114.296875 29.546875 L 114.296875 30.839844 L 113.878906 30.839844 L 113.878906 28.167969 L 114.296875 28.167969 L 114.296875 29.191406 L 114.914062 29.191406 L 114.914062 29.546875 Z M 114.296875 29.546875 "/>
</g>
</svg>
