<?xml version="1.0" encoding="UTF-8"?>
<svg id="Layer_1" data-name="Layer 1" xmlns="http://www.w3.org/2000/svg" viewBox="0 0 193.87 45.74">
  <defs>
    <style>
      .cls-1 {
        fill: #575756;
        font-family: 'Government_160408', Government_160408;
        font-size: 20.5px;
        letter-spacing: -.04em;
      }

      .cls-2 {
        fill: #003964;
      }

      .cls-3 {
        fill: #ed1a3b;
      }
    </style>
  </defs>
  <g>
    <path class="cls-2" d="M35.31,21.83c-3.97-2.7-9.06-1.6-11.73,2.46-2.23,3.39-5.6,3.81-6.9,3.81-4.25,0-7.16-2.99-8.02-6.08h0s-.01-.06-.02-.09c0-.04-.02-.07-.03-.11-.34-1.29-.42-1.91-.42-3.28,0-7.4,7.59-15.63,18.52-15.63s17.6,8.52,19.25,13.26c-.03-.08-.05-.17-.08-.25C42.69,6.66,33.91,0,23.57,0,10.55,0,0,10.55,0,23.57c0,11.63,8.39,21.59,20.03,21.59,9.28,0,15.52-5.21,18.39-12.38,1.57-3.92.46-8.53-3.11-10.96Z"/>
    <path class="cls-3" d="M46.1,16.63c-1.38-4.62-7.83-13.72-19.39-13.72-10.93,0-18.52,8.24-18.52,15.63,0,1.37.08,1.99.42,3.28-.14-.56-.22-1.13-.22-1.68,0-7.7,7.71-13.04,15.64-13.04,10.73,0,19.43,8.7,19.43,19.43,0,8.41-4.84,15.69-11.88,19.19h0c9.07-3.28,15.54-11.96,15.54-22.16,0-2.41-.33-4.54-1.04-6.94Z"/>
  </g>
  <text class="cls-1" transform="translate(57.88 31.19)"><tspan x="0" y="0">국립서울현충원</tspan></text>
</svg>