<?xml version="1.0" encoding="utf-8"?>
<!-- Generator: Adobe Illustrator 13.0.0, SVG Export Plug-In . SVG Version: 6.00 Build 14948)  -->
<!DOCTYPE svg PUBLIC "-//W3C//DTD SVG 1.1//EN" "http://www.w3.org/Graphics/SVG/1.1/DTD/svg11.dtd">
<svg version="1.1" id="Layer_1" xmlns="http://www.w3.org/2000/svg" xmlns:xlink="http://www.w3.org/1999/xlink" x="0px" y="0px"
	 width="68px" height="68px" viewBox="0 0 68 68" enable-background="new 0 0 68 68" xml:space="preserve">
<g>
	<rect fill="none" width="68" height="68"/>
	<path d="M61.557,59.063H6.442c-1.28,0-2.322-1.043-2.322-2.322v-29.7H3.031C2.461,27.04,2,26.578,2,26.008V11.26
		c0-1.28,1.041-2.322,2.322-2.322h59.354C64.958,8.938,66,9.979,66,11.26v14.748c0,0.57-0.462,1.032-1.032,1.032h-1.089v29.7
		C63.879,58.02,62.838,59.063,61.557,59.063z M4.063,24.977h1.089c0.57,0,1.032,0.462,1.032,1.031V56.74
		c0,0.141,0.115,0.258,0.258,0.258h55.114c0.143,0,0.258-0.117,0.258-0.258V26.008c0-0.569,0.462-1.031,1.032-1.031h1.089V11.26
		c0-0.142-0.116-0.258-0.259-0.258H4.322c-0.143,0-0.259,0.116-0.259,0.258V24.977z"/>
	<path d="M64.968,35.031H3.031C2.461,35.031,2,34.57,2,34s0.461-1.031,1.031-1.031h61.937C65.538,32.969,66,33.43,66,34
		S65.538,35.031,64.968,35.031z"/>
</g>
<path d="M39.478,35.032H28.522c-0.57,0-1.033-0.462-1.033-1.032s0.463-1.032,1.033-1.032h10.955c0.57,0,1.033,0.462,1.033,1.032
	S40.048,35.032,39.478,35.032z"/>
</svg>
