<?xml version="1.0" encoding="utf-8"?>
<!-- Generator: Adobe Illustrator 13.0.0, SVG Export Plug-In . SVG Version: 6.00 Build 14948)  -->
<!DOCTYPE svg PUBLIC "-//W3C//DTD SVG 1.1//EN" "http://www.w3.org/Graphics/SVG/1.1/DTD/svg11.dtd">
<svg version="1.1" id="Layer_1" xmlns="http://www.w3.org/2000/svg" xmlns:xlink="http://www.w3.org/1999/xlink" x="0px" y="0px"
	 width="68px" height="68px" viewBox="0 0 68 68" enable-background="new 0 0 68 68" xml:space="preserve">
<g>
	<rect fill="none" width="68" height="68"/>
	<g>
		<path d="M51,34.797H34.258c-0.566,0-1.031-0.462-1.031-1.032V13.677c0-0.57,0.465-1.032,1.031-1.032
			c0.57,0,1.035,0.462,1.035,1.032v19.056H51c0.57,0,1.031,0.462,1.031,1.032S51.57,34.797,51,34.797z"/>
		<path d="M33.996,66C16.352,66,2,51.645,2,34S16.352,2,33.996,2C51.645,2,66,16.355,66,34S51.645,66,33.996,66z M33.996,4.063
			C17.492,4.063,4.063,17.493,4.063,34c0,16.508,13.43,29.936,29.934,29.936c16.508,0,29.938-13.428,29.938-29.936
			C63.934,17.493,50.504,4.063,33.996,4.063z"/>
	</g>
</g>
</svg>
