<?xml version="1.0" encoding="utf-8"?>
<!-- Generator: Adobe Illustrator 13.0.0, SVG Export Plug-In . SVG Version: 6.00 Build 14948)  -->
<!DOCTYPE svg PUBLIC "-//W3C//DTD SVG 1.1//EN" "http://www.w3.org/Graphics/SVG/1.1/DTD/svg11.dtd">
<svg version="1.1" id="Layer_1" xmlns="http://www.w3.org/2000/svg" xmlns:xlink="http://www.w3.org/1999/xlink" x="0px" y="0px"
	 width="68px" height="68px" viewBox="0 0 68 68" enable-background="new 0 0 68 68" xml:space="preserve">
<g>
	<rect fill="none" width="68" height="68"/>
	<g>
		<g>
			<path d="M62.685,66H5.316c-0.354,0-0.685-0.182-0.873-0.482c-0.189-0.299-0.212-0.674-0.059-0.994l3.843-8.053
				c0.171-0.359,0.534-0.586,0.932-0.586h48.744c0.364,0,0.702,0.191,0.888,0.504l4.781,8.053c0.188,0.318,0.192,0.715,0.01,1.037
				C63.398,65.801,63.056,66,62.685,66z M6.952,63.936h53.919l-3.555-5.988H9.811L6.952,63.936z"/>
		</g>
		<path d="M37.773,28.624c-0.168,0-0.336-0.04-0.489-0.122l-3.854-2.073l-3.894,2c-0.349,0.179-0.771,0.145-1.086-0.089
			c-0.316-0.234-0.472-0.627-0.401-1.014l0.779-4.307l-3.104-3.084c-0.279-0.276-0.377-0.688-0.251-1.061
			c0.125-0.372,0.45-0.642,0.84-0.695l4.336-0.588l1.975-3.906c0.176-0.348,0.532-0.566,0.922-0.566c0.003,0,0.006,0,0.01,0
			c0.393,0.004,0.749,0.229,0.92,0.584l1.899,3.942l4.325,0.67c0.389,0.06,0.709,0.335,0.827,0.71
			c0.117,0.375,0.013,0.785-0.271,1.056l-3.163,3.026l0.699,4.32c0.063,0.388-0.101,0.777-0.42,1.006
			C38.193,28.561,37.983,28.624,37.773,28.624z M33.441,24.23c0.168,0,0.336,0.041,0.488,0.123l2.49,1.339l-0.451-2.791
			c-0.054-0.336,0.06-0.676,0.305-0.911l2.044-1.955l-2.795-0.433c-0.336-0.052-0.624-0.266-0.771-0.571l-1.228-2.548l-1.276,2.523
			c-0.152,0.304-0.445,0.512-0.782,0.558l-2.802,0.381l2.007,1.992c0.241,0.239,0.349,0.582,0.288,0.916l-0.504,2.783l2.515-1.292
			C33.117,24.269,33.279,24.23,33.441,24.23z"/>
		<g>
			<path d="M48.091,43.684H18.903c-0.57,0-1.032-0.463-1.032-1.033s0.462-1.031,1.032-1.031h29.188c0.57,0,1.032,0.461,1.032,1.031
				S48.661,43.684,48.091,43.684z"/>
			<path d="M43.059,49.219H23.937c-0.57,0-1.032-0.463-1.032-1.031c0-0.57,0.462-1.033,1.032-1.033h19.122
				c0.57,0,1.032,0.463,1.032,1.033C44.091,48.756,43.629,49.219,43.059,49.219z"/>
		</g>
		<path d="M54.633,56.398c-0.57,0-1.032-0.461-1.032-1.031V10.311c0-0.143-0.116-0.259-0.259-0.259h-5.464
			c-0.275,0-0.539-0.109-0.732-0.305c-3.64-3.665-8.486-5.684-13.648-5.684c-5.163,0-10.009,2.019-13.647,5.684
			c-0.194,0.195-0.457,0.305-0.732,0.305h-5.466c-0.142,0-0.258,0.116-0.258,0.259v45.057c0,0.57-0.462,1.031-1.032,1.031
			s-1.032-0.461-1.032-1.031V10.311c0-1.281,1.042-2.322,2.322-2.322h5.042C22.686,4.122,27.926,2,33.497,2
			s10.812,2.122,14.804,5.988h5.041c1.281,0,2.323,1.041,2.323,2.322v45.057C55.665,55.938,55.203,56.398,54.633,56.398z"/>
	</g>
</g>
</svg>
