<?xml version="1.0" encoding="utf-8"?>
<!-- Generator: Adobe Illustrator 13.0.0, SVG Export Plug-In . SVG Version: 6.00 Build 14948)  -->
<!DOCTYPE svg PUBLIC "-//W3C//DTD SVG 1.1//EN" "http://www.w3.org/Graphics/SVG/1.1/DTD/svg11.dtd">
<svg version="1.1" id="Layer_1" xmlns="http://www.w3.org/2000/svg" xmlns:xlink="http://www.w3.org/1999/xlink" x="0px" y="0px"
	 width="68px" height="68px" viewBox="0 0 68 68" enable-background="new 0 0 68 68" xml:space="preserve">
<g>
	<rect fill="none" width="68" height="68"/>
	<g>
		<path d="M36.695,57.924c-0.271,0-0.534-0.105-0.73-0.301c-0.24-0.242-0.347-0.586-0.283-0.922l1.521-8.113
			c0.105-0.561,0.646-0.926,1.205-0.824c0.56,0.105,0.929,0.645,0.824,1.205L37.988,55.6l6.631-1.244
			c0.561-0.1,1.101,0.266,1.205,0.824c0.105,0.561-0.264,1.1-0.824,1.205l-8.114,1.521C36.823,57.918,36.759,57.924,36.695,57.924z"
			/>
		<path d="M45.041,56.404c-0.265,0-0.529-0.102-0.73-0.303l-6.824-6.824c-0.193-0.193-0.303-0.457-0.302-0.73
			c0-0.275,0.109-0.537,0.304-0.73l19.631-19.552c0.796-0.797,2.093-0.796,2.892,0.001l5.392,5.392c0.797,0.798,0.797,2.096,0,2.894
			L45.769,56.104C45.567,56.303,45.304,56.404,45.041,56.404z M39.678,48.549l5.364,5.363l18.901-18.823l-5.393-5.363L39.678,48.549
			z"/>
		<path d="M8.158,64.73c-0.57,0-1.032-0.463-1.032-1.033s0.462-1.031,1.032-1.031c1.621,0,2.868-0.449,3.707-1.336
			c1.384-1.463,1.302-3.717,1.301-3.74L13.164,3.551c0-0.569,0.462-1.031,1.032-1.031s1.032,0.462,1.032,1.031v53.982
			c0.006,0.072,0.146,3.094-1.864,5.217C12.121,64.064,10.369,64.73,8.158,64.73z"/>
		<path d="M48.704,20.822H22.315c-0.57,0-1.032-0.462-1.032-1.032c0-0.569,0.462-1.031,1.032-1.031h26.389
			c0.57,0,1.032,0.462,1.032,1.031C49.736,20.36,49.274,20.822,48.704,20.822z"/>
		<path d="M48.704,28.941H22.315c-0.57,0-1.032-0.461-1.032-1.031s0.462-1.032,1.032-1.032h26.389c0.57,0,1.032,0.462,1.032,1.032
			S49.274,28.941,48.704,28.941z"/>
		<path d="M35.51,37.062H22.315c-0.57,0-1.032-0.462-1.032-1.032c0-0.569,0.462-1.031,1.032-1.031H35.51
			c0.57,0,1.032,0.462,1.032,1.031C36.542,36.6,36.08,37.062,35.51,37.062z"/>
		<path d="M35.51,46.197H22.315c-0.57,0-1.032-0.463-1.032-1.033s0.462-1.032,1.032-1.032H35.51c0.57,0,1.032,0.462,1.032,1.032
			S36.08,46.197,35.51,46.197z"/>
		<path d="M45.363,65.48H13.478C6.076,65.48,2,62.408,2,56.828V46.455c0-1.281,1.041-2.323,2.322-2.323h8.66l0.176-39.301
			c0.006-1.274,1.048-2.312,2.322-2.312h39.038c1.281,0,2.322,1.041,2.322,2.322v26.113c0,0.57-0.462,1.031-1.032,1.031
			c-0.569,0-1.031-0.461-1.031-1.031V4.842c0-0.143-0.116-0.259-0.259-0.259H15.48c-0.142,0-0.258,0.115-0.258,0.257l-0.181,40.329
			c-0.003,0.567-0.464,1.028-1.032,1.028H4.322c-0.143,0-0.258,0.115-0.258,0.258v10.373c0,4.371,3.167,6.588,9.413,6.588h31.886
			c5.366,0,9.414-3.705,9.414-8.617v-9.635c0-0.57,0.462-1.032,1.031-1.032c0.57,0,1.032,0.462,1.032,1.032v9.635
			C56.841,60.889,51.906,65.48,45.363,65.48z"/>
	</g>
</g>
</svg>
