<?xml version="1.0" encoding="utf-8"?>
<!-- Generator: Adobe Illustrator 13.0.0, SVG Export Plug-In . SVG Version: 6.00 Build 14948)  -->
<!DOCTYPE svg PUBLIC "-//W3C//DTD SVG 1.1//EN" "http://www.w3.org/Graphics/SVG/1.1/DTD/svg11.dtd">
<svg version="1.1" id="Layer_1" xmlns="http://www.w3.org/2000/svg" xmlns:xlink="http://www.w3.org/1999/xlink" x="0px" y="0px"
	 width="68px" height="68px" viewBox="0 0 68 68" enable-background="new 0 0 68 68" xml:space="preserve">
<g>
	<rect fill="none" width="68" height="68"/>
	<g>
		<path d="M40.987,43.041c-0.168,0-0.336-0.041-0.488-0.123l-6.602-3.551l-6.668,3.426c-0.35,0.178-0.771,0.145-1.086-0.09
			c-0.316-0.232-0.471-0.625-0.402-1.012l1.338-7.377l-5.318-5.282c-0.279-0.277-0.377-0.688-0.252-1.061s0.451-0.642,0.84-0.695
			l7.428-1.007l3.381-6.69c0.178-0.352,0.541-0.523,0.932-0.567c0.393,0.004,0.75,0.23,0.92,0.585l3.254,6.753l7.408,1.146
			c0.387,0.061,0.709,0.336,0.826,0.711c0.117,0.374,0.012,0.784-0.271,1.056l-5.416,5.182l1.197,7.399
			c0.063,0.389-0.102,0.779-0.422,1.006C41.407,42.977,41.198,43.041,40.987,43.041z M33.907,37.169c0.17,0,0.338,0.041,0.49,0.123
			l5.236,2.817l-0.949-5.871c-0.055-0.336,0.061-0.676,0.305-0.91l4.299-4.111l-5.877-0.911c-0.336-0.052-0.625-0.266-0.771-0.571
			l-2.582-5.357l-2.684,5.308c-0.152,0.304-0.445,0.512-0.781,0.558L24.7,29.041l4.219,4.192c0.24,0.239,0.348,0.582,0.287,0.916
			l-1.061,5.852l5.291-2.718C33.585,37.207,33.747,37.169,33.907,37.169z"/>
		<g>
			<path d="M44.856,57.652c-0.402,0-0.785-0.236-0.951-0.631c-0.223-0.525,0.023-1.131,0.549-1.352
				c9.965-4.215,16.404-13.93,16.404-24.748c0-14.809-12.049-26.858-26.857-26.858c-14.811,0-26.859,12.05-26.859,26.858
				c0,10.346,6.049,19.885,15.41,24.303c0.516,0.244,0.736,0.859,0.494,1.375c-0.244,0.516-0.857,0.734-1.375,0.492
				c-10.08-4.758-16.594-15.029-16.594-26.17C5.077,14.975,18.052,2,34.001,2c15.947,0,28.922,12.975,28.922,28.922
				c0,11.65-6.934,22.109-17.666,26.648C45.126,57.625,44.991,57.652,44.856,57.652z"/>
			<path d="M59.954,66H8.044c-0.354,0-0.684-0.182-0.873-0.482c-0.188-0.299-0.211-0.676-0.057-0.996l3.811-7.961
				c0.172-0.359,0.533-0.588,0.932-0.588h43.357c0.363,0,0.699,0.191,0.887,0.504l4.742,7.963c0.189,0.318,0.193,0.715,0.01,1.039
				C60.669,65.801,60.325,66,59.954,66z M9.683,63.936h48.455l-3.512-5.898H12.507L9.683,63.936z"/>
		</g>
	</g>
</g>
</svg>
