<?xml version="1.0" encoding="utf-8"?>
<!-- Generator: Adobe Illustrator 13.0.0, SVG Export Plug-In . SVG Version: 6.00 Build 14948)  -->
<!DOCTYPE svg PUBLIC "-//W3C//DTD SVG 1.1//EN" "http://www.w3.org/Graphics/SVG/1.1/DTD/svg11.dtd">
<svg version="1.1" id="Layer_1" xmlns="http://www.w3.org/2000/svg" xmlns:xlink="http://www.w3.org/1999/xlink" x="0px" y="0px"
	 width="67.996px" height="68px" viewBox="0 0 67.996 68" enable-background="new 0 0 67.996 68" xml:space="preserve">
<g>
	<rect fill="none" width="67.996" height="68"/>
	<g>
		<g>
			<path d="M62.266,66H5.73c-1.281,0-2.324-1.041-2.324-2.322v-35.93c0-2.578,1.281-4.772,4.148-7.114
				c0.438-0.358,1.094-0.297,1.453,0.146c0.359,0.441,0.293,1.092-0.148,1.452c-2.375,1.939-3.387,3.59-3.387,5.516v35.93
				c0,0.141,0.117,0.258,0.258,0.258h56.535c0.141,0,0.262-0.117,0.262-0.258v-35.93c0-1.801-1.414-4.16-3.359-5.608
				c-0.457-0.341-0.551-0.987-0.211-1.444s0.984-0.553,1.441-0.212c2.508,1.865,4.191,4.785,4.191,7.265v35.93
				C64.59,64.959,63.547,66,62.266,66z"/>
			<path d="M22.367,11.929c-0.316,0-0.625-0.145-0.828-0.418c-0.344-0.458-0.246-1.104,0.211-1.444l8.059-5.975
				C30.066,3.891,32.563,2,34.566,2c2.039,0,4.375,1.98,4.637,2.207l7.281,5.629c0.453,0.349,0.535,0.997,0.188,1.448
				s-1,0.534-1.449,0.186l-7.328-5.667c-0.805-0.695-2.367-1.739-3.328-1.739c-0.98,0-2.676,1.026-3.512,1.674l-8.074,5.988
				C22.797,11.862,22.582,11.929,22.367,11.929z"/>
			<path d="M33.84,55.125c-1.734,0-4.125-2.027-4.723-2.559L3.863,35.64c-0.473-0.317-0.598-0.959-0.281-1.432
				c0.316-0.474,0.957-0.602,1.434-0.283l25.313,16.966c0.039,0.027,0.078,0.059,0.113,0.092c1.117,1.004,2.75,2.078,3.398,2.078
				c0.715,0,2.441-1.207,3.414-2.08c0.039-0.033,0.078-0.064,0.121-0.092l25.613-16.967c0.477-0.315,1.113-0.185,1.43,0.29
				c0.316,0.476,0.188,1.116-0.289,1.431L38.574,52.568C37.973,53.102,35.574,55.125,33.84,55.125z"/>
			<path d="M8.207,38.403c-0.57,0-1.031-0.462-1.031-1.032V12.187c0-1.281,1.043-2.322,2.32-2.322H58.5
				c1.281,0,2.32,1.041,2.32,2.322v25.154c0,0.57-0.461,1.032-1.031,1.032s-1.031-0.462-1.031-1.032V12.187
				c0-0.14-0.117-0.259-0.258-0.259H9.496c-0.141,0-0.258,0.119-0.258,0.259v25.185C9.238,37.941,8.777,38.403,8.207,38.403z"/>
		</g>
		<path d="M50.824,25.271H17.172c-0.57,0-1.031-0.462-1.031-1.032s0.461-1.032,1.031-1.032h33.652c0.57,0,1.035,0.462,1.035,1.032
			S51.395,25.271,50.824,25.271z"/>
		<path d="M50.824,33.758H17.172c-0.57,0-1.031-0.462-1.031-1.032s0.461-1.032,1.031-1.032h33.652c0.57,0,1.035,0.462,1.035,1.032
			S51.395,33.758,50.824,33.758z"/>
	</g>
</g>
</svg>
