<?xml version="1.0" encoding="utf-8"?>
<!-- Generator: Adobe Illustrator 13.0.0, SVG Export Plug-In . SVG Version: 6.00 Build 14948)  -->
<!DOCTYPE svg PUBLIC "-//W3C//DTD SVG 1.1//EN" "http://www.w3.org/Graphics/SVG/1.1/DTD/svg11.dtd">
<svg version="1.1" id="Layer_1" xmlns="http://www.w3.org/2000/svg" xmlns:xlink="http://www.w3.org/1999/xlink" x="0px" y="0px"
	 width="68px" height="67.998px" viewBox="0 0 68 67.998" enable-background="new 0 0 68 67.998" xml:space="preserve">
<g>
	<rect fill="none" width="68" height="67.998"/>
	<g>
		<path d="M33.995,60.475c-0.148,0-0.297-0.033-0.434-0.096c-0.473-0.221-11.605-5.449-18.539-12.38C8.582,41.557,2,33.738,2,24.594
			c0-9.413,7.656-17.07,17.065-17.07c6.309,0,11.953,3.393,14.93,8.812c2.977-5.419,8.617-8.812,14.934-8.812
			c9.409,0,17.069,7.658,17.069,17.07c0,10.327-6.473,17.987-11.336,22.852c-8.245,8.246-19.804,12.771-20.296,12.958
			C34.249,60.451,34.124,60.475,33.995,60.475z M19.065,9.587c-8.272,0-15.003,6.731-15.003,15.006
			c0,8.391,6.277,15.802,12.421,21.946c5.953,5.951,15.484,10.77,17.547,11.775c2.125-0.881,12.09-5.244,19.171-12.33
			c7.422-7.417,10.73-14.015,10.73-21.391c0-8.275-6.73-15.006-15.003-15.006c-6.223,0-11.707,3.752-13.973,9.558
			c-0.152,0.396-0.535,0.657-0.961,0.657c-0.422,0.001-0.805-0.26-0.961-0.656C30.769,13.339,25.284,9.587,19.065,9.587z"/>
		<g>
			<path d="M33.077,38.577c-0.004,0-0.008,0-0.008,0c-0.219-0.002-5.387-0.076-8.711-3.397c-3.324-3.326-3.398-8.495-3.398-8.714
				c-0.004-0.276,0.105-0.542,0.301-0.737c0.199-0.195,0.465-0.296,0.738-0.302c0.219,0.001,5.387,0.078,8.707,3.4l0,0l0,0
				c3.324,3.322,3.402,8.491,3.402,8.71c0.004,0.276-0.105,0.542-0.301,0.737C33.612,38.469,33.351,38.577,33.077,38.577z
				 M23.124,27.59c0.203,1.525,0.82,4.254,2.691,6.13c1.875,1.873,4.605,2.49,6.129,2.694c-0.203-1.525-0.824-4.253-2.695-6.127l0,0
				C27.374,28.412,24.647,27.794,23.124,27.59z"/>
			<path d="M34.554,38.577c-0.273,0-0.535-0.108-0.73-0.303c-0.195-0.195-0.305-0.461-0.301-0.737c0-0.219,0.078-5.388,3.402-8.71
				l0,0c3.32-3.323,8.488-3.399,8.707-3.4c0.313,0.009,0.543,0.106,0.738,0.302s0.305,0.461,0.301,0.737
				c0,0.219-0.074,5.387-3.395,8.713c-3.324,3.322-8.496,3.396-8.715,3.398C34.562,38.577,34.558,38.577,34.554,38.577z
				 M44.511,27.59c-1.527,0.204-4.254,0.822-6.125,2.697l0,0c-1.875,1.874-2.496,4.602-2.699,6.127
				c1.523-0.204,4.254-0.821,6.129-2.695C43.69,31.844,44.308,29.115,44.511,27.59z M37.655,29.558h0.012H37.655z"/>
			<path d="M33.757,46.583c-0.57,0-1.031-0.461-1.031-1.031v-8.006c0-0.57,0.461-1.032,1.031-1.032s1.031,0.462,1.031,1.032v8.006
				C34.788,46.122,34.327,46.583,33.757,46.583z"/>
		</g>
	</g>
</g>
</svg>
