<?xml version="1.0" encoding="utf-8"?>
<!-- Generator: Adobe Illustrator 13.0.0, SVG Export Plug-In . SVG Version: 6.00 Build 14948)  -->
<!DOCTYPE svg PUBLIC "-//W3C//DTD SVG 1.1//EN" "http://www.w3.org/Graphics/SVG/1.1/DTD/svg11.dtd">
<svg version="1.1" id="Layer_1" xmlns="http://www.w3.org/2000/svg" xmlns:xlink="http://www.w3.org/1999/xlink" x="0px" y="0px"
	 width="68.002px" height="68px" viewBox="0 0 68.002 68" enable-background="new 0 0 68.002 68" xml:space="preserve">
<g>
	<rect fill="none" width="68.002" height="68"/>
	<g>
		<g>
			<path d="M59.236,45.447h-5.141c-0.566,0-1.031-0.463-1.031-1.033s0.465-1.031,1.031-1.031h4.109V8.98
				c0-0.143-0.117-0.26-0.258-0.26H10.057c-0.141,0-0.258,0.117-0.258,0.26v34.402H35.58c0.57,0,1.035,0.461,1.035,1.031
				s-0.465,1.033-1.035,1.033H8.768c-0.57,0-1.035-0.463-1.035-1.033V8.98c0-1.281,1.043-2.322,2.324-2.322h47.891
				c1.281,0,2.32,1.041,2.32,2.322v35.434C60.268,44.984,59.807,45.447,59.236,45.447z"/>
			<path d="M63.994,58.529H4.01c-0.684,0-1.313-0.342-1.684-0.914s-0.43-1.285-0.148-1.908l5.66-11.74
				c0.246-0.512,0.863-0.729,1.379-0.482c0.512,0.248,0.727,0.865,0.48,1.379L4.049,56.574l59.945-0.109l-5.688-11.602
				c-0.246-0.514-0.031-1.131,0.48-1.379c0.516-0.248,1.133-0.031,1.379,0.482l5.648,11.711c0.293,0.652,0.234,1.365-0.137,1.938
				S64.678,58.529,63.994,58.529z"/>
			<path d="M38.209,21.34H17.178c-0.57,0-1.031-0.463-1.031-1.033s0.461-1.031,1.031-1.031h21.031c0.57,0,1.031,0.461,1.031,1.031
				S38.779,21.34,38.209,21.34z"/>
			<path d="M27.693,29.752H17.178c-0.57,0-1.031-0.463-1.031-1.033s0.461-1.031,1.031-1.031h10.516c0.57,0,1.031,0.461,1.031,1.031
				S28.264,29.752,27.693,29.752z"/>
		</g>
		<g>
			<path d="M44.768,54.223c-5.371,0-9.734-4.367-9.734-9.734s4.363-9.734,9.734-9.734c5.367,0,9.73,4.367,9.73,9.734
				S50.135,54.223,44.768,54.223z M44.768,36.818c-4.23,0-7.672,3.441-7.672,7.67s3.441,7.67,7.672,7.67
				c4.227,0,7.668-3.441,7.668-7.67S48.994,36.818,44.768,36.818z"/>
			<path d="M59.295,61.342c-0.281,0-0.563-0.115-0.766-0.34l-8.594-9.492c-0.383-0.422-0.352-1.076,0.07-1.457
				c0.422-0.385,1.074-0.352,1.457,0.07l8.598,9.494c0.383,0.422,0.348,1.074-0.074,1.457
				C59.791,61.254,59.541,61.342,59.295,61.342z"/>
		</g>
	</g>
</g>
</svg>
