<svg xmlns="http://www.w3.org/2000/svg" xmlns:xlink="http://www.w3.org/1999/xlink" width="291.309" height="153.768" viewBox="0 0 291.309 153.768">
  <defs>
    <linearGradient id="linear-gradient" x1="0.949" y1="0.803" x2="0.286" y2="0.046" gradientUnits="objectBoundingBox">
      <stop offset="0" stop-color="#f6b340"/>
      <stop offset="1" stop-color="#c1240f"/>
    </linearGradient>
  </defs>
  <g id="그룹_3" data-name="그룹 3" transform="translate(-190.445 -306.175)">
    <path id="패스_1" data-name="패스 1" d="M217.553,362.713s18.165-18.678,43.53-11.65,33.079,38.9,22.621,60.148a.629.629,0,0,1-.689.13s-.379-.377.227-1.057,3.174-8.17,1.363-10.136-5.75-.456-5.75-.456,16.033-19.659-.678-30.32c0,0,1.737,15.727-13.161,16.79,0,0-7.787-10.967,2.27-18.378,0,0-11.688,9.478-29.943,6.5A30.84,30.84,0,0,1,217.553,362.713Z" fill="url(#linear-gradient)"/>
    <path id="패스_2" data-name="패스 2" d="M269.555,308.6s2.5,1.512-.909,15.05,1.438,23.892,3.86,26.011c0,0-1.115-3.4.3-8.924,1.726-6.73.528-13.837-.074-15.122,0,0,3.394,3.411,1.661,13.838-1.145,6.9-2.117,11.948,1.663,16.334a5.854,5.854,0,0,1-.529-7.41C278.249,344.137,290.426,324.255,269.555,308.6Z" fill="#97c927"/>
    <g id="그룹_1" data-name="그룹 1">
      <path id="패스_3" data-name="패스 3" d="M300.514,333.357s-.921,2.419-9.158,6.509S278.919,353,281.625,359.273c0,0,1.437-3.224,10.427-3.168s9.154-1.724,9.154-1.724-6.911-6.452-13.591-1.843C287.615,352.538,304.029,339.923,300.514,333.357Z" fill="#1ba0c0"/>
      <path id="패스_4" data-name="패스 4" d="M298.61,346.141s-2.645.116-2.645,2.307,1.81,2.3,2.592,1.094a9.683,9.683,0,0,0,.978-1.728C300.231,346.49,298.61,346.141,298.61,346.141Z" fill="#1ba0c0"/>
    </g>
    <path id="패스_5" data-name="패스 5" d="M249.981,335.155s-16.564-12.892-19.783-6.817,17.237,15.959,20.609,16.709c0,0,12.514,4.2,16.784,4.649a375.147,375.147,0,0,1-18.435-35c-7.42-16.714-9.168-4.437-8.469-.074A42.233,42.233,0,0,0,249.981,335.155Z" fill="#f7c918"/>
    <path id="패스_6" data-name="패스 6" d="M351.162,406.688s-.645.813-1.346.315.009-1.276.009-1.276a36.477,36.477,0,0,1,5.6-6.435q2.67-2.313,4.441-2.313a1.643,1.643,0,0,1,1.442.578,3.932,3.932,0,0,1,.4,2.1,41.752,41.752,0,0,1-.4,4.8q-.409,3.144-1.185,7.57h.249q3.552-8.908,5.8-11.977t4.743-3.067a2.271,2.271,0,0,1,1.8.7,2.96,2.96,0,0,1,.626,2.045,7.261,7.261,0,0,1-.937,4.031,3.056,3.056,0,0,1-2.714,1.408c-.122,0-.373-.011-.749-.031s-.675-.032-.9-.032q-2.589,0-4.66,4.22t-4.042,13.431l-.376,1.581a1.084,1.084,0,0,1-.485.764,3.543,3.543,0,0,1-1.478.2h-3.4a4.514,4.514,0,0,1-1.745-.187.756.756,0,0,1-.313-.715,1.022,1.022,0,0,1,.044-.247.857.857,0,0,0,.047-.249l2.34-13.988c.272-1.437.476-2.651.623-3.639a17.247,17.247,0,0,0,.219-1.923,3.055,3.055,0,0,0-.08-.828c-.051-.156-.129-.246-.228-.265q-.441,0-1.187.771A28.829,28.829,0,0,0,351.162,406.688Z" fill="#193b8a"/>
    <path id="패스_7" data-name="패스 7" d="M396.266,418.591c.451.587-.747,1.47-.747,1.47a39.021,39.021,0,0,1-7.339,4.571,14.808,14.808,0,0,1-5.968,1.406,7.1,7.1,0,0,1-5.691-2.238q-1.928-2.242-1.925-6.631a19.787,19.787,0,0,1,1.44-7.309,22.982,22.982,0,0,1,4.151-6.72,21.758,21.758,0,0,1,5.532-4.576,11.512,11.512,0,0,1,5.6-1.585,6.317,6.317,0,0,1,4.316,1.417,4.73,4.73,0,0,1,1.618,3.744q0,3.451-3.474,5.938t-10.994,4.415c-.1.587-.183,1.168-.232,1.753s-.075,1.179-.075,1.783a6.6,6.6,0,0,0,1.239,4.337,4.44,4.44,0,0,0,3.622,1.486,8.826,8.826,0,0,0,3.24-.725,22.5,22.5,0,0,0,4.075-2.23S395.8,417.977,396.266,418.591Zm-13.048-7.943a9.843,9.843,0,0,0,5.46-3.18,8.281,8.281,0,0,0,2.046-5.553,2.92,2.92,0,0,0-.5-1.831,1.687,1.687,0,0,0-1.423-.643q-1.583,0-2.949,2.741A39.378,39.378,0,0,0,383.218,410.648Z" fill="#193b8a"/>
    <path id="패스_8" data-name="패스 8" d="M261.854,395.866c-9.44,0-18.4,7.055-20.016,15.763S246.568,427.4,256,427.4s18.4-7.061,20.017-15.768S271.292,395.866,261.854,395.866Zm-4.647,27.361c-3.6,0-5.56-5.194-4.373-11.6s5.074-11.6,8.677-11.6,5.558,5.193,4.372,11.6S260.809,423.227,257.207,423.227Z" fill="#193b8a"/>
    <path id="패스_9" data-name="패스 9" d="M477.1,416.5c-.809-.7-1.67.49-1.67.49a27.571,27.571,0,0,1-2.721,3.039q-1.17,1.086-1.734,1.084a.523.523,0,0,1-.429-.232.977.977,0,0,1-.172-.6,4.72,4.72,0,0,1,.049-.606c.032-.216.079-.447.142-.7l3.953-14.632a14,14,0,0,0,.3-1.594,11.064,11.064,0,0,0,.117-1.539,4.957,4.957,0,0,0-.809-3.07,2.879,2.879,0,0,0-2.4-1.036q-2.584,0-6.166,2.889a48.891,48.891,0,0,0-7.788,8.413l.745-3.876q.246-1.16.389-2.178a13.616,13.616,0,0,0,.141-1.8,4.018,4.018,0,0,0-.7-2.614,2.665,2.665,0,0,0-2.161-.832q-2.487,0-6,2.873A51.137,51.137,0,0,0,442.4,408.4l1.024-5.4c.081-.419.142-.826.187-1.223a11.151,11.151,0,0,0,.065-1.162,4.172,4.172,0,0,0-.7-2.653,2.618,2.618,0,0,0-2.162-.865q-2.025,0-4.747,2.33a39.336,39.336,0,0,0-6.024,6.957s-.676.851-.02,1.315c.73.512,1.422-.386,1.422-.386l.312-.4q2.748-3.535,3.4-3.535a.422.422,0,0,1,.329.294,2.145,2.145,0,0,1,.108.79,6.5,6.5,0,0,1-.108.7c-.073.4-.142.759-.2,1.069l-3.265,15.9c-.1.662-.293,1.943-.308,2.545-.007.226.141.4.435.482a34.267,34.267,0,0,0,4.041.136,3.7,3.7,0,0,0,2.409-.528,7.457,7.457,0,0,0,1.072-3.164l1.61-7.6a6.625,6.625,0,0,1,1.321-2.6q3.67-4.8,5.122-6.309,1.65-1.725,2.52-1.722a.834.834,0,0,1,.637.217.982.982,0,0,1,.2.682,9.762,9.762,0,0,1-.06,1.07c-.043.359-.1.729-.186,1.1L447.5,422.137c-.021.146-.061.375-.125.681a12.791,12.791,0,0,0-.247,1.864c0,.206.154.36.451.465a5.482,5.482,0,0,0,1.57.153h2.365c1.778,0,2.919-1.206,3.42-3.631l.029-.061,1.613-7.369a6.76,6.76,0,0,1,1.045-2.484c2.681-3.407,4.539-5.647,5.552-6.684,1.108-1.125,1.95-1.689,2.534-1.689a.939.939,0,0,1,.736.264,1.223,1.223,0,0,1,.235.82,4.885,4.885,0,0,1-.081.868c-.052.289-.123.6-.2.932l-2.774,11.28q-.534,2.225-.709,3.259a11.823,11.823,0,0,0-.171,1.807,3.845,3.845,0,0,0,.729,2.609,3.062,3.062,0,0,0,2.383.817,8.767,8.767,0,0,0,5.177-1.881,29.975,29.975,0,0,0,5.737-6.019S477.675,416.992,477.1,416.5Z" fill="#193b8a"/>
    <path id="패스_10" data-name="패스 10" d="M424.966,418.3c-.767.736-1.454,1.342-2.042,1.808a3.612,3.612,0,0,1-1.578.886.426.426,0,0,1-.361-.194.924.924,0,0,1-.138-.546,6.127,6.127,0,0,1,.047-.8,5.6,5.6,0,0,1,.142-.769l3.423-15.754c.844-4.129-1.237-5.892-3.739-5.859a23.237,23.237,0,0,0-5.345.972,20.56,20.56,0,0,0-6.133,3.075,26.634,26.634,0,0,0-7.613,8.328,19.706,19.706,0,0,0-2.6,9.79,9.005,9.005,0,0,0,1.151,4.88,3.472,3.472,0,0,0,3.045,1.8,5.07,5.07,0,0,0,2.59-.928,39.014,39.014,0,0,0,4.672-3.876l3.249-3.052q-.189,1.188-.283,2.067c-.057.584-.09,1.106-.09,1.563a5.376,5.376,0,0,0,.764,3.21,2.755,2.755,0,0,0,2.354,1.016,6.725,6.725,0,0,0,3.509-1.317,58.346,58.346,0,0,0,6.065-5.078c.332-.4.773-.995.253-1.489C425.891,417.631,425.154,418.092,424.966,418.3Zm-8.086-14.681-2.16,10.017h0c-.518,1.714-4.93,5.889-6.727,5.88a2.245,2.245,0,0,1-1.906-1.25,5.985,5.985,0,0,1-.778-3.2,14.673,14.673,0,0,1,3.4-9.684,11.062,11.062,0,0,1,6.565-4c.491-.028,1.2.012,1.46.452C416.733,401.83,417.1,402.159,416.88,403.616Z" fill="#193b8a"/>
    <path id="패스_11" data-name="패스 11" d="M231.824,387.421q-6.218-4.727-18.118-4.726H194.62a4.476,4.476,0,0,1,1.868,4.62l.013,0-5.668,26.9c-.219,1.127-.968,5.253.488,7.146,0,0,2.009,3.351,8.284,3.927l8.179.008a58.26,58.26,0,0,0,7.133-.359,35.223,35.223,0,0,0,5.425-1.105,26.594,26.594,0,0,0,10.158-5.409,21.314,21.314,0,0,0,5.594-7.62,23.828,23.828,0,0,0,1.944-9.639Q238.038,392.152,231.824,387.421Zm-9.505,28.985q-5.737,5.818-15.236,5.816-3.615,0-4.857-.809a3.251,3.251,0,0,1-1.247-2.953,8.5,8.5,0,0,1,.06-.918c.045-.342.128-.845.252-1.508l6.385-30.506h1.775q9.27,0,13.944,3.887t4.67,11.6Q228.065,410.594,222.319,416.406Z" fill="#193b8a"/>
    <path id="패스_12" data-name="패스 12" d="M339.548,387.421q-6.21-4.727-18.118-4.726H302.484a4.52,4.52,0,0,1,1.964,3.546l-5.9,27.978c-.216,1.127-.962,5.253.492,7.146,0,0,2.008,3.351,8.284,3.927l8.185.008a58.339,58.339,0,0,0,7.133-.359,35.176,35.176,0,0,0,5.427-1.105,26.666,26.666,0,0,0,10.159-5.409,21.288,21.288,0,0,0,5.593-7.62,23.794,23.794,0,0,0,1.944-9.639Q345.764,392.152,339.548,387.421Zm-9.5,28.985q-5.746,5.818-15.247,5.816-3.613,0-4.861-.809a3.253,3.253,0,0,1-1.246-2.953,7.893,7.893,0,0,1,.065-.918q.064-.513.249-1.508l6.384-30.506h1.776q9.274,0,13.954,3.887t4.669,11.6Q335.793,410.594,330.05,416.406Z" fill="#193b8a"/>
    <g id="그룹_2" data-name="그룹 2">
      <path id="패스_13" data-name="패스 13" d="M422.873,445.642c-.059-.038-.271-.289-.394-.314s-.339-.388-.465-.453a2.552,2.552,0,0,0-.558-.068.388.388,0,0,0-.255-.035,3.644,3.644,0,0,0-.51.043.84.84,0,0,1-.379.1,1.209,1.209,0,0,0-.274.031.373.373,0,0,0-.159,0,1.447,1.447,0,0,0-.289.1c-.029.039-.151.234-.239.261s-.29.049-.314.089a.585.585,0,0,1-.351.173c-.174.016-.376.287-.465.31s-.315.121-.364.052c-.009-.018,0-.052.039-.079s.023-.171.027-.2c0-.016.043-.049.105-.1s.233-.159.241-.2a1.726,1.726,0,0,1,.067-.211.636.636,0,0,0,.084-.293c.012-.173.308-.351.3-.394s-.009-.157.009-.158a3.472,3.472,0,0,0,.189-.733c.063-.395.3-1.124.267-1.254a.965.965,0,0,0-.179-.326c-.014,0-.128-.025-.15-.078a.924.924,0,0,0-.369-.354,1.937,1.937,0,0,1-.344-.179.619.619,0,0,0-.19-.115c-.107-.035-.362-.236-.4-.216a.419.419,0,0,1-.247.008.7.7,0,0,0-.431.036c-.086.061-.272-.051-.308-.038s-.139.027-.143.006-.036-.077-.054-.075a3.093,3.093,0,0,0-.513.1,3.211,3.211,0,0,0-.6.265.444.444,0,0,1-.188.152c-.073.025-.541.12-.906.237s-1.262.535-1.32.509c-.027-.011-.045-.049-.059-.081a1.53,1.53,0,0,1-.147-.413,2.353,2.353,0,0,1,.072-.741c0-.056-.07-.074-.075-.142a1.222,1.222,0,0,1,.267-.52c.16-.2.026-.422.033-.488,0-.04.046-.054.093-.052s.133-.125.122-.169a.108.108,0,0,1,.014-.1.3.3,0,0,1,.074-.044c.081-.034.081-.056.081-.056a.38.38,0,0,1,.331-.2c.17,0,.468-.043.5-.027s.044.033.062.032a2.031,2.031,0,0,1,.387-.105,2.18,2.18,0,0,1,.413.036c.067,0,.122-.043.171-.026s.192-.051.215-.042a.347.347,0,0,0,.083.026c.022,0,.066-.011.093-.01a3.062,3.062,0,0,0,.667.035c.345-.022,1.363-.048,1.4-.08s.079-.2.093-.2a.236.236,0,0,0,.147-.059c.053-.043.225-.269.355-.311s.164-.443.122-.472-.207-.139-.188-.235.109-.391.058-.491a2.866,2.866,0,0,1-.1-.362c-.009-.021-.04-.155-.107-.2s-.168-.3-.214-.313-.191-.115-.207-.174-.149-.151-.163-.139-.1,0-.1-.02-.016-.069-.046-.071a.457.457,0,0,1-.144-.043.615.615,0,0,0-.264-.176,1.171,1.171,0,0,1-.369-.14.58.58,0,0,0-.249-.178,2.137,2.137,0,0,0-.507-.091,1.3,1.3,0,0,1-.445.038c-.082-.037-.226-.194-.271-.188a.284.284,0,0,1-.2-.041.756.756,0,0,0-.215-.146c-.025,0-.043.031-.086.022a.516.516,0,0,0-.19-.007c-.026.013-.019.053-.061.065-.011,0-.019-.023-.045-.02a.136.136,0,0,0-.045.039,2.017,2.017,0,0,1-.651.053c-.335-.015-.665.062-.687.046s-.163.048-.27.033-.308-.147-.355-.12-.173-.028-.2,0a.508.508,0,0,1-.248.062.547.547,0,0,0-.266.009.981.981,0,0,1-.548-.009c-.24-.064-.695-.175-.7-.172a.073.073,0,0,1-.044,0,1.16,1.16,0,0,0-.15-.07l-.139-.1c-.032-.023-.032-.12-.081-.165a4.759,4.759,0,0,1-.544-.233c-.276-.189-.677-.544-.677-.544-.451-.323-.624-.425-.71-.412-.049.007-.1.079-.1.17-.023.351-.086.35-.091.349s-.149.144-.167.169-.034.014-.068.005a.639.639,0,0,0-.13.491l.092.22.025.058c.059.052.092.115.076.146a.874.874,0,0,0,.089.367c.061.112.037.334.072.391a1.943,1.943,0,0,1,.244.447c.053.174.17.712.186.715a.249.249,0,0,1,.14.142l.061.086.2.283a3.13,3.13,0,0,0,.337.4.8.8,0,0,1,.172.346c.046.183.391.116.433.117a.211.211,0,0,1,.143.071c.042.049.3.174.318.212a1.5,1.5,0,0,1,.141.577,4.214,4.214,0,0,1-.219.678c.005.034.034.147,0,.183a3.259,3.259,0,0,0-.245.617l-.029.144-.016.08c.027.128.033.247.01.262a1.492,1.492,0,0,0-.128.464,2.84,2.84,0,0,0,.128.843,7.961,7.961,0,0,1,.4.984c.171.5.852.852.861.885s.168.065.253.037.254.182.268.181a.276.276,0,0,1,.179.1l.076.054a4.839,4.839,0,0,0,.483.118l.423.157c.229-.05.444-.094.476-.1a.581.581,0,0,0,.241-.241c.061-.128.275-.4.267-.412a.6.6,0,0,0-.071-.024s.19-.166.423-.349a3.653,3.653,0,0,1,.994-.376.434.434,0,0,1,.027.052,3.635,3.635,0,0,1-.268.448,7.052,7.052,0,0,1-.49.7c-.054.021-.191.081-.194.106a2.564,2.564,0,0,1-.4.458,7.722,7.722,0,0,0-.623.781c-.012.028.01.039.035.041s.1.005.087.04c0,.014-.011.055-.234.1-.118.023-.243.07-.278.07a.347.347,0,0,0-.166.054c-.025.03-.086.166-.168.169s-.258.175-.273.214a.163.163,0,0,1-.147.132,1.156,1.156,0,0,0-.389.209.474.474,0,0,1-.245.118c-.132.028-.4.422-.666.517s-.884.507-1.386.748c0,0,0,0-.315-.045-.258-.035-.85.319-1.143.416l-.228.077c-.209.076-.389.137-.4.137l-.392,0-.186.1c-.069.033-.187.146-.248.166-.115.033-.362-.012-.465.016l-.124.037a1.021,1.021,0,0,1-.278.1.65.65,0,0,0-.281.109l-.1.035-.148.047a1.576,1.576,0,0,1-.451-.2c-.1-.073-.362-.242-.366-.254s-.106,0-.12-.015a.189.189,0,0,0-.139-.011,1.015,1.015,0,0,0-.158.064.256.256,0,0,1-.079.108,4.788,4.788,0,0,0-.667.974s-.032.062.112.272l.115.173a2.12,2.12,0,0,0,.157.792c.057.056.219.14.214.151s.017.106.026.1a5.558,5.558,0,0,1,.354.727l.178.227.051.067c.062.054.368-.062.682-.26.239-.152.66-.332.845-.423a.252.252,0,0,0,.047,0,.635.635,0,0,0,.1-.031c.056-.019.044-.043.066-.063a.238.238,0,0,1,.079-.045c.029-.015.088-.034.136-.06a.991.991,0,0,1,.115-.044s.079-.033.123-.049c.027-.01.035-.022.038-.03s.052-.005.077-.005a1.057,1.057,0,0,0,.127-.03l.011-.015c.01,0,.021-.006.021-.01s.051-.074.043-.1a.057.057,0,0,1,.065-.072.5.5,0,0,0,.171-.011l.008,0,.005-.008.009,0a.078.078,0,0,0,.012-.019.053.053,0,0,1,.031-.014c.022,0,.06-.04.095-.05s.079-.009.1-.014.067-.02.067-.02.055-.02.087-.035a.735.735,0,0,1,.076-.024h.057a.143.143,0,0,0,.093-.026c.03-.016.028.005.046,0a.508.508,0,0,0,.07-.025l.065-.02a.318.318,0,0,1,.034-.006.191.191,0,0,0,.074-.009c.087-.034.313-.148.324-.141a2.967,2.967,0,0,0,.329-.1c.029-.01.042.006.072.016a.083.083,0,0,0,.028,0l0,0,0,0a.083.083,0,0,0,.043-.03.3.3,0,0,0,.042-.012.4.4,0,0,1,.079,0,.111.111,0,0,1,.046,0s.015,0,.049-.031.024-.028.04-.039a.691.691,0,0,1,.112-.025c.031-.008.086-.026.115-.035.073-.018.146-.065.168-.059s.269-.111.291-.113a.527.527,0,0,0,.243-.069,1.276,1.276,0,0,1,.3-.128.6.6,0,0,0,.164-.053,1.119,1.119,0,0,1,.149-.038c.022-.005.143-.045.155-.051a.638.638,0,0,1,.191-.011c.08.008.4-.076.677-.1l.106-.047c.046-.02.031-.067.112-.08l.061-.011c-.005.024.027.026.072.005a1.054,1.054,0,0,0,.137-.061c.019-.019.082-.02.105-.044s.085-.09.1-.09.05.018.045.04.1.025.259-.037.312-.19.33-.179a.2.2,0,0,0,.16-.025c.051-.038.156-.151.176-.14a.806.806,0,0,0,.13.062c.018,0,.07-.014.079-.033a.2.2,0,0,1,.053-.067c.011-.007.039-.01.051-.019s.02-.029.042-.028a2.331,2.331,0,0,1,.419-.2c.14-.022.319-.029.344-.042a1.139,1.139,0,0,1,.211-.172,2.232,2.232,0,0,1,.5-.16c.026.005.06.033.092.036a.174.174,0,0,0,.11-.049c.019-.027.059-.084.092-.086s.44-.085.542-.116a1.661,1.661,0,0,1,.381-.045.08.08,0,0,1,.042.056.028.028,0,0,1-.009.036c-.018.012-.086.016-.105.027a.054.054,0,0,0-.02.053c0,.013.01.028,0,.033a1.506,1.506,0,0,0-.29.3c-.141.175-.459.659-.49.683a1.683,1.683,0,0,0-.214.171c-.1.1-.452.462-.775.8l-.256.3c-.485.574-.845,1.047-.845,1.047-.335.443-.656.859-.71.927a11.188,11.188,0,0,0-.63,1.158,1.233,1.233,0,0,0-.061.87c.042.12.225.3.279.462l.027.1c.038.147.068.277.068.286a.6.6,0,0,0,.161.134c.088.056.3.181.3.181s.031.014.026.033a3.919,3.919,0,0,0,.633.466l.07.029c.316.13.523,0,.842.1.4.125.842.071,1.3.167l.062.011a.973.973,0,0,1,.214-.052,6.865,6.865,0,0,0,.77-.174l.362-.183.176-.089a2.17,2.17,0,0,1,.47-.285,1.347,1.347,0,0,0,.357-.167.568.568,0,0,1,.221-.14,1.323,1.323,0,0,0,.425-.37c.123-.179.547-.514.623-.691l.06-.16.1-.268a.7.7,0,0,0-.046-.447c-.055-.046-.1-.245-.151-.264a.96.96,0,0,1-.083-.573l-.036-.1a4.012,4.012,0,0,1-.2-.546,1.282,1.282,0,0,1,0-.348.5.5,0,0,0-.213-.4,3.64,3.64,0,0,0-.663-.2.547.547,0,0,1-.316-.149c-.117-.111-.37-.161-.39-.2s-.166-.061-.178-.1a.757.757,0,0,1,.163-.5l.141-.191c.071-.093.093-.252.167-.379a8.338,8.338,0,0,1,.727-.878l.16-.21a3.223,3.223,0,0,0,.49-.457c-.008-.019-.015-.089,0-.105s.056-.068.067-.083.144-.014.185-.046.207-.109.209-.135a1.458,1.458,0,0,1,.556-.143l.283-.042.171-.028c.1-.141.2-.252.219-.246s.245.054.434.09l.317-.282.058-.049c.2-.046.373-.081.378-.079s.025.055.042.064a.416.416,0,0,0,.212-.046,2.341,2.341,0,0,0,.477-.258c.051-.074.157-.188.161-.24a.723.723,0,0,1,.012-.205c.018,0,.059-.057.052-.089s0-.179-.025-.187a.3.3,0,0,1-.036-.186c.012-.055,0-.192.028-.208s.146-.109.186-.136.079-.206.109-.21a.215.215,0,0,0,.1-.1C422.982,445.723,422.935,445.676,422.873,445.642Zm-6,8.843c-.036.059-.049.183-.117.223a7.133,7.133,0,0,0-.645.413,4.962,4.962,0,0,1-1.1.551c-.073,0-.171-.031-.285-.022a2.731,2.731,0,0,1-.558,0,2.119,2.119,0,0,1-.359-.075c-.024-.029-.009-.124.02-.221s.148-.376.154-.42a1,1,0,0,1,.187-.338l.036-.058c.115-.186.143-.387.265-.562a4.894,4.894,0,0,1,.406-.548,4.334,4.334,0,0,1,.751-.691c.063-.009.183.092.2.148a.7.7,0,0,0,.1.219c.046.046.2.076.257.155s.165.286.287.348c.058.031.315.123.349.153s.028.13.033.271A2.617,2.617,0,0,1,416.868,454.485Z" fill-rule="evenodd"/>
      <path id="패스_14" data-name="패스 14" d="M450.525,439.127a.072.072,0,0,0-.005-.031c0-.011-.01-.012-.014-.005a.053.053,0,0,0,0,.031Zm-.062.1c.009-.025,0-.044-.005-.044s-.02.019-.027.044S450.452,439.249,450.463,439.225Zm-.249,1.228a.1.1,0,0,0-.013.1C450.223,440.544,450.232,440.472,450.214,440.453Zm.461-.322c.01-.06.007-.072-.011-.031a1.306,1.306,0,0,0-.073.165C450.594,440.277,450.664,440.19,450.675,440.131Zm-.028.281c0,.008.021.016.032.013a.029.029,0,0,0,.015-.017s-.021,0-.03,0S450.647,440.407,450.647,440.412Zm-.375-.01c.007-.007-.005-.016-.013-.016s-.01.009-.01.016S450.267,440.412,450.272,440.4Zm.091-.969a.082.082,0,0,0,0-.061c-.007-.006-.017.005-.029.027a.328.328,0,0,0-.011.1C450.328,439.506,450.355,439.454,450.363,439.433Zm-.091.148c.007,0,0-.056,0-.056a.072.072,0,0,0-.009.023C450.256,439.56,450.267,439.586,450.272,439.581Zm.392-.735c0-.009-.01-.006-.015.007a.164.164,0,0,0-.008.044S450.668,438.854,450.664,438.846Zm.485.641a.036.036,0,0,0,0,.044.407.407,0,0,0,.086-.147c.015-.049.015-.068,0-.04A1.077,1.077,0,0,1,451.149,439.487Zm-.141.26a1.451,1.451,0,0,0-.075.221c.018.005.075-.15.1-.206S451.034,439.689,451.008,439.747Zm.052-.386a.257.257,0,0,0-.061.1c-.022.055-.081.2-.077.2a.84.84,0,0,0,.122-.182C451.071,439.413,451.068,439.361,451.06,439.361Zm-.231-3.535a.18.18,0,0,0,.021.132c.025.037-.066.376-.036.5l.079.174.068.142a.471.471,0,0,0,.287.2c.043-.011.108.028.115.03a3.709,3.709,0,0,1,.1.433.376.376,0,0,0,.092.22,2.542,2.542,0,0,1,.125.3c.029.079.072.088.1.08s.032-.027.046-.018a4.28,4.28,0,0,1-.338.826,2.219,2.219,0,0,0-.164.387,1.673,1.673,0,0,0,.212-.3,3.764,3.764,0,0,1,.321-.457,1.048,1.048,0,0,1,.138-.15.017.017,0,0,1,.025.015.491.491,0,0,1-.028.092.042.042,0,0,0,0,.042c.015.008.049-.01.071-.015a.27.27,0,0,1,.173.084.556.556,0,0,1,.062.269.362.362,0,0,0,.06.189c.023.022.1,0,.139,0,.086,0,.14.133.222.171s.132.077.162.07l.005,0c.012,0,.026.008.041.012a.461.461,0,0,0,.091.016c.039.006.049-.016.1.006a.6.6,0,0,1,.124.056.211.211,0,0,0,.06.045.311.311,0,0,0,.077.032l.1.007.007.005a.365.365,0,0,0,.064.041l.033.011a.15.15,0,0,0,.134,0l.047-.058a.226.226,0,0,1,0-.063.057.057,0,0,1,.069-.04c.011.01.087-.1.087-.171s.122-.122.146-.17a.436.436,0,0,1,.1-.11c.009-.006.389-.042.57-.084s.457,0,.5-.022.165.036.188.033.039.028.037.04a3.58,3.58,0,0,1,.646.2l.232.075.173.022h.225c.153-.044.688.061.756-.045a1.554,1.554,0,0,0,.1-.3c.051-.14-.139-.174-.114-.3.043-.255.165-.576.015-.81l-.169-.265a4.9,4.9,0,0,0-.741-.691.492.492,0,0,1-.183-.151.7.7,0,0,0-.241-.136,5.347,5.347,0,0,1-.536-.3,1.778,1.778,0,0,0-.387-.187l-.107-.059a.745.745,0,0,0-.315-.1l-.052,0c-.039,0-.076-.023-.171-.1a.3.3,0,0,0-.086-.044.334.334,0,0,0-.148-.012c-.132.016-.466.122-.536.135a.2.2,0,0,1-.153-.032,2.344,2.344,0,0,0-.392-.113,1.268,1.268,0,0,1-.32-.154c-.067-.021-.278-.018-.369-.124-.112-.128-.178-.479-.275-.58-.062-.068-.444-.233-.566-.319a1.287,1.287,0,0,0-.514-.16,1.643,1.643,0,0,0-.382.169c-.086.043-.185.155-.17.232.009.037-.03.088-.042.1-.042.056.047.349.111.555A1.378,1.378,0,0,1,450.829,435.826Zm-.724,4.08a.354.354,0,0,0,.033-.109c.006-.031,0-.041-.012-.022a.684.684,0,0,0-.043.11C450.083,439.9,450.1,439.906,450.105,439.906Zm1.2-.91a.049.049,0,0,0-.031.016.291.291,0,0,0-.018.047.265.265,0,0,0,.043.005c.012,0,.03-.034.032-.045S451.316,439,451.308,439Zm-.45.729a.026.026,0,0,0-.02.025c0,.013-.044.082-.044.091a.021.021,0,0,0,.011.017.887.887,0,0,0,.06-.088C450.882,439.744,450.87,439.725,450.858,439.725Zm0-1.155s-.014-.005-.022-.005-.014.007-.018.018,0,.03,0,.03a.1.1,0,0,0,.029-.02A.046.046,0,0,0,450.861,438.57Zm-.092,1.375c0-.013-.015-.024-.025-.024a.021.021,0,0,0-.02.017.063.063,0,0,0,.02.046C450.754,439.986,450.768,439.957,450.769,439.945Zm-.034.37a1.148,1.148,0,0,0,.1-.212c.022-.071.018-.087-.011-.037s-.1.212-.108.221A.033.033,0,0,0,450.735,440.315Zm-1.024.008c0-.02-.015-.031-.02-.025a.412.412,0,0,0-.034.054.123.123,0,0,0-.007.028C449.65,440.385,449.719,440.342,449.711,440.323Zm11.485,12.7c.055-.053.088-.129.073-.159s-.042-.045-.06-.035a.112.112,0,0,0-.041.086c0,.009.012.014,0,.025s-.12.029-.169.037a.1.1,0,0,0-.064.091c0,.018,0,.031.01.041A.5.5,0,0,0,461.2,453.018Zm-.127-.312a.076.076,0,0,0,.041.017c.031,0,.01-.09-.009-.1a.158.158,0,0,0-.077,0c-.032.012-.086.017-.111.045s.014.054.022.056.043.008.052-.014S461.05,452.691,461.069,452.706Zm-.313.2c.012-.03-.005-.075-.029-.079a.6.6,0,0,0-.22.1,1.7,1.7,0,0,0-.331.315c0,.009-.008.041.013.043s.225-.171.343-.214A.449.449,0,0,0,460.756,452.9Zm.875-.347c-.071.045-.287.21-.162.268.047.02.231-.11.315-.181s.151-.126.151-.146c0-.035-.1,0-.132,0A.337.337,0,0,0,461.631,452.556Zm.687-.258a1.456,1.456,0,0,1,.464-.241.156.156,0,0,0,.106-.077.234.234,0,0,1,.077-.034c.018,0,.041-.048.045-.066s-.082-.016-.194,0a1.224,1.224,0,0,0-.39.251c-.007.025-.019.033-.031.032s-.02-.012-.037-.012a.233.233,0,0,0-.094.074c-.014.026-.031,0-.053,0a1.182,1.182,0,0,0-.2.089.522.522,0,0,0-.117.088c0,.019.025.055.057.056A.758.758,0,0,0,462.318,452.3Zm-1.756.915a.768.768,0,0,0-.171.13c0,.006-.026.024-.01.034a.609.609,0,0,0,.239-.052.283.283,0,0,0,.106-.083c0-.013-.027-.046-.038-.056A.245.245,0,0,0,460.562,453.213ZM449.548,441.44a.055.055,0,0,0,.014.031.04.04,0,0,0,.02.007c.018,0,.008-.05-.022-.05C449.557,441.428,449.55,441.434,449.548,441.44Zm-.055.245c.007-.079,0-.1-.018-.049a1.894,1.894,0,0,0-.06.221A.331.331,0,0,0,449.493,441.685Zm-.105.189a.011.011,0,0,0-.009.017c0,.008.011.049.011.055s.012,0,.02,0,.013-.038.013-.049S449.4,441.874,449.388,441.874Zm.791-1.207c.012-.037,0-.068-.013-.068s-.025.023-.034.05a1.209,1.209,0,0,0-.054.134c0,.009.027.017.038.017A.672.672,0,0,0,450.179,440.667Zm-.3-.369a.963.963,0,0,0-.141.193,1.15,1.15,0,0,0-.1.363.652.652,0,0,0,.2-.284A1.394,1.394,0,0,0,449.88,440.3Zm10.139,12.946a1.29,1.29,0,0,0-.084.107.073.073,0,0,0,.013.028.514.514,0,0,0,.1-.005.142.142,0,0,0,.072-.06.505.505,0,0,0,.011-.072c0-.013-.042-.03-.056-.031S460.036,453.22,460.019,453.244ZM449.65,441.206c-.016.052-.053.188-.05.188a.662.662,0,0,0,.093-.168c.014-.063.011-.113,0-.113A.246.246,0,0,0,449.65,441.206Zm.278-.957.017.006s.054-.12.073-.167a.12.12,0,0,0,0-.094c-.009,0-.035.023-.056.055A.847.847,0,0,0,449.928,440.249Zm-.028-.255a.632.632,0,0,0,.043-.2.874.874,0,0,0-.082.15c-.038.083-.134.324-.133.333A.906.906,0,0,0,449.9,439.994Zm-.571,1.323c.017-.019-.012-.087-.022-.092s-.026.009-.035.037a.339.339,0,0,0-.008.122C449.27,441.389,449.313,441.339,449.329,441.317Zm.142-.32a.227.227,0,0,0,.005-.171c-.012,0-.036.042-.052.1s-.1.207-.1.222S449.443,441.078,449.471,441Zm.17-.427c.016-.055.012-.1.005-.1a.124.124,0,0,0-.041.043,1.043,1.043,0,0,0-.085.192.082.082,0,0,0,.011.045A.767.767,0,0,0,449.641,440.57Zm32.1,12.837V453.4c.019-.079-.008-.026-.043-.124a.322.322,0,0,1-.025-.079.362.362,0,0,0-.019-.045.643.643,0,0,0-.1-.14.243.243,0,0,0-.093-.055c-.007-.029-.049-.049-.035-.071s.047-.081.038-.1-.064-.083-.1-.088a.258.258,0,0,1-.143-.107.107.107,0,0,0-.033-.044l-.01-.008a.18.18,0,0,0-.038-.021c-.009-.007.005.005-.009,0l-.02-.015s-.015-.006-.033-.041-.018-.029-.022-.046-.025-.035-.034-.053a.3.3,0,0,0-.2-.122.574.574,0,0,1-.313-.163s-.007-.014-.065-.039a.958.958,0,0,0-.2-.068,3.531,3.531,0,0,1-.743-.167,2.673,2.673,0,0,0-.542-.074.381.381,0,0,0-.186-.09c-.072-.008-.336.018-.347,0a1.355,1.355,0,0,0-.427-.077c-.214-.011-.876.144-.911.132a.787.787,0,0,0-.22-.039l-.007,0-.032,0c-.01,0-.086.042-.086.042l-.056.03s-.033.029-.043.041l-.051.046-.021.015,0,.012c-.008,0-.01.009-.014.019-.005.041-.059.161-.128.161s-.316.151-.392.151-.336.084-.509.091l-.064.023c-.114.041-.319-.027-.415.017a1.263,1.263,0,0,1-.479.132,2.107,2.107,0,0,0-.618-.006,9.873,9.873,0,0,1-1.026.254.6.6,0,0,0-.216,0,1.465,1.465,0,0,1-.333.055,5.615,5.615,0,0,0-.675.02c-.229.02-.542.132-.666.14a.794.794,0,0,0-.241.017.445.445,0,0,1-.219.034,1.171,1.171,0,0,0-.6-.062l-.16.061a5.044,5.044,0,0,1-1.336.358c-.554.03-1.138.067-1.3.081s-.5.045-.708.05-1.052.017-1.411.008-1.448.234-1.649.22l-.081.027a10.766,10.766,0,0,1-1.408.264l-.312.041a12.61,12.61,0,0,1-1.394.147c-.275,0-.759.05-.848.038s-.317-.053-.325-.055-.009-.014,0-.02.038-.024.036-.043,0-.044.022-.051.058-.06.081-.072l.019-.017a.136.136,0,0,0,.028-.05.127.127,0,0,0,.011-.027s.007-.025.019-.032l.028-.012c.011-.006.046-.037.057-.045a.051.051,0,0,0,.022-.043c0-.025,0-.028,0-.037a.053.053,0,0,0-.015-.017v-.015l-.007-.009c0-.02-.02-.093-.069-.091l-.077-.037-.021-.01c-.024-.012-.043-.035-.043-.049s.011-.06.026-.062.063-.008.067.012.039.071.061.067.079-.008.079.009.06.03.074-.015.169-.108.164-.132-.05-.068-.031-.081.027-.02.008-.037-.158-.027-.155-.059a.265.265,0,0,1,.09-.073c.05-.027.183-.1.19-.107s.029-.025.038-.024.021.041.035.049.053.007.053.026-.018.031-.015.04a.491.491,0,0,0,.256.053c.125,0,.272-.307.321-.34a.741.741,0,0,1,.25-.032.024.024,0,0,0,.022-.035c-.007-.016.005-.1-.022-.124a.206.206,0,0,0-.153-.023c-.05.018-.225.079-.24.054s.033-.036.089-.074.3-.111.319-.056a.258.258,0,0,0,.172.11c.024-.007.033-.069.125-.134a.748.748,0,0,1,.363-.1.219.219,0,0,0,.143.016,1.513,1.513,0,0,0,.4-.124c.023-.037-.007-.119.032-.145s.12-.032.136-.062a.253.253,0,0,0,.012-.113.068.068,0,0,0-.063-.022.426.426,0,0,1-.1.015.188.188,0,0,1,.069-.107c.049-.027.169-.059.154-.007a1.157,1.157,0,0,0-.032.188.127.127,0,0,1,.042.064c.014.037.09-.034.109-.074s.026-.113.048-.137.091-.014.1-.035-.027-.032-.027-.045.02-.029.046-.032a1.633,1.633,0,0,1,.171.011c.029,0,.1-.076.129-.067a.307.307,0,0,0,.144.009.085.085,0,0,0-.016-.12.518.518,0,0,0-.164-.018c-.018,0-.015-.015-.011-.02s.008-.011.041-.027.117-.034.134-.017a.13.13,0,0,0,.062.033.168.168,0,0,0,.131-.043c.071-.049.216-.055.126.017a1.293,1.293,0,0,0-.241.237s.005.006.021.008.1-.013.092.007.034.072.039.079a.08.08,0,0,0,.069-.026c.024-.026.081-.155.139-.163a.658.658,0,0,0,.255-.115.135.135,0,0,0,.011-.1c-.007-.014-.048-.066-.079-.06s-.074.011-.076-.023a.071.071,0,0,1,.086-.057c.026.014.076.047.1.037s.055-.071.041-.074-.043.011-.055-.007a.122.122,0,0,1,.03-.114.784.784,0,0,1,.238-.132c.029-.008.02.022.011.042s-.045.069-.037.091.011.085-.018.093-.108.063-.093.1a.415.415,0,0,0,.264-.121c.1-.1.345-.2.355-.222s-.007-.037,0-.053.111,0,.111,0c.131.007.279-.02.47-.281a.217.217,0,0,1,.121-.091,1.5,1.5,0,0,1,.635.279.772.772,0,0,1,.186.063,1.213,1.213,0,0,0,.48.015.761.761,0,0,0,.4-.36c.005-.026-.02-.066,0-.1a.4.4,0,0,0,.014-.211.283.283,0,0,1-.054-.087.147.147,0,0,1,.065-.09.713.713,0,0,0,.1-.463c-.018-.22-.247-.942-.271-1.205a2.453,2.453,0,0,1-.019-.623.361.361,0,0,0,0-.253c-.037-.038-.073-.062-.083-.085s0-.052.057-.077.134-.045.148-.085a.042.042,0,0,0-.025-.056c-.036-.021-.088-.127-.054-.164a.412.412,0,0,0,.058-.136l.005-.009c.012-.018,0-.018,0-.033a.19.19,0,0,0,0-.041c0-.016,0-.009-.015-.023a.406.406,0,0,1-.037-.03c-.016-.016,0,0-.011-.016s-.013-.02-.013-.03a.325.325,0,0,0-.013-.043.85.85,0,0,1,.006-.088c.007-.036.025-.029.031-.073a.721.721,0,0,0,0-.1c0-.042-.027-.048-.031-.086a.362.362,0,0,1,0-.051.223.223,0,0,0,.03-.069.265.265,0,0,0,0-.031.137.137,0,0,1,.02-.051s.005-.016.013-.036a.062.062,0,0,0,.012-.053c0-.044,0-.021-.006-.044a.388.388,0,0,1-.026-.075s-.024-.073-.031-.1-.012-.04-.021-.066l.005-.018c.005-.024-.059-.09-.046-.12s.041-.051.024-.075a.588.588,0,0,1-.052-.057c0-.014,0-.054-.012-.064a.1.1,0,0,1-.032-.076,1.921,1.921,0,0,1,.022-.212c.008-.015.1-.062.094-.088s.02-.122,0-.14a.194.194,0,0,0-.041-.023c-.007-.025-.006-.011-.006-.011l0-.018a.146.146,0,0,0,.008-.031c-.006-.018.006-.022.006-.032a.238.238,0,0,1,.023-.043.123.123,0,0,0,.023-.034c.008-.014.027-.026.029-.035a.318.318,0,0,0,.008-.046l-.008-.034,0,0c0-.048-.1-.085-.126-.06l0,.005-.005-.01a.129.129,0,0,1-.009-.044.3.3,0,0,1,0-.033l.014-.037.017-.019c0-.008.011-.016.025-.044s0-.016,0-.044a.469.469,0,0,1,.006-.079c0-.049.028-.043.038-.075a.254.254,0,0,1,.042-.076c.011-.016,0,0,.008-.006s.021-.024.046-.055,0-.04,0-.08a.113.113,0,0,0-.013-.064.341.341,0,0,1-.009-.1,1.233,1.233,0,0,1,.044-.2c.026-.034.008-.122-.03-.227a.76.76,0,0,1,.03-.308,1.1,1.1,0,0,1-.005-.22,1.023,1.023,0,0,0,.024-.355c-.013-.046-.06-.085-.067-.1a.129.129,0,0,1,.007-.079c.011-.02.091-.076.083-.138a1.5,1.5,0,0,1-.03-.235c.01-.038.083-.1.08-.145a.872.872,0,0,1,0-.176c.005-.03.057-.057.044-.1s-.132-.092-.139-.146c0-.013.011-.045.043-.039s.015-.123.015-.156a.377.377,0,0,1,.047-.142l.032-.065c.043-.07.075-.112.068-.132s-.044-.024-.079-.03a.029.029,0,0,1-.011-.011c-.02-.024-.005-.008-.029-.059s0-.04,0-.056.017-.033.019-.048l0-.005,0,0a.117.117,0,0,0,.042-.03c.043-.038.039-.059.039-.059,0-.042-.043-.108-.071-.1h0v-.015c0-.015.019-.026.019-.036s.015-.026.028-.043a.159.159,0,0,0,.015-.024c.009,0,.02,0,.025,0s.019-.065.02-.079a.09.09,0,0,0-.036-.072l.016-.029c.007-.012,0-.017,0-.064s-.01-.046-.021-.089a.174.174,0,0,1,0-.061c.013-.017.006-.024.006-.024V439.8c0-.022-.006-.03-.017-.108s0-.051.013-.156.023-.037.03-.052.007-.009.028-.046,0-.018.014-.042l.005-.007,0-.006c0-.008,0,0,0-.007a.112.112,0,0,0-.017-.047c-.016-.024,0-.014,0-.029v-.088a.115.115,0,0,0-.016-.059.023.023,0,0,0-.006-.012v-.007c-.017-.018-.056,0-.068-.018s.009-.092.053-.207a1.252,1.252,0,0,0-.01-.424c0-.017,0-.029.008-.033a.108.108,0,0,0,.055-.068c.017-.058.047-.189.047-.191a.031.031,0,0,0-.006-.028.075.075,0,0,1-.033-.1.29.29,0,0,0,.027-.094c.01-.014.02-.031.038-.057.043-.061,0-.048,0-.065s.011-.042.011-.058.039-.06.039-.06l.068-.1a.057.057,0,0,0,0-.055.061.061,0,0,0-.008-.032.385.385,0,0,1-.05-.284c.016-.128.016-.382.016-.5v0l0-.011c0-.024,0-.042,0-.043l-.009-.05.006-.042a4.012,4.012,0,0,1,.081-.466,3.683,3.683,0,0,0,.012-.651.344.344,0,0,0,.043-.165.8.8,0,0,1-.029-.2,1.442,1.442,0,0,0,0-.391l.1-.223a1.207,1.207,0,0,0,.167-.446v-.106a.626.626,0,0,1,.023-.324.793.793,0,0,0,.074-.38,2.079,2.079,0,0,0-.063-.49c-.054-.069-.26-.43-.478-.706a3.478,3.478,0,0,0-.72-.513c0-.034-.11-.106-.155-.1s-.087.068-.111.065a1.283,1.283,0,0,0-.29.442,4.749,4.749,0,0,0-.169.7,3.055,3.055,0,0,0,.141.631l-.082.151a6.357,6.357,0,0,0-.268,1.671c0,.1.124.347.1.446-.222.888-.309,1.452-.309,1.452-.085.55-.144.995-.132.988a1.131,1.131,0,0,1-.049.379,7.2,7.2,0,0,0-.028.776c-.02.028-.083.116-.066.139a.64.64,0,0,1,0,.3c-.028.124-.147.4-.133.424s.051.076.043.073-.015.237-.009.54l-.045.11-.063.158a5.262,5.262,0,0,0-.414,1.023l-.167.125a11.156,11.156,0,0,1-1.093.83l-.145.089a8.986,8.986,0,0,1-.834.467l-.211.087-.017.005a5.686,5.686,0,0,0-.536.406l-.077-.014c-.133-.027-.445.288-.561.366-.261.171-.486.242-.729.41l-.2.141a2.018,2.018,0,0,1-.329.261c-.025,0-.111.124-.187.178s-.311.132-.311.153a1.522,1.522,0,0,1-.4.325c-.218.137-.512.564-.58.585s-.23.044-.239.083a.537.537,0,0,1-.067.161.562.562,0,0,1-.217-.074,1.219,1.219,0,0,1-.136-.185c-.012,0-.089.023-.121,0s-.119-.088-.114-.086a2.582,2.582,0,0,1-.513-.164l-.259-.136-.108-.06c-.085-.076-.166-.131-.182-.121s0-.093.074-.184l.055-.066.042-.052a.187.187,0,0,0-.008-.085c-.005-.013-.034-.055.031-.128s.123-.138.132-.144a.513.513,0,0,0,.021-.1.028.028,0,0,0-.006-.028.3.3,0,0,0,0-.036l.017-.052.036-.033.028-.031a.182.182,0,0,0,.024-.044l.005-.017.013-.037.011-.038.019-.023s.049-.016.057-.03.033-.052.033-.052,0,.006,0-.008a.682.682,0,0,0,.068-.112c0-.01-.015-.041-.034-.036a.3.3,0,0,1-.108-.006.345.345,0,0,1,.128-.176.913.913,0,0,0,.2-.132,1.231,1.231,0,0,1,.137-.325,3.976,3.976,0,0,0,.2-.559c.019,0,.047-.018.026-.04a.571.571,0,0,1-.093-.137.1.1,0,0,1,.074,0c.021.012.134-.111.205-.3s.251-.691.247-.7-.032-.054-.057-.054-.075-.014-.057-.032.033-.143.05-.155.154-.1.15-.154.023-.147.007-.162-.067-.075-.057-.1.026-.12.029-.112.028-.03.032-.109l.025-.106.05-.234a2.541,2.541,0,0,0-.423-.576,5.152,5.152,0,0,0-.505-.186,3.941,3.941,0,0,0-1.273.332,7.9,7.9,0,0,0-1.306.514l-.068.051c-.118.093-.326.128-.41.2a4.977,4.977,0,0,1-.608.4c-.143.076-.245.013-.384.082-.1.052-.1.137-.166.183a5.2,5.2,0,0,1-.678.348l-.594.257a9.346,9.346,0,0,1-.947.383c-.013-.011-.061-.07-.078-.06a.31.31,0,0,1-.086.022,3.5,3.5,0,0,1,.106-.707c.087-.369.223-.865.227-.879s.012-.057-.007-.043a.8.8,0,0,0-.065.1c-.032.053-.119.207-.129.214s.007-.123.093-.316.136-.561.029-.382-.192.469-.22.457.012-.126.069-.312a4.971,4.971,0,0,1,.28-.571c0-.01,0-.033-.009-.033a3.286,3.286,0,0,0-.281.366,2.855,2.855,0,0,0-.219.588c-.014,0-.016-.02-.031-.039a.142.142,0,0,1-.019-.11c.016-.067.046-.206-.015-.192a1.528,1.528,0,0,0-.24.337l-.028.125-.075.323a6.482,6.482,0,0,1-.352.766c-.017-.008-.005-.064.015-.127a.976.976,0,0,0,.039-.33c-.012,0-.042.12-.068.117s0-.09.029-.2a2.884,2.884,0,0,0,.1-.381c-.017-.007-.033.046-.04.045s-.014-.01-.018-.021,0-.057.019-.068.062-.019.074-.029a.4.4,0,0,0,.044-.088s-.009,0-.023.005-.016-.041.017-.136.124-.348.126-.354.006-.024,0-.026a1.4,1.4,0,0,0-.194.27c-.091.156-.246.637-.264.64s-.013-.015-.006-.039.059-.119.031-.108a8.907,8.907,0,0,0-.412.836s-.028.06-.151.293l-.05.083c-.036.19-.071.354-.072.365a1.907,1.907,0,0,0,.089.428,1.336,1.336,0,0,0,.423.529,3.464,3.464,0,0,1,.729.374l.351-.045a2.258,2.258,0,0,0,.812-.415l.319-.194c.46-.183.833-.325.831-.316a1.759,1.759,0,0,0,.361-.1,4.674,4.674,0,0,0,.718-.371,1.252,1.252,0,0,1,.382-.181,2.191,2.191,0,0,0,.466-.261l0,0,.074-.049.058-.034.068-.019a.356.356,0,0,0,.039-.021l.075-.045.026-.021,0,.007.028-.04c.019-.021.076-.024.076.011a.561.561,0,0,1-.065.22.233.233,0,0,1-.1.072c-.012,0-.019-.017-.039-.006a.184.184,0,0,0-.094.115c-.027.088-.041.275-.058.279s-.031.027-.03.043h0a.066.066,0,0,0,0,.041c.007.015.016.015.016.034s.013.029,0,.049-.027.03-.03.053a.175.175,0,0,0,0,.037.148.148,0,0,0,0,.027l0,.031,0,.016h-.006a.059.059,0,0,0,.01.037l0,0,.018.036.007.022h0a.24.24,0,0,1,0,.025l-.005.012a.931.931,0,0,1-.037.1.107.107,0,0,1-.051.052,1.444,1.444,0,0,0-.355.5,5.06,5.06,0,0,1-.357.525c-.024.048-.041.123-.09.237s-.03.332-.054.392a.849.849,0,0,1-.044.158v.079a.168.168,0,0,1-.027.1c-.026.032-.036.067-.054.081s-.008.023-.025.033l-.035.027c-.014.018-.03.034-.036.043a.928.928,0,0,0-.259.19c-.068.1-.093.267-.149.3a.47.47,0,0,0-.139.148,2.346,2.346,0,0,0-.159.346.214.214,0,0,1-.021.088c-.024.036-.062.194-.045.2s.038-.019.045-.006a4.587,4.587,0,0,1-.265.418l-.185.229c-.014.014-.171.025-.214.067l-.043.04a2.626,2.626,0,0,0-.118.633,2.1,2.1,0,0,0,.22.864.675.675,0,0,1,.227.224c.049.106.2.469.294.508s.292.279.348.3.213.082.233.138a.592.592,0,0,0,.316.228c.138.036.287.277.326.283s.11-.075.2-.166a2.532,2.532,0,0,0,.421-.585,1.5,1.5,0,0,0,.108-.354.532.532,0,0,1-.007-.284,2.336,2.336,0,0,0,.045-.244c.009-.027.034-.034.044-.046s.016-.074.037-.084a.273.273,0,0,0,.081-.069c.009-.021.011-.119.04-.143s.1-.088.1-.12,0-.141.025-.171.156-.057.172-.1a.458.458,0,0,1,.18-.254,3.068,3.068,0,0,1,.489-.237.668.668,0,0,0,.162.045.466.466,0,0,1,.174-.039,1.534,1.534,0,0,1,.307.039c.012.01.016.031.05.05a4.36,4.36,0,0,1,.465.927,5.169,5.169,0,0,0,.416.731c.063.1.088.135.088.135.019.07-.008.308.012.341a1.066,1.066,0,0,1,.157.223,1.212,1.212,0,0,0,.336.339.328.328,0,0,1,.167.055.647.647,0,0,0,.4.051c.143-.034.469-.042.5-.114s.092-.24.128-.245.149-.061.165-.1a4.831,4.831,0,0,1,.128-.609,2.9,2.9,0,0,0,.059-.688c.009-.012.048-.07.029-.1s-.084-.142-.065-.188.047-.181.027-.2-.062-.1-.048-.13.075-.152.061-.17-.042-.14-.025-.151a.7.7,0,0,0,.062-.084.118.118,0,0,0,0-.078c-.02-.037.088-.159.3-.294s.488-.526.575-.56.33-.065.335-.074a1.979,1.979,0,0,1,.474-.306,6.243,6.243,0,0,0,.766-.661c.133-.088.448-.238.466-.251s.042-.1.066-.087a.4.4,0,0,0,.1.023c.063.01.278-.221.436-.241l.049-.048.3-.3a3.472,3.472,0,0,1,.887-.4l.035-.024c.087-.06.158-.168.266-.213l.172-.071c.177-.071.333.068.343.308l-.021.227-.02.234a6.852,6.852,0,0,1,.017,1.167,3.563,3.563,0,0,1-.2.932c-.081.136-.384.252-.414.335a.578.578,0,0,1-.036.131.258.258,0,0,1-.147.073c-.041,0-.122,0-.146.033s-.03.07-.062.112a1.242,1.242,0,0,1-.229.2.614.614,0,0,0-.23.211c-.021.06-.132.089-.161.143-.009.015-.007.035-.028.045s-.065-.006-.063.032.053.183.055.217a.076.076,0,0,1-.086.091c-.011,0-.021-.018-.028-.024a.058.058,0,0,1-.007-.039c.014-.028.051-.026.057-.035s-.01-.031-.053-.027-.108-.1-.14-.068a.442.442,0,0,1-.189.1s-.044.008-.094.1c-.036.067-.043.159-.1.216l-.108.115a2.1,2.1,0,0,1-.2.083,2.741,2.741,0,0,0-.433.358l-.14.09-.094.059a.983.983,0,0,0-.275.17,1.155,1.155,0,0,1-.374.227l-.117.087c-.13.1-.2.3-.346.4a10.79,10.79,0,0,0-1.95,1.4c-.125.127-.338.1-.448.217s-.158.27-.279.412l-.092.1a.953.953,0,0,0-.214.176c-.071.091-.382.29-.418.416a1.553,1.553,0,0,0-.039.218,4.563,4.563,0,0,0-.2,1.238l.039.2a1.586,1.586,0,0,0,.169.5,2,2,0,0,0,.477.447.741.741,0,0,0,.182.053.8.8,0,0,0,.252.036c.121.011.483-.107.629-.1.1,0,.76-.015,1.262-.058l.311-.02.31-.023a3.321,3.321,0,0,1,.535-.093l.047.009h0s0,.006.055.006.043.022.081,0a.3.3,0,0,1,.072-.038.07.07,0,0,0,.023-.011l.037-.006a.175.175,0,0,0,.041.007s.063-.009.075-.009h.047c.031-.005.039,0,.063-.005s.068-.016.068-.016l.028-.013c.017-.005.009-.02.019-.032a.568.568,0,0,1,.183-.042c.089-.011.391.014.438.007a1.27,1.27,0,0,0,.328-.008c.084-.041.218,0,.275,0a4.751,4.751,0,0,1,.492-.144c.261-.048.782-.1.8-.1.033,0,.093.022.149.018a2.488,2.488,0,0,1,.249-.047c.1,0,.8-.053.921-.059.221-.011.637.072.923.086a1.187,1.187,0,0,0,.229-.042c.079-.019.127-.033.127-.033a5.452,5.452,0,0,1,1.311-.1,2.482,2.482,0,0,0,.5-.046l.232-.057a10.627,10.627,0,0,1,1.162-.008,4.015,4.015,0,0,0,.579-.084,1.144,1.144,0,0,0,.287-.033c.007-.011.05-.072.085-.061a.809.809,0,0,0,.253.03,2.3,2.3,0,0,1,.625-.105c.32-.02.7.022.781.005a2.147,2.147,0,0,1,.3-.056c.031.007.134.067.2.04a3.145,3.145,0,0,1,.606-.091,2.759,2.759,0,0,0,.444-.075.1.1,0,0,1,.066.041.4.4,0,0,0,.285-.02c.093-.053.341-.228.348-.23s.023-.007.021.008c0,.031.072.015.055.046,0,.006-.056.039-.062.046a.052.052,0,0,0-.007.058.354.354,0,0,0,.211.065c.08,0,.212-.06.247-.057a.22.22,0,0,0,.112-.018c.064-.033.265-.076.257-.043s.191-.1.278-.105.274-.08.3-.069a1.462,1.462,0,0,0,.447-.018,3.21,3.21,0,0,1,.44-.016.848.848,0,0,1,.137-.021,1.239,1.239,0,0,0,.134,0,1.755,1.755,0,0,1,.253-.134.386.386,0,0,1,.112-.023c.114-.012.193.117.207.131a.171.171,0,0,0,.085.043c.054.02.364-.165.39-.167a.2.2,0,0,0,.071-.006c.1-.034.665.009.777-.018l.292-.093.108-.032c.023-.01.074-.078.122-.067a2.159,2.159,0,0,0,.4-.005,5.21,5.21,0,0,1,.641-.051.519.519,0,0,0,.251.011c.029-.023.285-.033.308-.049a.306.306,0,0,0,.069-.015.728.728,0,0,1,.1-.015.692.692,0,0,0,.124-.051.313.313,0,0,0,.069-.055c.008-.014.044-.035.1-.09s.017-.051.006-.051a.069.069,0,0,0-.023-.04.109.109,0,0,0-.063-.021.3.3,0,0,0,.043-.1c.029-.1.014-.064.014-.094.029-.005.067-.064.094-.125.01-.033.028-.082.044-.128a.1.1,0,0,0,.02-.057.335.335,0,0,0,.011-.041A.034.034,0,0,0,481.739,453.407Zm-31.5-11.637c.009-.013.027-.031.029-.016s.006.06,0,.065-.035,0-.035-.009A.318.318,0,0,1,450.24,441.77Zm-.013.111c0-.013.011-.021.013-.017s.019.018.016.027-.025.034-.029.034S450.223,441.893,450.227,441.881Zm-.358-.322c-.011.01-.029.013-.022-.01s.052-.033.047-.024A.135.135,0,0,1,449.869,441.559Zm.054-.131h-.009c-.008,0-.01-.018,0-.037s.032-.023.029,0S449.93,441.428,449.923,441.428Zm13.06,9.3a.2.2,0,0,1,.1-.01c.021,0,.063.01.065.028a.109.109,0,0,1-.023.052c-.016.02-.083.052-.093.026s0-.041-.032-.034-.093.078-.107.065S462.949,450.741,462.983,450.728Zm-.885-.893c.024.024.046.045.055.045s.02-.02,0-.044-.043-.072-.025-.076a.508.508,0,0,1,.1.012c.014,0,.036-.006.038-.015s0-.023,0-.029a.023.023,0,0,1,.032-.009c.008,0,.031.015.03.034a.2.2,0,0,1-.082.1c-.045.034-.138.105-.172.1s-.064-.032-.053-.046S462.076,449.81,462.1,449.835Zm-.052,1.566a.372.372,0,0,0,.206-.151.636.636,0,0,1,.2-.167c.031-.011.119,0,.145-.014s.01-.047-.015-.05-.025-.023.007-.047a.321.321,0,0,1,.136-.05c.035.012.057.056.035.074s-.058.009-.067.03a.356.356,0,0,1-.118.147c-.066.037-.261.138-.28.149a.875.875,0,0,1-.183.168c-.082.041-.178.135-.2.139a.013.013,0,0,1-.017-.015c0-.015.054-.058.042-.091s-.061-.069-.047-.083S461.967,451.419,462.046,451.4Zm-2.44,1.234c-.047.013-.045,0,0-.032a2.3,2.3,0,0,1,.262-.157c.02,0,.067.029.072.047a.377.377,0,0,1,.005.087.043.043,0,0,1-.055.023c-.026-.009-.065-.077-.078-.077s-.041.01-.037.022A.539.539,0,0,1,459.606,452.635Zm.4.312a.109.109,0,0,1-.1.042.53.53,0,0,1-.105-.056.113.113,0,0,1-.027-.072.072.072,0,0,1,.035-.051.281.281,0,0,1,.112,0c.021.012.051.071.066.075s.013-.013.016-.026a.921.921,0,0,1,.008-.1c.01-.024.051-.04.058-.03s0,.078.015.081.033,0,.036,0S460.036,452.916,460.005,452.947Zm.271-.227a.211.211,0,0,1,.039.025.042.042,0,0,1-.027.021c-.016,0-.072.058-.1.041S460.253,452.709,460.276,452.72Zm.323-1.123c-.047.015-.08.033-.083.018s.007-.029.038-.064a.736.736,0,0,1,.155-.133c.02,0,.015.06.027.054s.009.007,0,.015A.52.52,0,0,1,460.6,451.6Zm.26.322c-.01.008-.02.014-.024.013s.009-.042.011-.052c0-.033-.022-.035-.033-.03s-.052.045-.071.045-.025-.024,0-.053.089-.169.188-.18.272-.279.3-.279a.647.647,0,0,0,.126-.011.027.027,0,0,1,.025-.02c.015,0,.044.009.022.02s-.057.116-.109.16-.239.079-.3.137S460.889,451.9,460.859,451.919Zm.108-.738c0-.016,0-.021.013-.012a.061.061,0,0,0,.062.01c.018-.016.105-.072.107-.049a.117.117,0,0,1-.072.106A.12.12,0,0,1,460.967,451.181Zm.138.968c-.03.005-.12.024-.113,0s.04-.128.068-.122.1.07.1.088S461.136,452.147,461.105,452.149Zm.4-.192a.319.319,0,0,1-.045.016s-.033-.033-.033-.042.026-.072.015-.073a.057.057,0,0,0-.049.022.306.306,0,0,1-.047.073c-.012,0-.038,0-.039-.018a.575.575,0,0,1-.014-.06.357.357,0,0,1,.078-.06.924.924,0,0,1,.211-.117c.024.01,0,.128-.02.171A.215.215,0,0,1,461.5,451.957Zm.219.056c0-.01.069-.037.1-.037s0,.033-.071.074-.241.125-.2.083A1.989,1.989,0,0,1,461.722,452.013Zm-1.888-.487c0-.014.013-.022.021-.015a.121.121,0,0,0,.089-.032.714.714,0,0,1,.142-.207,1.6,1.6,0,0,1,.315-.142c.018,0,.091.016.108-.013a.449.449,0,0,1,.111-.08c.011-.011.022-.036-.011-.039s-.071-.085-.027-.071.16.025.16,0a.222.222,0,0,1,.068-.138c.041-.027.1-.062.125-.056s.018.032.048.023a.324.324,0,0,0,.106-.082c.006-.009.012-.029,0-.026s-.009-.021.049-.061.217-.15.225-.154a.253.253,0,0,1,.079-.073,1.566,1.566,0,0,0,.171-.147c.026-.007-.013.042-.017.05a1.326,1.326,0,0,1-.294.294c-.18.126-.322.375-.379.393a2.53,2.53,0,0,0-.5.311,5.645,5.645,0,0,1-.511.356.207.207,0,0,1-.071-.011A.513.513,0,0,1,459.834,451.526Zm-.5.855c.04-.022.071-.038.079-.041s.025-.011.021-.022-.049-.01-.051-.026a.049.049,0,0,1,.029-.053l.048-.015a.71.71,0,0,0,.193-.041,2.375,2.375,0,0,1,.222-.143c.057-.011.057.026.029.048a.178.178,0,0,1-.117.051.676.676,0,0,0-.227.149.091.091,0,0,0-.021.044c0,.009.013.022.028.032s.061.018.057.042-.114.063-.149.053a.226.226,0,0,0-.159.015c-.025.02-.08.085-.1.084S459.3,452.4,459.337,452.381Z" fill-rule="evenodd"/>
      <path id="패스_15" data-name="패스 15" d="M442.488,445.628c0-.015.018-.053.043-.053a.267.267,0,0,0,.1-.012,1.657,1.657,0,0,0-.267-.352l-.122-.067c-.211-.123-.5-.055-.677-.083l-.337-.06a3.709,3.709,0,0,1-.827.148,1.278,1.278,0,0,0-.4.059.383.383,0,0,1-.206.048.7.7,0,0,0-.409.143,1.066,1.066,0,0,1-.193.176c-.016,0-.284.041-.565.092l-.3.122-.194.075c-.167.149-.216.2-.244.2s-.026-.009-.039-.009-.025,0-.048.026a1.014,1.014,0,0,1-.319.2c-.16.06-.4.118-.4.132a.109.109,0,0,1-.076.07c-.041.007-.216,0-.249.047s-.185.1-.2.088a.427.427,0,0,0-.2.055c-.024.021-.11.066-.124.054a.13.13,0,0,0-.112-.007c-.028.02-.1.042-.108.074s.04.047.033.067a.052.052,0,0,1-.042.041c-.029.009-.049-.011-.083,0s-.066.071-.111.079a2.109,2.109,0,0,0-.254.029c0,.015-.011.053-.03.053a2.6,2.6,0,0,1-.326.091c-.118.013-.479.2-.623.214l-.071.062c-.236.187-.4.077-.642.23-.082.051-.143.163-.268.2-.07.021-.294.064-.294.064a.972.972,0,0,0-.211.071c-.007.008-.206.07-.426.177l-.173.1a2.692,2.692,0,0,1-.634.166c-.253.073-.587.224-.856.314-.172.058-.358-.075-.549,0a1.022,1.022,0,0,1-.594.05l-.1-.027c-.13-.057-.218-.155-.2-.216s-.022-.172.039-.277.232-.289.225-.329a1.017,1.017,0,0,1,.233-.45,3.271,3.271,0,0,1,.336-.229,2.515,2.515,0,0,1,.471-.3l.229-.19c.089-.073.156-.24.265-.279a4.051,4.051,0,0,0,.942-.415l.09-.065c.315-.191.7-.44.856-.554a1.062,1.062,0,0,1,.466-.127s.02-.058.033-.049.057-.026.048-.021a.258.258,0,0,0,.037-.037.928.928,0,0,0,.123-.12.58.58,0,0,1,.076-.046c.123-.065.181-.021.281-.109l.1-.086s0-.011.039-.034a.679.679,0,0,0,.2-.076c0-.007.01-.037.091-.084a.629.629,0,0,1,.33-.02h0c.014.007.021,0,.026-.005h.019a.629.629,0,0,0,.139-.007c.02-.006.094-.065.122-.078a.572.572,0,0,1,.117-.066.349.349,0,0,0,.094-.022.542.542,0,0,0,.116-.058l.021-.015.058-.057v0a1.412,1.412,0,0,0,.216-.17c0-.013-.016-.047-.034-.048s-.063-.032-.063-.053a.263.263,0,0,1,.2-.08c.111,0,.481-.022.488-.018s.026.021.035.04.169.086.233.017c.046-.047.239-.115.281-.168a.422.422,0,0,0,.057-.026c.029-.013.095-.035.095-.035l.031-.034a.055.055,0,0,0,.022-.026s.01.013.017,0a.054.054,0,0,0,.023-.015c.021-.021.031-.029.046-.043a.086.086,0,0,1,.03-.024c.014-.009.014-.02.049-.024s.037.023.08-.011a.719.719,0,0,1,.085-.054c.019-.013.016-.039.058-.042s.015.01.039,0a.1.1,0,0,0,.032-.017l.012-.01v0c.028-.029.037-.093.055-.107s.07.015.1,0,.087-.132.159-.149a1.174,1.174,0,0,1,.238-.042c-.005.013.191-.108.186-.128s0-.037.02-.036a.241.241,0,0,0,.167,0,1.076,1.076,0,0,1,.32-.09.219.219,0,0,0,.069-.005c.115-.026.111-.03.111-.03a2.5,2.5,0,0,1,.424-.212,2.645,2.645,0,0,0,.76-.35,2.524,2.524,0,0,0,.815-1.1.216.216,0,0,0-.07-.183,2.587,2.587,0,0,0-.713-.409,6.932,6.932,0,0,1-1.009-.337.643.643,0,0,0-.32-.127,1.573,1.573,0,0,0-.349.079.564.564,0,0,0-.28.066,1.172,1.172,0,0,1-.433.024c-.029,0-.1.089-.15.084s-.162-.009-.162.005-.021.051-.05.043a1.4,1.4,0,0,0-.466.009,2.394,2.394,0,0,0-.454.117c-.029.026-.1.133-.13.13s-.113.013-.118.043-.148.165-.157.19a.257.257,0,0,1-.137.1.482.482,0,0,0-.264.166l-.045.031a1.511,1.511,0,0,1-.447.066l-.043.011a1.506,1.506,0,0,0-.326.15.548.548,0,0,1-.279.019c-.151-.018-.4.178-.453.163a2.373,2.373,0,0,1-.282-1.009,2.64,2.64,0,0,1,.176-1.2.338.338,0,0,0,.053-.145c-.068-.139-.084-.282-.047-.326.056-.071.071-.162.1-.182s.047.007.053.024a.117.117,0,0,0,.136.013c.07-.029.131-.175.167-.179s.089,0,.106-.01a.531.531,0,0,1,.218-.113c.121-.03.23-.222.263-.24s.358-.071.475-.1a2.371,2.371,0,0,0,.324-.066c.039-.024.156-.1.157-.119l.023,0,.073-.023.045.007.064.008c.008,0,.02-.011.03-.026l.006-.005s.046-.038.07-.061.062-.024.092-.039.134-.039.163-.047.1-.031.123-.039.188-.015.188-.015h.263a.052.052,0,0,1,.038.023.294.294,0,0,0,.063-.008.753.753,0,0,1,.1-.031.211.211,0,0,0,.091-.054l.038-.011.007.008a.989.989,0,0,0,.232-.105c.1-.065.258-.308.276-.3s.129.005.125.022.053.046.132.025.318,0,.373-.033.169-.1.2-.079a1.261,1.261,0,0,0,.387.032l.072-.043a.3.3,0,0,1,.04-.025h.009c.019,0,.022-.006.033-.021a.063.063,0,0,1,.025-.027c.019-.013.032-.01.062-.026s.038-.009.084-.031a.275.275,0,0,1,.1-.015c.026-.005.073-.021.089-.026a.581.581,0,0,1,.094,0h.076l.012,0a.061.061,0,0,0,.05-.056.582.582,0,0,1,.215-.3.167.167,0,0,0,.076-.025.422.422,0,0,0,.1-.049c.008-.007.008-.039,0-.068l.071-.071a.814.814,0,0,0,.14-.156.155.155,0,0,0-.008-.178.369.369,0,0,0-.027-.123c-.017-.021-.135-.069-.133-.088a.2.2,0,0,0-.065-.131c-.043-.028-.127-.149-.111-.155a.434.434,0,0,0,.021-.248,1.754,1.754,0,0,0-.41-.657l-.152-.094c-.2-.12-.494-.079-.7-.214l-.118-.077a3.5,3.5,0,0,0-.386-.166,1.1,1.1,0,0,1-.423-.027l-.128-.044a.19.19,0,0,0-.088-.032,2.9,2.9,0,0,1-.54.131.818.818,0,0,0-.265.009,1.484,1.484,0,0,0-.232.146.553.553,0,0,1-.141.078,2.59,2.59,0,0,0-.264.124.432.432,0,0,1-.137.088.388.388,0,0,1-.152.008c-.02,0-.062,0-.067,0a1.956,1.956,0,0,0-.886.311,6.43,6.43,0,0,0-.654.459l-.15.117a2.054,2.054,0,0,1-.523.136,4.3,4.3,0,0,0-.857.318l-.2-.007-.148-.006a6.062,6.062,0,0,1-1.641.06l-.38,0-.151,0a7.774,7.774,0,0,0-1.329-.534l-.4-.09-.1-.024c-.088-.079-.171-.121-.188-.091a.6.6,0,0,1-.3.128c-.084.011-.182.141-.245.231l-.119.189.009.115.012.127s.024.114.035.16c.006.017-.009.044-.027.071,0,.333,0,.585.007.585a2.878,2.878,0,0,1,.14.284l.04.047.037.044c.06.021.109.067.109.1a.34.34,0,0,0,.038.155.373.373,0,0,1,.11.149,2.01,2.01,0,0,0,.27.441l.08.085.2.223c.26.16.493.294.513.3a.3.3,0,0,0,.11.011.062.062,0,0,0,.013-.009l.026,0c.062-.009.036-.036.1,0s0-.036.066.035a.54.54,0,0,1,.08.126.137.137,0,0,0,.052.044s-.016.009.029.036-.04-.005.039.024a.277.277,0,0,0,.226.1c.118-.012.345.152.379.143s.147-.029.158,0,.062.1.089.1.144.006.172.04.125.146.142.136.073-.037.08-.026.034.044.047.045.086-.04.115-.028.1.062.087.087a.794.794,0,0,0-.056.212c0,.047.018.335.03.53s-.151.7-.11.775l.027.094.018.066a5.111,5.111,0,0,0,.415,1.374,7.244,7.244,0,0,0,1.058,1.1.557.557,0,0,0,.286.147,1.319,1.319,0,0,1,.321.088.044.044,0,0,1,0,.057c-.018.018-.076.075-.062.088a.889.889,0,0,1,.044.117,1.45,1.45,0,0,1-.2.09.739.739,0,0,0-.257.155c-.01.028,0,.087-.054.116s-.163.012-.179.02-.011.007,0,.021.007.062-.019.051a.621.621,0,0,0-.11-.024.064.064,0,0,0-.006.055.158.158,0,0,0,.067.089c.019.008.069.014.072.017s-.014.014-.043.03-.136.033-.13.012.019-.075,0-.075a.213.213,0,0,0-.1.03,1.369,1.369,0,0,1-.4.308,1.954,1.954,0,0,0-.515.265.242.242,0,0,1-.109.174c-.079.046-.37.081-.388.109s-.01.074-.05.085a.671.671,0,0,0-.215.181c-.062.068-.177.179-.2.152s-.133-.066-.133-.044a1.881,1.881,0,0,1-.45.343l-.16.129c-.106.092-.252.1-.367.185-.378.292-.779.558-.779.558-.461.313-.944.646-1.074.743s-.243.645-.257.656.042.256.057.473a3.2,3.2,0,0,0,.217.725,4.808,4.808,0,0,0,1.05.461,11.682,11.682,0,0,0,1.172.286,4.506,4.506,0,0,0,.989-.182.458.458,0,0,0,.292.024,5.907,5.907,0,0,1,.632-.155l.053-.035.058-.041a.8.8,0,0,1,.269-.118,1.779,1.779,0,0,0,.425-.1,2.062,2.062,0,0,0,.274-.121c-.005,0,0,0,.112-.033l.136-.044.1-.033a.262.262,0,0,0,.089-.051c.021-.015.034-.042.026-.055s-.014-.033,0-.035.24-.117.321-.147.4-.057.409-.071a.111.111,0,0,1,.093-.048c.039,0,.187-.011.2-.043s.045-.156.088-.166a.439.439,0,0,1,.162-.024c.015,0,.065-.007.169-.063a4.009,4.009,0,0,1,.361-.182.884.884,0,0,0,.195-.058c.125-.053.318-.062.475-.107l0,0c.026.012.054-.014.124-.04s.032-.008.063-.014.083-.022.119-.033.1-.041.125-.043.084-.034.12-.045.1,0,.153-.011.135-.038.135-.038a.432.432,0,0,0,.081-.031h0l.055-.022c.088-.035.154-.194.248-.264l.132-.1c.3-.062.533.242.521.675s-.118,1.276-.1,1.276a4.522,4.522,0,0,1-.05.81l.048.251a6.018,6.018,0,0,1,.11.641c0,.556-.008,1.033-.024,1.061a1.064,1.064,0,0,0-.011.379,2.212,2.212,0,0,1,.068.41c-.019.04-.077.126-.073.134s.054.047.042.057a.446.446,0,0,0-.063.195,1.738,1.738,0,0,0,0,.323,2.017,2.017,0,0,1-.078.643c-.081.285-.167.716-.19.711s-.114.1-.159.243-.145.442-.142.457.072.084.065.1a1.589,1.589,0,0,1-.183.256,4.027,4.027,0,0,0-.254.681l-.048.089a5.771,5.771,0,0,0-.284.638,2.4,2.4,0,0,0-.2,1.243c.079.162.432.274.451.32s.1.167.122.172.086.041.1.041.051-.013.047-.028a.072.072,0,0,1,.064-.059c.039,0,.157-.065.172-.049s.2-.015.219-.006.019.016.033.019v0h0a.024.024,0,0,0,.019-.006l.039-.018.042-.026s.066-.019.1-.031a.171.171,0,0,0,.074-.057c.005-.006.019-.033.038-.06a.61.61,0,0,1,.066-.069c.052-.053.037-.076.066-.112s.05-.067.05-.067a1.018,1.018,0,0,1,.149-.036.264.264,0,0,0,.132-.053.985.985,0,0,0,.092-.056.608.608,0,0,0,.162-.123c.1-.086.217-.352.236-.349a.048.048,0,0,0,.032-.02.4.4,0,0,0,.046-.055c.031-.045,0-.045.009-.126a.408.408,0,0,1,.044-.163.787.787,0,0,1,.118-.206c.037-.03.022-.088.11-.2.067-.084.058-.129.051-.145a.266.266,0,0,1,.07-.084.929.929,0,0,1,.143-.064.133.133,0,0,0,.07-.029l.066-.051.054-.052a.022.022,0,0,0,.014-.017c.012-.027.1-.115.092-.138s0-.119,0-.165c0-.009.006-.018.008-.028.011-.029-.017-.033.022-.068s.047-.019.07-.075a.437.437,0,0,0,.03-.087l.027-.1a.853.853,0,0,0,.063-.069.217.217,0,0,0,.039-.086c.012-.045.029-.1.029-.1l.008-.026a.2.2,0,0,0,.031-.08c0-.031-.008-.082-.008-.106a.737.737,0,0,0-.009-.079v-.052a.466.466,0,0,1,.009-.1c.008-.025.016-.058.016-.058a.246.246,0,0,0,.006-.035.045.045,0,0,0,.011-.013,1.571,1.571,0,0,1,.109-.372.8.8,0,0,0,.013-.365h0l0-.007a.362.362,0,0,1-.005-.064c.011,0,.014-.037,0-.074a.269.269,0,0,0,.014-.044c.009-.033.009-.091.019-.115a1.275,1.275,0,0,0,.014-.13l.026-.107,0-.018,0,0a.392.392,0,0,0,.013-.226c-.016-.009-.06-.011-.064-.027s.044-.031.037-.058-.048-.037-.055-.064a.083.083,0,0,1,.012-.054.084.084,0,0,1,.036-.017.043.043,0,0,0,.029-.058.741.741,0,0,1-.012-.3,1.064,1.064,0,0,0,0-.356.821.821,0,0,1-.012-.4,3.08,3.08,0,0,0-.05-.723,4.273,4.273,0,0,1,.036-.563c.032-.287.035-.83.068-.92l0-.032c.018-.107-.063-.219-.046-.264a2.181,2.181,0,0,0,.129-.778c-.058-.15-.081-.224-.081-.224-.017-.106.195-.245.15-.4a.952.952,0,0,1-.039-.324,6.607,6.607,0,0,0,.038-.738c-.01-.192-.273-.795-.266-.885s.2-.23.295-.264.35-.07.35-.089a1.143,1.143,0,0,1,.454-.077l.141-.054.077-.028a.667.667,0,0,0,.245-.143c.027-.034.036-.078.056-.086s.019.025.058.02a1.313,1.313,0,0,0,.278-.1c.092-.05.132-.309.17-.337a.318.318,0,0,0,.121-.154c.017-.064.2-.122.21-.139s0-.065,0-.119S442.488,445.643,442.488,445.628Zm-9.275-.652c.025-.011.115-.063.126-.063s.024,0,.024,0-.011.016-.024.023-.036.024-.027.026.016.018-.006.031-.115.04-.118.03S433.188,444.985,433.213,444.976Zm-.233.219c.022.005.033,0,.036-.015s.006-.041,0-.047-.018-.028,0-.035.068-.067.068-.044-.032.152-.062.16a.273.273,0,0,1-.106.015s0-.006,0-.008l-.007-.017C432.9,445.2,432.955,445.193,432.98,445.2Zm-1.785.67a.653.653,0,0,1,.121-.04c.012,0,.037.013.023.022a.982.982,0,0,1-.078.069c-.017,0-.126.017-.116-.023A.232.232,0,0,1,431.2,445.865Zm-.447.641a.406.406,0,0,1,.07-.008.188.188,0,0,0,.063-.008.247.247,0,0,1,.091-.144c.066-.047.513-.211.839-.4.179-.122.286-.208.3-.218a.329.329,0,0,1,.119-.052c.3-.208.6-.435.61-.438.057-.024.049.022.046.027a.479.479,0,0,1-.092.088,1.153,1.153,0,0,0-.163.105c-.007.008,0,.027-.021.022a.337.337,0,0,0-.2.113.375.375,0,0,1-.183.083c-.14.1-.28.191-.383.255l-.034.015c-.074.053-.16.111-.26.175-.161.1-.341.237-.488.327a1.075,1.075,0,0,1-.3.146A.046.046,0,0,1,430.748,446.506Z" fill-rule="evenodd"/>
    </g>
  </g>
</svg>
