<?xml version="1.0" encoding="utf-8"?>
<!-- Generator: Adobe Illustrator 16.0.0, SVG Export Plug-In . SVG Version: 6.00 Build 0)  -->
<!DOCTYPE svg PUBLIC "-//W3C//DTD SVG 1.1//EN" "http://www.w3.org/Graphics/SVG/1.1/DTD/svg11.dtd">
<svg version="1.1" id="레이어_1" xmlns="http://www.w3.org/2000/svg" xmlns:xlink="http://www.w3.org/1999/xlink" x="0px"
	 y="0px" width="291.309px" height="153.768px" viewBox="0 0 291.309 153.768" enable-background="new 0 0 291.309 153.768"
	 xml:space="preserve">
<g>
	<g>
		<g>
			<path fill="#716F64" d="M70.69,89.567h11.909v-6.033H70.69c-2.901,0-5.262-2.36-5.262-5.261c0-2.901,2.36-5.262,5.262-5.262
				h11.909v-6.033H70.69c-6.228,0-11.295,5.066-11.295,11.295S64.462,89.567,70.69,89.567z"/>
			<path fill="#716F64" d="M18.63,62.898c6.228,0,11.295-5.067,11.295-11.295c0-6.228-5.067-11.294-11.295-11.294h-5.921H6.676
				v6.032v10.524v6.033h6.033H18.63z M12.709,46.341h5.921c2.902,0,5.261,2.361,5.261,5.262c0,2.902-2.359,5.262-5.261,5.262h-5.921
				V46.341z"/>
			<path fill="#716F64" d="M45.298,40.309h-5.922h-6.032v6.032v10.524v6.033h6.032h5.922c6.228,0,11.294-5.067,11.294-11.295
				C56.592,45.375,51.525,40.309,45.298,40.309z M45.298,56.865h-5.922V46.341h5.922c2.901,0,5.261,2.361,5.261,5.262
				C50.559,54.505,48.198,56.865,45.298,56.865z"/>
			<path fill="#716F64" d="M70.69,62.898h11.909v-6.033H70.69c-2.901,0-5.262-2.36-5.262-5.262c0-2.901,2.36-5.262,5.262-5.262
				h11.909v-6.032H70.69c-6.228,0-11.295,5.066-11.295,11.294C59.395,57.831,64.462,62.898,70.69,62.898z"/>
			<g>
				<path fill="#716F64" d="M44.636,84.151c-2.901,0-5.261-2.361-5.261-5.263h-6.033c0,6.227,5.066,11.294,11.294,11.294
					c6.229,0,11.295-5.067,11.295-11.294h-6.033C49.899,81.789,47.538,84.151,44.636,84.151z"/>
				<circle fill="#716F64" cx="52.915" cy="72.052" r="3.412"/>
				<circle fill="#716F64" cx="36.359" cy="72.052" r="3.412"/>
			</g>
			<path fill="#716F64" d="M76.031,105.463c2.403-0.511,4.759-1.314,6.574-2.174v-6.343c-2.244,1.06-5.312,2.043-8.277,2.484v-5.78
				h-6.034v5.78c-2.965-0.441-6.032-1.425-8.276-2.484v6.343c1.813,0.857,4.164,1.661,6.563,2.172l-7.14,10.772h7.237l4.626-6.98
				l4.626,6.98h7.237L76.031,105.463z"/>
			<path fill="#9CC715" d="M49.966,98.357c-0.485-2.825-2.678-4.953-5.301-4.953c-2.634,0-4.826,2.128-5.311,4.953
				c-2.824-0.411-5.522,1.012-6.333,3.51c-0.813,2.496,0.537,5.237,3.067,6.565c-1.265,2.572-0.749,5.574,1.38,7.124
				c2.129,1.539,5.143,1.106,7.198-0.897c2.045,2.004,5.069,2.437,7.188,0.897c2.129-1.55,2.646-4.552,1.38-7.124
				c2.541-1.328,3.889-4.069,3.067-6.565C55.489,99.368,52.791,97.946,49.966,98.357z M43.01,108.338
				c-0.728,0.408-1.644,0.156-2.055-0.569c-0.421-0.719-0.189-1.645,0.537-2.058c0.717-0.419,1.655-0.168,2.066,0.549
				C43.98,106.988,43.727,107.915,43.01,108.338z M43.147,102.846c0-0.831,0.685-1.484,1.518-1.484c0.822,0,1.507,0.653,1.507,1.484
				c0,0.832-0.685,1.507-1.507,1.507C43.832,104.353,43.147,103.678,43.147,102.846z M48.364,107.769
				c-0.41,0.726-1.328,0.978-2.044,0.569c-0.728-0.423-0.98-1.351-0.558-2.078c0.41-0.717,1.349-0.968,2.065-0.549
				C48.553,106.124,48.786,107.05,48.364,107.769z"/>
			<path fill="#9CC715" d="M19.025,76.247c-0.527,0.231-1.117-0.147-1.117-0.728v-3.289c0-2.213-1.286-4.13-3.151-5.037
				c-0.738-0.358-1.571-0.559-2.445-0.559H6.715v11.614c0,3.213,1.297,6.123,3.404,8.221c2.097,2.096,5.006,3.393,8.21,3.393
				c6.408,0,11.614-5.186,11.614-11.613c0-2.256-0.643-4.353-1.739-6.134L19.025,76.247z M11.837,73.137
				c-0.833,0-1.507-0.674-1.507-1.507s0.675-1.507,1.507-1.507c0.832,0,1.506,0.675,1.506,1.507S12.669,73.137,11.837,73.137z"/>
			<path fill="#9CC715" d="M26.452,101.531l3.469-2.863l-1.617-1.619c-4.212-4.211-10.667-4.832-15.534-1.831l1.559,5.169
				c0.102,0.339-0.213,0.657-0.553,0.555l-5.179-1.553c-2.99,4.869-2.38,11.313,1.837,15.531l1.619,1.615l2.815-3.41
				c2.228-2.696,6.298-2.897,8.775-0.421l3.435,3.437l2.395-2.395l-3.44-3.44C23.555,107.829,23.751,103.762,26.452,101.531z"/>
		</g>
	</g>
	<path fill="#716F64" d="M129.56,84.495c2.155,2.047,3.233,4.63,3.233,7.755c0,2.34-0.613,4.468-1.839,6.385
		c-1.227,1.913-2.937,3.418-5.131,4.516c-2.194,1.096-4.705,1.647-7.529,1.647c-2.826,0-5.335-0.552-7.528-1.647
		c-2.195-1.098-3.896-2.595-5.103-4.489c-1.209-1.897-1.813-4.033-1.813-6.411c0-3.162,1.095-5.747,3.29-7.755H96.156v-6.691h18.235
		v-4.851h-4.462c-3.271,0-5.92-0.948-7.945-2.844c-2.028-1.897-3.04-4.407-3.04-7.529c0-3.124,1.012-5.642,3.04-7.557
		c2.025-1.915,4.675-2.872,7.945-2.872h24.985v6.636h-24.037c-1.115,0-2.026,0.327-2.731,0.977c-0.708,0.65-1.06,1.589-1.06,2.816
		c0,1.153,0.353,2.055,1.06,2.704c0.705,0.651,1.617,0.976,2.731,0.976h24.816v6.692h-13.496v4.851h18.237v6.691H129.56z
		 M113.695,96.319c1.207,1.152,2.741,1.729,4.6,1.729c1.858,0,3.392-0.577,4.601-1.729c1.207-1.151,1.812-2.656,1.812-4.516
		c0-1.821-0.613-3.326-1.84-4.517c-1.227-1.191-2.751-1.787-4.573-1.787s-3.346,0.596-4.573,1.787
		c-1.226,1.19-1.84,2.695-1.84,4.517C111.882,93.662,112.486,95.167,113.695,96.319z"/>
	<path fill="#716F64" d="M171.275,88.958v14.667h-7.809V88.958h-18.234v-6.691h44.278v6.691H171.275z M149.719,57.839
		c1.135-1.783,2.696-3.131,4.686-4.042c1.987-0.911,4.229-1.366,6.719-1.366h22.865v6.636h-21.917c-1.672,0-3.076,0.419-4.21,1.255
		c-1.134,0.837-1.7,2.167-1.7,3.988c0,1.748,0.566,3.04,1.7,3.876s2.538,1.254,4.21,1.254h22.697v6.693h-23.646
		c-2.49,0-4.731-0.455-6.719-1.367c-1.989-0.91-3.551-2.259-4.686-4.043c-1.134-1.784-1.699-3.922-1.699-6.413
		C148.02,61.781,148.585,59.624,149.719,57.839z"/>
	<path fill="#716F64" d="M204.453,63.472c-2.081-0.186-4.023-0.454-5.826-0.808c-1.806-0.354-3.04-0.678-3.709-0.976l0.669-6.357
		c0.483,0.261,1.711,0.577,3.68,0.948c1.97,0.372,3.979,0.633,6.023,0.78v-6.971h7.807v6.971c2.046-0.147,4.054-0.409,6.023-0.78
		c1.971-0.371,3.217-0.688,3.736-0.948l0.67,6.357c-0.67,0.298-1.916,0.623-3.737,0.976c-1.819,0.354-3.773,0.623-5.854,0.808
		l10.595,17.791h-9.034l-6.301-12.493l-6.358,12.493h-9.033L204.453,63.472z M203.282,85.779h7.81v10.819h25.985v6.693h-33.795
		V85.779z M236.13,86.896h-7.809V71.893h-6.077v-6.692h6.077V52.096h7.809V86.896z"/>
	<path fill="#716F64" d="M254.365,65.368V53.546h7.808v11.823L273.605,91.3h-8.477l-6.858-16.786L251.355,91.3h-8.477
		L254.365,65.368z M285.205,101.952h-7.809V52.096h7.809V101.952z"/>
</g>
</svg>
